<svg version="1.1" baseProfile="full" xmlns="http://www.w3.org/2000/svg"
width="1024" height="888.3"
viewBox="-164.7 -125.5 189.1 164"
>
<rect x="-164.7" y="-125.5" width="100%" height="100%" fill="white" />
<path stroke="green" stroke-width="0.04" stroke-linecap="round" fill="none"
transform="scale(1 -1)"
d="	M 0 0
	L 0 1
	L 0 2
	L 0 3
	L 0 4
	L 0.866 4.5
	L 0 5
	L 0 6
	L 0.866 6.5
	L 1.732 6
	L 1.732 7
	L 2.598 7.5
	L 1.732 8
	L 1.732 9
	L 0.866 8.5
	L 3.331e-16 9
	L 3.886e-16 10
	L 0.866 10.5
	L 3.331e-16 11
	L 3.886e-16 12
	L 0.866 12.5
	L 1.732 12
	L 1.732 13
	L 2.598 13.5
	L 3.464 13
	L 3.464 12
	L 4.33 12.5
	L 5.196 12
	L 5.196 13
	L 6.062 13.5
	L 5.196 14
	L 5.196 15
	L 6.062 15.5
	L 6.928 15
	L 6.928 16
	L 7.794 16.5
	L 6.928 17
	L 6.928 18
	L 6.062 17.5
	L 5.196 18
	L 5.196 19
	L 6.062 19.5
	L 5.196 20
	L 5.196 21
	L 4.33 20.5
	L 3.464 21
	L 3.464 20
	L 2.598 19.5
	L 1.732 20
	L 1.732 21
	L 0.866 20.5
	L 1.998e-15 21
	L 1.776e-15 22
	L 0.866 22.5
	L 1.554e-15 23
	L 1.332e-15 24
	L 0.866 24.5
	L 1.732 24
	L 1.732 25
	L 2.598 25.5
	L 1.732 26
	L 1.732 27
	L 0.866 26.5
	L 1.665e-15 27
	L 1.499e-15 28
	L 0.866 28.5
	L 1.332e-15 29
	L 1.11e-15 30
	L 0.866 30.5
	L 1.732 30
	L 1.732 31
	L 2.598 31.5
	L 3.464 31
	L 3.464 30
	L 4.33 30.5
	L 5.196 30
	L 5.196 31
	L 6.062 31.5
	L 5.196 32
	L 5.196 33
	L 6.062 33.5
	L 6.928 33
	L 6.928 34
	L 7.794 34.5
	L 8.66 34
	L 8.66 33
	L 9.526 33.5
	L 10.39 33
	L 10.39 32
	L 9.526 31.5
	L 10.39 31
	L 10.39 30
	L 11.26 30.5
	L 12.12 30
	L 12.12 31
	L 12.99 31.5
	L 13.86 31
	L 13.86 30
	L 14.72 30.5
	L 15.59 30
	L 15.59 31
	L 16.45 31.5
	L 15.59 32
	L 15.59 33
	L 16.45 33.5
	L 17.32 33
	L 17.32 34
	L 18.19 34.5
	L 17.32 35
	L 17.32 36
	L 16.45 35.5
	L 15.59 36
	L 15.59 37
	L 16.45 37.5
	L 15.59 38
	L 15.59 39
	L 16.45 39.5
	L 17.32 39
	L 17.32 40
	L 18.19 40.5
	L 19.05 40
	L 19.05 39
	L 19.92 39.5
	L 20.78 39
	L 20.78 40
	L 21.65 40.5
	L 20.78 41
	L 20.78 42
	L 21.65 42.5
	L 22.52 42
	L 22.52 43
	L 23.38 43.5
	L 22.52 44
	L 22.52 45
	L 21.65 44.5
	L 20.78 45
	L 20.78 46
	L 21.65 46.5
	L 20.78 47
	L 20.78 48
	L 19.92 47.5
	L 19.05 48
	L 19.05 47
	L 18.19 46.5
	L 17.32 47
	L 17.32 48
	L 16.45 47.5
	L 15.59 48
	L 15.59 49
	L 16.45 49.5
	L 15.59 50
	L 15.59 51
	L 16.45 51.5
	L 17.32 51
	L 17.32 52
	L 18.19 52.5
	L 17.32 53
	L 17.32 54
	L 16.45 53.5
	L 15.59 54
	L 15.59 55
	L 16.45 55.5
	L 15.59 56
	L 15.59 57
	L 14.72 56.5
	L 13.86 57
	L 13.86 56
	L 12.99 55.5
	L 12.12 56
	L 12.12 57
	L 11.26 56.5
	L 10.39 57
	L 10.39 56
	L 9.526 55.5
	L 10.39 55
	L 10.39 54
	L 9.526 53.5
	L 8.66 54
	L 8.66 53
	L 7.794 52.5
	L 6.928 53
	L 6.928 54
	L 6.062 53.5
	L 5.196 54
	L 5.196 55
	L 6.062 55.5
	L 5.196 56
	L 5.196 57
	L 4.33 56.5
	L 3.464 57
	L 3.464 56
	L 2.598 55.5
	L 1.732 56
	L 1.732 57
	L 0.866 56.5
	L 2.021e-14 57
	L 1.976e-14 58
	L 0.866 58.5
	L 1.932e-14 59
	L 1.887e-14 60
	L 0.866 60.5
	L 1.732 60
	L 1.732 61
	L 2.598 61.5
	L 1.732 62
	L 1.732 63
	L 0.866 62.5
	L 1.821e-14 63
	L 1.799e-14 64
	L 0.866 64.5
	L 1.776e-14 65
	L 1.754e-14 66
	L 0.866 66.5
	L 1.732 66
	L 1.732 67
	L 2.598 67.5
	L 3.464 67
	L 3.464 66
	L 4.33 66.5
	L 5.196 66
	L 5.196 67
	L 6.062 67.5
	L 5.196 68
	L 5.196 69
	L 6.062 69.5
	L 6.928 69
	L 6.928 70
	L 7.794 70.5
	L 6.928 71
	L 6.928 72
	L 6.062 71.5
	L 5.196 72
	L 5.196 73
	L 6.062 73.5
	L 5.196 74
	L 5.196 75
	L 4.33 74.5
	L 3.464 75
	L 3.464 74
	L 2.598 73.5
	L 1.732 74
	L 1.732 75
	L 0.866 74.5
	L 1.799e-14 75
	L 1.776e-14 76
	L 0.866 76.5
	L 1.754e-14 77
	L 1.732e-14 78
	L 0.866 78.5
	L 1.732 78
	L 1.732 79
	L 2.598 79.5
	L 1.732 80
	L 1.732 81
	L 0.866 80.5
	L 1.765e-14 81
	L 1.749e-14 82
	L 0.866 82.5
	L 1.732e-14 83
	L 1.71e-14 84
	L -0.866 84.5
	L -0.866 85.5
	L -1.732 85
	L -2.598 85.5
	L -2.598 86.5
	L -1.732 87
	L -2.598 87.5
	L -2.598 88.5
	L -3.464 88
	L -4.33 88.5
	L -4.33 87.5
	L -5.196 87
	L -6.062 87.5
	L -6.062 88.5
	L -6.928 88
	L -7.794 88.5
	L -7.794 89.5
	L -6.928 90
	L -7.794 90.5
	L -7.794 91.5
	L -6.928 92
	L -6.062 91.5
	L -6.062 92.5
	L -5.196 93
	L -6.062 93.5
	L -6.062 94.5
	L -6.928 94
	L -7.794 94.5
	L -7.794 95.5
	L -6.928 96
	L -7.794 96.5
	L -7.794 97.5
	L -8.66 97
	L -9.526 97.5
	L -9.526 96.5
	L -10.39 96
	L -11.26 96.5
	L -11.26 97.5
	L -12.12 97
	L -12.99 97.5
	L -12.99 96.5
	L -13.86 96
	L -12.99 95.5
	L -12.99 94.5
	L -13.86 94
	L -14.72 94.5
	L -14.72 93.5
	L -15.59 93
	L -16.45 93.5
	L -16.45 94.5
	L -17.32 94
	L -18.19 94.5
	L -18.19 95.5
	L -17.32 96
	L -18.19 96.5
	L -18.19 97.5
	L -19.05 97
	L -19.92 97.5
	L -19.92 96.5
	L -20.78 96
	L -21.65 96.5
	L -21.65 97.5
	L -22.52 97
	L -23.38 97.5
	L -23.38 98.5
	L -22.52 99
	L -23.38 99.5
	L -23.38 100.5
	L -22.52 101
	L -21.65 100.5
	L -21.65 101.5
	L -20.78 102
	L -21.65 102.5
	L -21.65 103.5
	L -22.52 103
	L -23.38 103.5
	L -23.38 104.5
	L -22.52 105
	L -23.38 105.5
	L -23.38 106.5
	L -22.52 107
	L -21.65 106.5
	L -21.65 107.5
	L -20.78 108
	L -19.92 107.5
	L -19.92 106.5
	L -19.05 107
	L -18.19 106.5
	L -18.19 107.5
	L -17.32 108
	L -18.19 108.5
	L -18.19 109.5
	L -17.32 110
	L -16.45 109.5
	L -16.45 110.5
	L -15.59 111
	L -16.45 111.5
	L -16.45 112.5
	L -17.32 112
	L -18.19 112.5
	L -18.19 113.5
	L -17.32 114
	L -18.19 114.5
	L -18.19 115.5
	L -19.05 115
	L -19.92 115.5
	L -19.92 114.5
	L -20.78 114
	L -21.65 114.5
	L -21.65 115.5
	L -22.52 115
	L -23.38 115.5
	L -23.38 116.5
	L -22.52 117
	L -23.38 117.5
	L -23.38 118.5
	L -22.52 119
	L -21.65 118.5
	L -21.65 119.5
	L -20.78 120
	L -21.65 120.5
	L -21.65 121.5
	L -22.52 121
	L -23.38 121.5
	L -23.38 122.5
	L -22.52 123
	L -23.38 123.5
	L -23.38 124.5
	L -24.25 124
	L -25.11 124.5
	L -25.11 123.5
	L -25.98 123
	L -26.85 123.5
	L -26.85 124.5
	L -27.71 124
	L -28.58 124.5
	L -28.58 123.5
	L -29.44 123
	L -28.58 122.5
	L -28.58 121.5
	L -29.44 121
	L -30.31 121.5
	L -30.31 120.5
	L -31.18 120
	L -32.04 120.5
	L -32.04 121.5
	L -32.91 121
	L -33.77 121.5
	L -33.77 122.5
	L -32.91 123
	L -33.77 123.5
	L -33.77 124.5
	L -34.64 124
	L -35.51 124.5
	L -35.51 123.5
	L -36.37 123
	L -37.24 123.5
	L -37.24 124.5
	L -38.11 124
	L -38.97 124.5
	L -38.97 123.5
	L -39.84 123
	L -38.97 122.5
	L -38.97 121.5
	L -39.84 121
	L -40.7 121.5
	L -40.7 120.5
	L -41.57 120
	L -40.7 119.5
	L -40.7 118.5
	L -39.84 119
	L -38.97 118.5
	L -38.97 117.5
	L -39.84 117
	L -38.97 116.5
	L -38.97 115.5
	L -39.84 115
	L -40.7 115.5
	L -40.7 114.5
	L -41.57 114
	L -42.44 114.5
	L -42.44 115.5
	L -43.3 115
	L -44.17 115.5
	L -44.17 114.5
	L -45.03 114
	L -44.17 113.5
	L -44.17 112.5
	L -45.03 112
	L -45.9 112.5
	L -45.9 111.5
	L -46.77 111
	L -47.63 111.5
	L -47.63 112.5
	L -48.5 112
	L -49.36 112.5
	L -49.36 113.5
	L -48.5 114
	L -49.36 114.5
	L -49.36 115.5
	L -50.23 115
	L -51.1 115.5
	L -51.1 114.5
	L -51.96 114
	L -52.83 114.5
	L -52.83 115.5
	L -53.69 115
	L -54.56 115.5
	L -54.56 116.5
	L -53.69 117
	L -54.56 117.5
	L -54.56 118.5
	L -53.69 119
	L -52.83 118.5
	L -52.83 119.5
	L -51.96 120
	L -52.83 120.5
	L -52.83 121.5
	L -53.69 121
	L -54.56 121.5
	L -54.56 122.5
	L -53.69 123
	L -54.56 123.5
	L -54.56 124.5
	L -55.43 124
	L -56.29 124.5
	L -56.29 123.5
	L -57.16 123
	L -58.02 123.5
	L -58.02 124.5
	L -58.89 124
	L -59.76 124.5
	L -59.76 123.5
	L -60.62 123
	L -59.76 122.5
	L -59.76 121.5
	L -60.62 121
	L -61.49 121.5
	L -61.49 120.5
	L -62.35 120
	L -63.22 120.5
	L -63.22 121.5
	L -64.09 121
	L -64.95 121.5
	L -64.95 122.5
	L -64.09 123
	L -64.95 123.5
	L -64.95 124.5
	L -65.82 124
	L -66.68 124.5
	L -66.68 123.5
	L -67.55 123
	L -68.42 123.5
	L -68.42 124.5
	L -69.28 124
	L -70.15 124.5
	L -71.01 124
	L -71.88 124.5
	L -71.88 123.5
	L -72.75 123
	L -73.61 123.5
	L -73.61 124.5
	L -74.48 124
	L -75.34 124.5
	L -75.34 123.5
	L -76.21 123
	L -75.34 122.5
	L -75.34 121.5
	L -76.21 121
	L -77.08 121.5
	L -77.08 120.5
	L -77.94 120
	L -78.81 120.5
	L -78.81 121.5
	L -79.67 121
	L -80.54 121.5
	L -80.54 122.5
	L -79.67 123
	L -80.54 123.5
	L -80.54 124.5
	L -81.41 124
	L -82.27 124.5
	L -82.27 123.5
	L -83.14 123
	L -84 123.5
	L -84 124.5
	L -84.87 124
	L -85.74 124.5
	L -85.74 123.5
	L -86.6 123
	L -85.74 122.5
	L -85.74 121.5
	L -86.6 121
	L -87.47 121.5
	L -87.47 120.5
	L -88.33 120
	L -87.47 119.5
	L -87.47 118.5
	L -86.6 119
	L -85.74 118.5
	L -85.74 117.5
	L -86.6 117
	L -85.74 116.5
	L -85.74 115.5
	L -86.6 115
	L -87.47 115.5
	L -87.47 114.5
	L -88.33 114
	L -89.2 114.5
	L -89.2 115.5
	L -90.07 115
	L -90.93 115.5
	L -90.93 114.5
	L -91.8 114
	L -90.93 113.5
	L -90.93 112.5
	L -91.8 112
	L -92.66 112.5
	L -92.66 111.5
	L -93.53 111
	L -94.4 111.5
	L -94.4 112.5
	L -95.26 112
	L -96.13 112.5
	L -96.13 113.5
	L -95.26 114
	L -96.13 114.5
	L -96.13 115.5
	L -96.99 115
	L -97.86 115.5
	L -97.86 114.5
	L -98.73 114
	L -99.59 114.5
	L -99.59 115.5
	L -100.5 115
	L -101.3 115.5
	L -101.3 116.5
	L -100.5 117
	L -101.3 117.5
	L -101.3 118.5
	L -100.5 119
	L -99.59 118.5
	L -99.59 119.5
	L -98.73 120
	L -99.59 120.5
	L -99.59 121.5
	L -100.5 121
	L -101.3 121.5
	L -101.3 122.5
	L -100.5 123
	L -101.3 123.5
	L -101.3 124.5
	L -102.2 124
	L -103.1 124.5
	L -103.1 123.5
	L -103.9 123
	L -104.8 123.5
	L -104.8 124.5
	L -105.7 124
	L -106.5 124.5
	L -106.5 123.5
	L -107.4 123
	L -106.5 122.5
	L -106.5 121.5
	L -107.4 121
	L -108.3 121.5
	L -108.3 120.5
	L -109.1 120
	L -110 120.5
	L -110 121.5
	L -110.9 121
	L -111.7 121.5
	L -111.7 122.5
	L -110.9 123
	L -111.7 123.5
	L -111.7 124.5
	L -112.6 124
	L -113.4 124.5
	L -113.4 123.5
	L -114.3 123
	L -115.2 123.5
	L -115.2 124.5
	L -116 124
	L -116.9 124.5
	L -116.9 123.5
	L -117.8 123
	L -116.9 122.5
	L -116.9 121.5
	L -117.8 121
	L -118.6 121.5
	L -118.6 120.5
	L -119.5 120
	L -118.6 119.5
	L -118.6 118.5
	L -117.8 119
	L -116.9 118.5
	L -116.9 117.5
	L -117.8 117
	L -116.9 116.5
	L -116.9 115.5
	L -117.8 115
	L -118.6 115.5
	L -118.6 114.5
	L -119.5 114
	L -120.4 114.5
	L -120.4 115.5
	L -121.2 115
	L -122.1 115.5
	L -122.1 114.5
	L -123 114
	L -122.1 113.5
	L -122.1 112.5
	L -123 112
	L -123.8 112.5
	L -123.8 111.5
	L -124.7 111
	L -123.8 110.5
	L -123.8 109.5
	L -123 110
	L -122.1 109.5
	L -122.1 108.5
	L -123 108
	L -122.1 107.5
	L -122.1 106.5
	L -121.2 107
	L -120.4 106.5
	L -120.4 107.5
	L -119.5 108
	L -118.6 107.5
	L -118.6 106.5
	L -117.8 107
	L -116.9 106.5
	L -116.9 105.5
	L -117.8 105
	L -116.9 104.5
	L -116.9 103.5
	L -117.8 103
	L -118.6 103.5
	L -118.6 102.5
	L -119.5 102
	L -118.6 101.5
	L -118.6 100.5
	L -117.8 101
	L -116.9 100.5
	L -116.9 99.5
	L -117.8 99
	L -116.9 98.5
	L -116.9 97.5
	L -117.8 97
	L -118.6 97.5
	L -118.6 96.5
	L -119.5 96
	L -120.4 96.5
	L -120.4 97.5
	L -121.2 97
	L -122.1 97.5
	L -122.1 96.5
	L -123 96
	L -122.1 95.5
	L -122.1 94.5
	L -123 94
	L -123.8 94.5
	L -123.8 93.5
	L -124.7 93
	L -125.6 93.5
	L -125.6 94.5
	L -126.4 94
	L -127.3 94.5
	L -127.3 95.5
	L -126.4 96
	L -127.3 96.5
	L -127.3 97.5
	L -128.2 97
	L -129 97.5
	L -129 96.5
	L -129.9 96
	L -130.8 96.5
	L -130.8 97.5
	L -131.6 97
	L -132.5 97.5
	L -132.5 96.5
	L -133.4 96
	L -132.5 95.5
	L -132.5 94.5
	L -133.4 94
	L -134.2 94.5
	L -134.2 93.5
	L -135.1 93
	L -134.2 92.5
	L -134.2 91.5
	L -133.4 92
	L -132.5 91.5
	L -132.5 90.5
	L -133.4 90
	L -132.5 89.5
	L -132.5 88.5
	L -133.4 88
	L -134.2 88.5
	L -134.2 87.5
	L -135.1 87
	L -136 87.5
	L -136 88.5
	L -136.8 88
	L -137.7 88.5
	L -137.7 87.5
	L -138.6 87
	L -137.7 86.5
	L -137.7 85.5
	L -138.6 85
	L -139.4 85.5
	L -139.4 84.5
	L -140.3 84
	L -140.3 83
	L -141.2 82.5
	L -140.3 82
	L -140.3 81
	L -141.2 80.5
	L -142 81
	L -142 80
	L -142.9 79.5
	L -142 79
	L -142 78
	L -141.2 78.5
	L -140.3 78
	L -140.3 77
	L -141.2 76.5
	L -140.3 76
	L -140.3 75
	L -141.2 74.5
	L -142 75
	L -142 74
	L -142.9 73.5
	L -143.8 74
	L -143.8 75
	L -144.6 74.5
	L -145.5 75
	L -145.5 74
	L -146.4 73.5
	L -145.5 73
	L -145.5 72
	L -146.4 71.5
	L -147.2 72
	L -147.2 71
	L -148.1 70.5
	L -147.2 70
	L -147.2 69
	L -146.4 69.5
	L -145.5 69
	L -145.5 68
	L -146.4 67.5
	L -145.5 67
	L -145.5 66
	L -144.6 66.5
	L -143.8 66
	L -143.8 67
	L -142.9 67.5
	L -142 67
	L -142 66
	L -141.2 66.5
	L -140.3 66
	L -140.3 65
	L -141.2 64.5
	L -140.3 64
	L -140.3 63
	L -141.2 62.5
	L -142 63
	L -142 62
	L -142.9 61.5
	L -142 61
	L -142 60
	L -141.2 60.5
	L -140.3 60
	L -140.3 59
	L -141.2 58.5
	L -140.3 58
	L -140.3 57
	L -141.2 56.5
	L -142 57
	L -142 56
	L -142.9 55.5
	L -143.8 56
	L -143.8 57
	L -144.6 56.5
	L -145.5 57
	L -145.5 56
	L -146.4 55.5
	L -145.5 55
	L -145.5 54
	L -146.4 53.5
	L -147.2 54
	L -147.2 53
	L -148.1 52.5
	L -149 53
	L -149 54
	L -149.8 53.5
	L -150.7 54
	L -150.7 55
	L -149.8 55.5
	L -150.7 56
	L -150.7 57
	L -151.6 56.5
	L -152.4 57
	L -152.4 56
	L -153.3 55.5
	L -154.2 56
	L -154.2 57
	L -155 56.5
	L -155.9 57
	L -155.9 56
	L -156.8 55.5
	L -155.9 55
	L -155.9 54
	L -156.8 53.5
	L -157.6 54
	L -157.6 53
	L -158.5 52.5
	L -157.6 52
	L -157.6 51
	L -156.8 51.5
	L -155.9 51
	L -155.9 50
	L -156.8 49.5
	L -155.9 49
	L -155.9 48
	L -156.8 47.5
	L -157.6 48
	L -157.6 47
	L -158.5 46.5
	L -159.3 47
	L -159.3 48
	L -160.2 47.5
	L -161.1 48
	L -161.1 47
	L -161.9 46.5
	L -161.1 46
	L -161.1 45
	L -161.9 44.5
	L -162.8 45
	L -162.8 44
	L -163.7 43.5
	L -162.8 43
	L -162.8 42
	L -161.9 42.5
	L -161.1 42
	L -161.1 41
	L -161.9 40.5
	L -161.1 40
	L -161.1 39
	L -160.2 39.5
	L -159.3 39
	L -159.3 40
	L -158.5 40.5
	L -157.6 40
	L -157.6 39
	L -156.8 39.5
	L -155.9 39
	L -155.9 38
	L -156.8 37.5
	L -155.9 37
	L -155.9 36
	L -156.8 35.5
	L -157.6 36
	L -157.6 35
	L -158.5 34.5
	L -157.6 34
	L -157.6 33
	L -156.8 33.5
	L -155.9 33
	L -155.9 32
	L -156.8 31.5
	L -155.9 31
	L -155.9 30
	L -155 30.5
	L -154.2 30
	L -154.2 31
	L -153.3 31.5
	L -152.4 31
	L -152.4 30
	L -151.6 30.5
	L -150.7 30
	L -150.7 31
	L -149.8 31.5
	L -150.7 32
	L -150.7 33
	L -149.8 33.5
	L -149 33
	L -149 34
	L -148.1 34.5
	L -147.2 34
	L -147.2 33
	L -146.4 33.5
	L -145.5 33
	L -145.5 32
	L -146.4 31.5
	L -145.5 31
	L -145.5 30
	L -144.6 30.5
	L -143.8 30
	L -143.8 31
	L -142.9 31.5
	L -142 31
	L -142 30
	L -141.2 30.5
	L -140.3 30
	L -140.3 29
	L -141.2 28.5
	L -140.3 28
	L -140.3 27
	L -141.2 26.5
	L -142 27
	L -142 26
	L -142.9 25.5
	L -142 25
	L -142 24
	L -141.2 24.5
	L -140.3 24
	L -140.3 23
	L -141.2 22.5
	L -140.3 22
	L -140.3 21
	L -141.2 20.5
	L -142 21
	L -142 20
	L -142.9 19.5
	L -143.8 20
	L -143.8 21
	L -144.6 20.5
	L -145.5 21
	L -145.5 20
	L -146.4 19.5
	L -145.5 19
	L -145.5 18
	L -146.4 17.5
	L -147.2 18
	L -147.2 17
	L -148.1 16.5
	L -147.2 16
	L -147.2 15
	L -146.4 15.5
	L -145.5 15
	L -145.5 14
	L -146.4 13.5
	L -145.5 13
	L -145.5 12
	L -144.6 12.5
	L -143.8 12
	L -143.8 13
	L -142.9 13.5
	L -142 13
	L -142 12
	L -141.2 12.5
	L -140.3 12
	L -140.3 11
	L -141.2 10.5
	L -140.3 10
	L -140.3 9
	L -141.2 8.5
	L -142 9
	L -142 8
	L -142.9 7.5
	L -142 7
	L -142 6
	L -141.2 6.5
	L -140.3 6
	L -140.3 5
	L -141.2 4.5
	L -140.3 4
	L -140.3 3
	L -139.4 2.5
	L -139.4 1.5
	L -138.6 2
	L -137.7 1.5
	L -137.7 0.5
	L -138.6 -9.612e-06
	L -137.7 -0.5
	L -137.7 -1.5
	L -136.8 -1
	L -136 -1.5
	L -136 -0.5
	L -135.1 -8.866e-06
	L -134.2 -0.5
	L -134.2 -1.5
	L -133.4 -1
	L -132.5 -1.5
	L -132.5 -2.5
	L -133.4 -3
	L -132.5 -3.5
	L -132.5 -4.5
	L -133.4 -5
	L -134.2 -4.5
	L -134.2 -5.5
	L -135.1 -6
	L -134.2 -6.5
	L -134.2 -7.5
	L -133.4 -7
	L -132.5 -7.5
	L -132.5 -8.5
	L -133.4 -9
	L -132.5 -9.5
	L -132.5 -10.5
	L -131.6 -10
	L -130.8 -10.5
	L -130.8 -9.5
	L -129.9 -9
	L -129 -9.5
	L -129 -10.5
	L -128.2 -10
	L -127.3 -10.5
	L -127.3 -9.5
	L -126.4 -9
	L -127.3 -8.5
	L -127.3 -7.5
	L -126.4 -7
	L -125.6 -7.5
	L -125.6 -6.5
	L -124.7 -6
	L -123.8 -6.5
	L -123.8 -7.5
	L -123 -7
	L -122.1 -7.5
	L -122.1 -8.5
	L -123 -9
	L -122.1 -9.5
	L -122.1 -10.5
	L -121.2 -10
	L -120.4 -10.5
	L -120.4 -9.5
	L -119.5 -9
	L -118.6 -9.5
	L -118.6 -10.5
	L -117.8 -10
	L -116.9 -10.5
	L -116.9 -11.5
	L -117.8 -12
	L -116.9 -12.5
	L -116.9 -13.5
	L -117.8 -14
	L -118.6 -13.5
	L -118.6 -14.5
	L -119.5 -15
	L -118.6 -15.5
	L -118.6 -16.5
	L -117.8 -16
	L -116.9 -16.5
	L -116.9 -17.5
	L -117.8 -18
	L -116.9 -18.5
	L -116.9 -19.5
	L -117.8 -20
	L -118.6 -19.5
	L -118.6 -20.5
	L -119.5 -21
	L -120.4 -20.5
	L -120.4 -19.5
	L -121.2 -20
	L -122.1 -19.5
	L -122.1 -20.5
	L -123 -21
	L -122.1 -21.5
	L -122.1 -22.5
	L -123 -23
	L -123.8 -22.5
	L -123.8 -23.5
	L -124.7 -24
	L -123.8 -24.5
	L -123.8 -25.5
	L -123 -25
	L -122.1 -25.5
	L -122.1 -26.5
	L -123 -27
	L -122.1 -27.5
	L -122.1 -28.5
	L -121.2 -28
	L -120.4 -28.5
	L -120.4 -27.5
	L -119.5 -27
	L -118.6 -27.5
	L -118.6 -28.5
	L -117.8 -28
	L -116.9 -28.5
	L -116.9 -29.5
	L -117.8 -30
	L -116.9 -30.5
	L -116.9 -31.5
	L -117.8 -32
	L -118.6 -31.5
	L -118.6 -32.5
	L -119.5 -33
	L -118.6 -33.5
	L -118.6 -34.5
	L -117.8 -34
	L -116.9 -34.5
	L -116.9 -35.5
	L -117.8 -36
	L -116.9 -36.5
	L -116.9 -37.5
	L -116 -37
	L -115.2 -37.5
	L -115.2 -36.5
	L -114.3 -36
	L -113.4 -36.5
	L -113.4 -37.5
	L -112.6 -37
	L -111.7 -37.5
	L -111.7 -36.5
	L -110.9 -36
	L -111.7 -35.5
	L -111.7 -34.5
	L -110.9 -34
	L -110 -34.5
	L -110 -33.5
	L -109.1 -33
	L -108.3 -33.5
	L -108.3 -34.5
	L -107.4 -34
	L -106.5 -34.5
	L -106.5 -35.5
	L -107.4 -36
	L -106.5 -36.5
	L -106.5 -37.5
	L -105.7 -37
	L -104.8 -37.5
	L -104.8 -36.5
	L -103.9 -36
	L -103.1 -36.5
	L -103.1 -37.5
	L -102.2 -37
	L -101.3 -37.5
	L -101.3 -36.5
	L -100.5 -36
	L -101.3 -35.5
	L -101.3 -34.5
	L -100.5 -34
	L -99.59 -34.5
	L -99.59 -33.5
	L -98.73 -33
	L -99.59 -32.5
	L -99.59 -31.5
	L -100.5 -32
	L -101.3 -31.5
	L -101.3 -30.5
	L -100.5 -30
	L -101.3 -29.5
	L -101.3 -28.5
	L -100.5 -28
	L -99.59 -28.5
	L -99.59 -27.5
	L -98.73 -27
	L -97.86 -27.5
	L -97.86 -28.5
	L -96.99 -28
	L -96.13 -28.5
	L -96.13 -27.5
	L -95.26 -27
	L -96.13 -26.5
	L -96.13 -25.5
	L -95.26 -25
	L -94.4 -25.5
	L -94.4 -24.5
	L -93.53 -24
	L -92.66 -24.5
	L -92.66 -25.5
	L -91.8 -25
	L -90.93 -25.5
	L -90.93 -26.5
	L -91.8 -27
	L -90.93 -27.5
	L -90.93 -28.5
	L -90.07 -28
	L -89.2 -28.5
	L -89.2 -27.5
	L -88.33 -27
	L -87.47 -27.5
	L -87.47 -28.5
	L -86.6 -28
	L -85.74 -28.5
	L -85.74 -29.5
	L -86.6 -30
	L -85.74 -30.5
	L -85.74 -31.5
	L -86.6 -32
	L -87.47 -31.5
	L -87.47 -32.5
	L -88.33 -33
	L -87.47 -33.5
	L -87.47 -34.5
	L -86.6 -34
	L -85.74 -34.5
	L -85.74 -35.5
	L -86.6 -36
	L -85.74 -36.5
	L -85.74 -37.5
	L -84.87 -37
	L -84 -37.5
	L -84 -36.5
	L -83.14 -36
	L -82.27 -36.5
	L -82.27 -37.5
	L -81.41 -37
	L -80.54 -37.5
	L -80.54 -36.5
	L -79.67 -36
	L -80.54 -35.5
	L -80.54 -34.5
	L -79.67 -34
	L -78.81 -34.5
	L -78.81 -33.5
	L -77.94 -33
	L -77.08 -33.5
	L -77.08 -34.5
	L -76.21 -34
	L -75.34 -34.5
	L -75.34 -35.5
	L -76.21 -36
	L -75.34 -36.5
	L -75.34 -37.5
	L -74.48 -37
	L -73.61 -37.5
	L -73.61 -36.5
	L -72.75 -36
	L -71.88 -36.5
	L -71.88 -37.5
	L -71.01 -37
	L -70.15 -37.5
	L -69.28 -37
	L -68.42 -37.5
	L -68.42 -36.5
	L -67.55 -36
	L -66.68 -36.5
	L -66.68 -37.5
	L -65.82 -37
	L -64.95 -37.5
	L -64.95 -36.5
	L -64.09 -36
	L -64.95 -35.5
	L -64.95 -34.5
	L -64.09 -34
	L -63.22 -34.5
	L -63.22 -33.5
	L -62.35 -33
	L -61.49 -33.5
	L -61.49 -34.5
	L -60.62 -34
	L -59.76 -34.5
	L -59.76 -35.5
	L -60.62 -36
	L -59.76 -36.5
	L -59.76 -37.5
	L -58.89 -37
	L -58.02 -37.5
	L -58.02 -36.5
	L -57.16 -36
	L -56.29 -36.5
	L -56.29 -37.5
	L -55.43 -37
	L -54.56 -37.5
	L -54.56 -36.5
	L -53.69 -36
	L -54.56 -35.5
	L -54.56 -34.5
	L -53.69 -34
	L -52.83 -34.5
	L -52.83 -33.5
	L -51.96 -33
	L -52.83 -32.5
	L -52.83 -31.5
	L -53.69 -32
	L -54.56 -31.5
	L -54.56 -30.5
	L -53.69 -30
	L -54.56 -29.5
	L -54.56 -28.5
	L -53.69 -28
	L -52.83 -28.5
	L -52.83 -27.5
	L -51.96 -27
	L -51.1 -27.5
	L -51.1 -28.5
	L -50.23 -28
	L -49.36 -28.5
	L -49.36 -27.5
	L -48.5 -27
	L -49.36 -26.5
	L -49.36 -25.5
	L -48.5 -25
	L -47.63 -25.5
	L -47.63 -24.5
	L -46.77 -24
	L -45.9 -24.5
	L -45.9 -25.5
	L -45.03 -25
	L -44.17 -25.5
	L -44.17 -26.5
	L -45.03 -27
	L -44.17 -27.5
	L -44.17 -28.5
	L -43.3 -28
	L -42.44 -28.5
	L -42.44 -27.5
	L -41.57 -27
	L -40.7 -27.5
	L -40.7 -28.5
	L -39.84 -28
	L -38.97 -28.5
	L -38.97 -29.5
	L -39.84 -30
	L -38.97 -30.5
	L -38.97 -31.5
	L -39.84 -32
	L -40.7 -31.5
	L -40.7 -32.5
	L -41.57 -33
	L -40.7 -33.5
	L -40.7 -34.5
	L -39.84 -34
	L -38.97 -34.5
	L -38.97 -35.5
	L -39.84 -36
	L -38.97 -36.5
	L -38.97 -37.5
	L -38.11 -37
	L -37.24 -37.5
	L -37.24 -36.5
	L -36.37 -36
	L -35.51 -36.5
	L -35.51 -37.5
	L -34.64 -37
	L -33.77 -37.5
	L -33.77 -36.5
	L -32.91 -36
	L -33.77 -35.5
	L -33.77 -34.5
	L -32.91 -34
	L -32.04 -34.5
	L -32.04 -33.5
	L -31.18 -33
	L -30.31 -33.5
	L -30.31 -34.5
	L -29.44 -34
	L -28.58 -34.5
	L -28.58 -35.5
	L -29.44 -36
	L -28.58 -36.5
	L -28.58 -37.5
	L -27.71 -37
	L -26.85 -37.5
	L -26.85 -36.5
	L -25.98 -36
	L -25.11 -36.5
	L -25.11 -37.5
	L -24.25 -37
	L -23.38 -37.5
	L -23.38 -36.5
	L -22.52 -36
	L -23.38 -35.5
	L -23.38 -34.5
	L -22.52 -34
	L -21.65 -34.5
	L -21.65 -33.5
	L -20.78 -33
	L -21.65 -32.5
	L -21.65 -31.5
	L -22.52 -32
	L -23.38 -31.5
	L -23.38 -30.5
	L -22.52 -30
	L -23.38 -29.5
	L -23.38 -28.5
	L -22.52 -28
	L -21.65 -28.5
	L -21.65 -27.5
	L -20.78 -27
	L -19.92 -27.5
	L -19.92 -28.5
	L -19.05 -28
	L -18.19 -28.5
	L -18.19 -27.5
	L -17.32 -27
	L -18.19 -26.5
	L -18.19 -25.5
	L -17.32 -25
	L -16.45 -25.5
	L -16.45 -24.5
	L -15.59 -24
	L -16.45 -23.5
	L -16.45 -22.5
	L -17.32 -23
	L -18.19 -22.5
	L -18.19 -21.5
	L -17.32 -21
	L -18.19 -20.5
	L -18.19 -19.5
	L -19.05 -20
	L -19.92 -19.5
	L -19.92 -20.5
	L -20.78 -21
	L -21.65 -20.5
	L -21.65 -19.5
	L -22.52 -20
	L -23.38 -19.5
	L -23.38 -18.5
	L -22.52 -18
	L -23.38 -17.5
	L -23.38 -16.5
	L -22.52 -16
	L -21.65 -16.5
	L -21.65 -15.5
	L -20.78 -15
	L -21.65 -14.5
	L -21.65 -13.5
	L -22.52 -14
	L -23.38 -13.5
	L -23.38 -12.5
	L -22.52 -12
	L -23.38 -11.5
	L -23.38 -10.5
	L -22.52 -10
	L -21.65 -10.5
	L -21.65 -9.5
	L -20.78 -9
	L -19.92 -9.5
	L -19.92 -10.5
	L -19.05 -10
	L -18.19 -10.5
	L -18.19 -9.5
	L -17.32 -9
	L -18.19 -8.5
	L -18.19 -7.5
	L -17.32 -7
	L -16.45 -7.5
	L -16.45 -6.5
	L -15.59 -6
	L -14.72 -6.5
	L -14.72 -7.5
	L -13.86 -7
	L -12.99 -7.5
	L -12.99 -8.5
	L -13.86 -9
	L -12.99 -9.5
	L -12.99 -10.5
	L -12.12 -10
	L -11.26 -10.5
	L -11.26 -9.5
	L -10.39 -9
	L -9.526 -9.5
	L -9.526 -10.5
	L -8.66 -10
	L -7.794 -10.5
	L -7.794 -9.5
	L -6.928 -9
	L -7.794 -8.5
	L -7.794 -7.5
	L -6.928 -7
	L -6.062 -7.5
	L -6.062 -6.5
	L -5.196 -6
	L -6.062 -5.5
	L -6.062 -4.5
	L -6.928 -5
	L -7.794 -4.5
	L -7.794 -3.5
	L -6.928 -3
	L -7.794 -2.5
	L -7.794 -1.5
	L -6.928 -1
	L -6.062 -1.5
	L -6.062 -0.5
	L -5.196 1.91e-05
	L -4.33 -0.5
	L -4.33 -1.5
	L -3.464 -1
	L -2.598 -1.5
	L -2.598 -0.5
	L -1.732 1.985e-05
	L -2.598 0.5
	L -2.598 1.5
	L -1.732 2
	L -0.866 1.5
	L -0.866 2.5
	L 1.163e-05 3
"/>
</svg>
