# Blender v2.79 (sub 0) OBJ File: 'glasses.blend'
# www.blender.org
mtllib ../scenes/final_scene/wall1.mtl
o Grid.001
v 3.660096 -10.141567 -7.349773
v 3.660096 -10.141567 -4.872407
v 3.660096 -10.141567 -2.395041
v 3.660096 -10.141567 0.082326
v 3.660096 -10.141567 2.559692
v 3.660096 -10.141567 5.037059
v 3.660096 -10.141567 7.514425
v 3.660096 -10.141567 9.991791
v 3.660096 -10.141567 12.469157
v 3.660096 -10.141567 14.946524
v 3.660096 -7.664201 -7.349773
v 3.660096 -7.664201 -4.872407
v 3.660096 -7.664201 -2.395041
v 3.660096 -7.664201 0.082326
v 3.660096 -7.664201 2.559692
v 3.660096 -7.664201 5.037059
v 3.660096 -7.664201 7.514425
v 3.660096 -7.664201 9.991791
v 3.660096 -7.664201 12.469157
v 3.660096 -7.664201 14.946524
v 3.660095 -5.186835 -7.349773
v 3.660095 -5.186835 -4.872407
v 3.660095 -5.186835 -2.395041
v 3.660095 -5.186835 0.082326
v 3.660095 -5.186835 2.559692
v 3.660095 -5.186835 5.037059
v 3.660095 -5.186835 7.514425
v 3.660095 -5.186835 9.991791
v 3.660095 -5.186835 12.469157
v 3.660095 -5.186835 14.946524
v 3.660095 -2.709468 -7.349773
v 3.660095 -2.709468 -4.872407
v 3.660095 -2.709468 -2.395041
v 3.660095 -2.709468 0.082326
v 3.660095 -2.709468 2.559692
v 3.660095 -2.709468 5.037059
v 3.660095 -2.709468 7.514425
v 3.660095 -2.709468 9.991791
v 3.660095 -2.709468 12.469157
v 3.660095 -2.709468 14.946524
v 3.660095 -0.232102 -7.349773
v 3.660095 -0.232102 -4.872407
v 3.844850 -0.232102 -2.395041
v 3.600456 -0.232102 0.082326
v 3.660095 -0.232102 2.559692
v 3.827890 -0.127028 5.147273
v 3.446187 -0.232102 7.514425
v 3.660095 -0.232102 9.991791
v 3.660095 -0.232102 12.469157
v 3.660095 -0.232102 14.946524
v 3.660095 2.245265 -7.349773
v 3.660095 2.245265 -4.872407
v 3.660095 2.245265 -2.395041
v 3.660095 2.245265 0.082326
v 4.019483 2.245265 2.559692
v 3.660095 2.245265 5.037059
v 3.810448 2.245265 7.514425
v 3.402156 2.245265 9.991791
v 3.660095 2.245265 12.469157
v 3.660095 2.245265 14.946524
v 3.660095 4.722631 -7.349773
v 3.660095 4.722631 -4.872407
v 3.660095 4.722631 -2.395041
v 3.494644 4.722631 0.082326
v 3.660095 4.722631 2.559692
v 3.389883 4.722631 4.739869
v 4.070744 4.722631 7.514425
v 3.660095 4.722631 9.846192
v 3.660095 4.722631 12.469157
v 3.660095 4.722631 14.946524
v 3.660095 7.199997 -7.349773
v 3.660095 7.199997 -4.872407
v 3.660095 7.199997 -2.395041
v 3.660095 7.199997 0.082326
v 3.660095 7.199997 2.559692
v 3.660095 7.199997 5.037059
v 3.660095 7.199997 7.514425
v 3.660095 7.199997 9.991791
v 3.660095 7.199997 12.469157
v 3.660095 7.199997 14.946524
v 3.660095 9.677362 -7.349773
v 3.660095 9.677362 -4.872407
v 3.660095 9.677362 -2.395041
v 3.660095 9.677362 0.082326
v 3.660095 9.677362 2.559692
v 3.660095 9.677362 5.037059
v 3.660095 9.677362 7.514425
v 3.660095 9.677362 9.991791
v 3.660095 9.677362 12.469157
v 3.660095 9.677362 14.946524
v 3.660095 12.154730 -7.349773
v 3.660095 12.154730 -4.872407
v 3.660095 12.154730 -2.395041
v 3.660095 12.154730 0.082326
v 3.660095 12.154730 2.559692
v 3.660095 12.154730 5.037059
v 3.660095 12.154730 7.514425
v 3.660095 12.154730 9.991791
v 3.660095 12.154730 12.469157
v 3.660095 12.154730 14.946524
vt 1.000000 0.111111
vt 0.888889 0.000000
vt 1.000000 0.000000
vt 1.000000 0.222223
vt 0.888889 0.111111
vt 1.000000 0.333334
vt 0.888889 0.222222
vt 1.000000 0.444445
vt 0.888889 0.333334
vt 1.000000 0.555556
vt 0.888889 0.444445
vt 1.000000 0.666667
vt 0.888889 0.555556
vt 1.000000 0.777778
vt 0.888889 0.666667
vt 1.000000 0.888889
vt 0.888889 0.777778
vt 1.000000 1.000000
vt 0.888889 0.888889
vt 0.777778 0.000000
vt 0.777778 0.111111
vt 0.777778 0.222222
vt 0.777778 0.333333
vt 0.777778 0.444445
vt 0.777778 0.555556
vt 0.777778 0.666667
vt 0.777778 0.777778
vt 0.888889 1.000000
vt 0.777778 0.888889
vt 0.666667 0.000000
vt 0.666667 0.111111
vt 0.666667 0.222222
vt 0.666667 0.333333
vt 0.666667 0.444445
vt 0.666667 0.555556
vt 0.666667 0.666667
vt 0.666667 0.777778
vt 0.777778 1.000000
vt 0.666667 0.888889
vt 0.555556 0.000000
vt 0.555556 0.111111
vt 0.555559 0.222215
vt 0.555554 0.333336
vt 0.555556 0.444444
vt 0.550846 0.560492
vt 0.555551 0.666675
vt 0.555556 0.777778
vt 0.666667 1.000000
vt 0.555556 0.888889
vt 0.444444 0.000000
vt 0.444444 0.111111
vt 0.444444 0.222222
vt 0.444444 0.333333
vt 0.444451 0.444430
vt 0.444444 0.555556
vt 0.444447 0.666661
vt 0.444439 0.777788
vt 0.555556 1.000000
vt 0.444444 0.888889
vt 0.333333 0.000000
vt 0.333333 0.111111
vt 0.333333 0.222222
vt 0.333330 0.333340
vt 0.333333 0.444444
vt 0.333328 0.542237
vt 0.333341 0.666650
vt 0.333333 0.771247
vt 0.444444 1.000000
vt 0.333333 0.888889
vt 0.222222 0.000000
vt 0.222222 0.111111
vt 0.222222 0.222222
vt 0.222222 0.333333
vt 0.222222 0.444444
vt 0.222222 0.555555
vt 0.222222 0.666667
vt 0.222222 0.777778
vt 0.333333 1.000000
vt 0.222222 0.888889
vt 0.111111 0.000000
vt 0.111111 0.111111
vt 0.111111 0.222222
vt 0.111111 0.333333
vt 0.111111 0.444444
vt 0.111111 0.555555
vt 0.111111 0.666666
vt 0.111111 0.777778
vt 0.222222 1.000000
vt 0.111111 0.888889
vt 0.000000 0.000000
vt 0.000000 0.111111
vt 0.000000 0.222222
vt 0.000000 0.333333
vt 0.000000 0.444444
vt 0.000000 0.555555
vt 0.000000 0.666666
vt 0.000000 0.777777
vt 0.111111 1.000000
vt 0.000000 0.888889
vt 0.000000 1.000000
vn -1.0000 0.0000 0.0000
vn -0.9972 0.0744 0.0000
vn -0.9997 -0.0241 0.0000
vn -0.9979 0.0648 0.0000
vn -0.9963 -0.0860 0.0000
vn -0.9972 0.0000 0.0744
vn -0.9924 -0.0740 -0.0979
vn -0.9994 0.0241 0.0241
vn -0.9880 0.1433 0.0582
vn -0.9838 -0.0771 -0.1621
vn -0.9858 0.1449 0.0851
vn -0.9946 -0.1036 0.0000
vn -0.9875 -0.0659 0.1433
vn -0.9796 -0.1421 -0.1421
vn -0.9931 -0.1011 0.0603
vn -0.9814 0.1031 -0.1617
vn -0.9887 0.1090 0.1029
vn -0.9978 0.0000 -0.0666
vn -0.9956 0.0665 0.0665
vn -0.9924 0.0000 -0.1230
vn -0.9683 0.0771 0.2376
vn -0.9720 -0.1611 -0.1712
vn -0.9945 0.0742 0.0742
vn -0.9949 -0.0240 -0.0981
vn -0.9997 0.0000 0.0241
vn -0.9961 0.0621 0.0621
vn -0.9831 -0.0849 -0.1623
vn -0.9963 0.0000 0.0860
vn -0.9972 -0.0744 0.0000
vn -0.9997 0.0241 0.0000
vn -0.9796 0.1421 0.1421
vn -0.9867 -0.0764 -0.1431
vn -0.9876 0.1452 0.0599
vn -0.9815 -0.1022 -0.1618
vn -0.9946 0.0000 0.1036
vn -0.9956 -0.0665 -0.0665
vn -0.9875 -0.1433 0.0659
vn -0.9850 -0.1221 -0.1221
vn -0.9662 0.1015 0.2371
vn -0.9807 0.0920 -0.1727
vn -0.9978 0.0666 0.0000
vn -0.9941 0.1084 0.0000
vn -0.9865 -0.1635 0.0000
usemtl Material.002
s off
f 2/1/1 11/2/1 1/3/1
f 3/4/1 12/5/1 2/1/1
f 4/6/1 13/7/1 3/4/1
f 5/8/1 14/9/1 4/6/1
f 6/10/1 15/11/1 5/8/1
f 7/12/1 16/13/1 6/10/1
f 8/14/1 17/15/1 7/12/1
f 9/16/1 18/17/1 8/14/1
f 10/18/1 19/19/1 9/16/1
f 12/5/1 21/20/1 11/2/1
f 13/7/1 22/21/1 12/5/1
f 14/9/1 23/22/1 13/7/1
f 15/11/1 24/23/1 14/9/1
f 16/13/1 25/24/1 15/11/1
f 17/15/1 26/25/1 16/13/1
f 18/17/1 27/26/1 17/15/1
f 19/19/1 28/27/1 18/17/1
f 20/28/1 29/29/1 19/19/1
f 22/21/1 31/30/1 21/20/1
f 23/22/1 32/31/1 22/21/1
f 24/23/1 33/32/1 23/22/1
f 25/24/1 34/33/1 24/23/1
f 26/25/1 35/34/1 25/24/1
f 27/26/1 36/35/1 26/25/1
f 28/27/1 37/36/1 27/26/1
f 29/29/1 38/37/1 28/27/1
f 30/38/1 39/39/1 29/29/1
f 32/31/1 41/40/1 31/30/1
f 33/32/1 42/41/1 32/31/1
f 34/33/2 43/42/2 33/32/2
f 35/34/3 44/43/3 34/33/3
f 36/35/1 45/44/1 35/34/1
f 37/36/4 46/45/4 36/35/4
f 38/37/5 47/46/5 37/36/5
f 39/39/1 48/47/1 38/37/1
f 40/48/1 49/49/1 39/39/1
f 42/41/1 51/50/1 41/40/1
f 43/42/6 52/51/6 42/41/6
f 44/43/7 53/52/7 43/42/7
f 45/44/8 54/53/8 44/43/8
f 46/45/9 55/54/9 45/44/9
f 47/46/10 56/55/10 46/45/10
f 48/47/11 57/56/11 47/46/11
f 49/49/12 58/57/12 48/47/12
f 50/58/1 59/59/1 49/49/1
f 52/51/1 61/60/1 51/50/1
f 53/52/1 62/61/1 52/51/1
f 54/53/1 63/62/1 53/52/1
f 55/54/13 64/63/13 54/53/13
f 56/55/14 65/64/14 55/54/14
f 57/56/15 66/65/15 56/55/15
f 58/57/16 67/66/16 57/56/16
f 59/59/17 68/67/17 58/57/17
f 60/68/1 69/69/1 59/59/1
f 62/61/1 71/70/1 61/60/1
f 63/62/1 72/71/1 62/61/1
f 64/63/18 73/72/18 63/62/18
f 65/64/19 74/73/19 64/63/19
f 66/65/20 75/74/20 65/64/20
f 67/66/21 76/75/21 66/65/21
f 68/67/22 77/76/22 67/66/22
f 69/69/1 78/77/1 68/67/1
f 70/78/1 79/79/1 69/69/1
f 72/71/1 81/80/1 71/70/1
f 73/72/1 82/81/1 72/71/1
f 74/73/1 83/82/1 73/72/1
f 75/74/1 84/83/1 74/73/1
f 76/75/1 85/84/1 75/74/1
f 77/76/1 86/85/1 76/75/1
f 78/77/1 87/86/1 77/76/1
f 79/79/1 88/87/1 78/77/1
f 80/88/1 89/89/1 79/79/1
f 82/81/1 91/90/1 81/80/1
f 83/82/1 92/91/1 82/81/1
f 84/83/1 93/92/1 83/82/1
f 85/84/1 94/93/1 84/83/1
f 86/85/1 95/94/1 85/84/1
f 87/86/1 96/95/1 86/85/1
f 88/87/1 97/96/1 87/86/1
f 89/89/1 98/97/1 88/87/1
f 90/98/1 99/99/1 89/89/1
f 2/1/1 12/5/1 11/2/1
f 3/4/1 13/7/1 12/5/1
f 4/6/1 14/9/1 13/7/1
f 5/8/1 15/11/1 14/9/1
f 6/10/1 16/13/1 15/11/1
f 7/12/1 17/15/1 16/13/1
f 8/14/1 18/17/1 17/15/1
f 9/16/1 19/19/1 18/17/1
f 10/18/1 20/28/1 19/19/1
f 12/5/1 22/21/1 21/20/1
f 13/7/1 23/22/1 22/21/1
f 14/9/1 24/23/1 23/22/1
f 15/11/1 25/24/1 24/23/1
f 16/13/1 26/25/1 25/24/1
f 17/15/1 27/26/1 26/25/1
f 18/17/1 28/27/1 27/26/1
f 19/19/1 29/29/1 28/27/1
f 20/28/1 30/38/1 29/29/1
f 22/21/1 32/31/1 31/30/1
f 23/22/1 33/32/1 32/31/1
f 24/23/1 34/33/1 33/32/1
f 25/24/1 35/34/1 34/33/1
f 26/25/1 36/35/1 35/34/1
f 27/26/1 37/36/1 36/35/1
f 28/27/1 38/37/1 37/36/1
f 29/29/1 39/39/1 38/37/1
f 30/38/1 40/48/1 39/39/1
f 32/31/1 42/41/1 41/40/1
f 33/32/23 43/42/23 42/41/23
f 34/33/24 44/43/24 43/42/24
f 35/34/25 45/44/25 44/43/25
f 36/35/26 46/45/26 45/44/26
f 37/36/27 47/46/27 46/45/27
f 38/37/28 48/47/28 47/46/28
f 39/39/1 49/49/1 48/47/1
f 40/48/1 50/58/1 49/49/1
f 42/41/1 52/51/1 51/50/1
f 43/42/29 53/52/29 52/51/29
f 44/43/30 54/53/30 53/52/30
f 45/44/31 55/54/31 54/53/31
f 46/45/32 56/55/32 55/54/32
f 47/46/33 57/56/33 56/55/33
f 48/47/34 58/57/34 57/56/34
f 49/49/35 59/59/35 58/57/35
f 50/58/1 60/68/1 59/59/1
f 52/51/1 62/61/1 61/60/1
f 53/52/1 63/62/1 62/61/1
f 54/53/36 64/63/36 63/62/36
f 55/54/37 65/64/37 64/63/37
f 56/55/38 66/65/38 65/64/38
f 57/56/39 67/66/39 66/65/39
f 58/57/40 68/67/40 67/66/40
f 59/59/1 69/69/1 68/67/1
f 60/68/1 70/78/1 69/69/1
f 62/61/1 72/71/1 71/70/1
f 63/62/1 73/72/1 72/71/1
f 64/63/41 74/73/41 73/72/41
f 65/64/1 75/74/1 74/73/1
f 66/65/42 76/75/42 75/74/42
f 67/66/43 77/76/43 76/75/43
f 68/67/1 78/77/1 77/76/1
f 69/69/1 79/79/1 78/77/1
f 70/78/1 80/88/1 79/79/1
f 72/71/1 82/81/1 81/80/1
f 73/72/1 83/82/1 82/81/1
f 74/73/1 84/83/1 83/82/1
f 75/74/1 85/84/1 84/83/1
f 76/75/1 86/85/1 85/84/1
f 77/76/1 87/86/1 86/85/1
f 78/77/1 88/87/1 87/86/1
f 79/79/1 89/89/1 88/87/1
f 80/88/1 90/98/1 89/89/1
f 82/81/1 92/91/1 91/90/1
f 83/82/1 93/92/1 92/91/1
f 84/83/1 94/93/1 93/92/1
f 85/84/1 95/94/1 94/93/1
f 86/85/1 96/95/1 95/94/1
f 87/86/1 97/96/1 96/95/1
f 88/87/1 98/97/1 97/96/1
f 89/89/1 99/99/1 98/97/1
f 90/98/1 100/100/1 99/99/1
