<svg version="1.1" baseProfile="full" xmlns="http://www.w3.org/2000/svg"
width="1024" height="1024"
viewBox="-14 -4 23 23"
>
<rect x="-14" y="-4" width="100%" height="100%" fill="white" />
<path stroke="green" stroke-width="0.04" stroke-linecap="round" fill="none"
transform="scale(1 -1)"
d="	M 0 0
	L 0 1
	L 0 2
	L 1 2
	L 1 3
	L 2 3
	L 2 2
	L 2 1
	L 2 -8.742e-08
	L 2 -1
	L 1 -1
	L 1 -2
	L -4.371e-07 -2
	L -2.623e-07 -1
	L -8.742e-08 1.748e-07
	L 1 -4.371e-08
	L 2 -2.623e-07
	L 2 -1
	L 3 -1
	L 3 -2
	L 2 -2
	L 1 -2
	L 1 -3
	L 1 -4
	L -1.136e-06 -4
	L -1.399e-06 -5
	L -1 -5
	L -1 -4
	L -1 -3
	L -6.994e-07 -3
	L 1 -3
	L 1 -4
	L 2 -4
	L 2 -5
	L 1 -5
	L -1.574e-06 -5
	L -1.049e-06 -4
	L -5.245e-07 -3
	L 1 -3
	L 1 -2
	L 2 -2
	L 2 -3
	L 2 -4
	L 2 -5
	L 2 -6
	L 1 -6
	L 1 -7
	L -3.06e-06 -7
	L -2.36e-06 -6
	L -1.661e-06 -5
	L -9.617e-07 -4
	L -2.623e-07 -3
	L 1 -3
	L 1 -2
	L 2 -2
	L 2 -3
	L 2 -4
	L 2 -5
	L 2 -6
	L 1 -6
	L 1 -7
	L -3.497e-06 -7
	L -2.623e-06 -6
	L -1.748e-06 -5
	L 1 -5
	L 2 -5
	L 2 -6
	L 3 -6
	L 3 -7
	L 2 -7
	L 1 -7
	L 1 -8
	L 1 -9
	L -5.595e-06 -9
	L -6.557e-06 -10
	L -1 -10
	L -1 -9
	L -1 -8
	L -4.459e-06 -8
	L 1 -8
	L 1 -9
	L 2 -9
	L 2 -10
	L 1 -10
	L -6.732e-06 -10
	L -5.508e-06 -9
	L -4.284e-06 -8
	L 1 -8
	L 1 -7
	L 2 -7
	L 2 -8
	L 2 -9
	L 2 -10
	L 2 -11
	L 1 -11
	L 1 -12
	L -9.617e-06 -12
	L -8.218e-06 -11
	L -6.819e-06 -10
	L 1 -10
	L 2 -10
	L 2 -11
	L 3 -11
	L 3 -12
	L 2 -12
	L 1 -12
	L -9.791e-06 -12
	L -1 -12
	L -1 -11
	L -2 -11
	L -2 -10
	L -1 -10
	L -6.644e-06 -10
	L -8.305e-06 -11
	L -9.966e-06 -12
	L -1 -12
	L -1 -13
	L -2 -13
	L -2 -12
	L -2 -11
	L -3 -11
	L -4 -11
	L -4 -10
	L -5 -10
	L -5 -9
	L -4 -9
	L -3 -9
	L -3 -10
	L -3 -11
	L -4 -11
	L -4 -12
	L -5 -12
	L -5 -11
	L -5 -10
	L -4 -10
	L -3 -10
	L -3 -11
	L -2 -11
	L -2 -12
	L -3 -12
	L -4 -12
	L -5 -12
	L -6 -12
	L -6 -11
	L -7 -11
	L -7 -10
	L -6 -10
	L -5 -10
	L -5 -9
	L -5 -8
	L -4 -8
	L -4 -7
	L -3 -7
	L -3 -8
	L -3 -9
	L -3 -10
	L -3 -11
	L -4 -11
	L -4 -12
	L -5 -12
	L -5 -11
	L -5 -10
	L -4 -10
	L -3 -10
	L -3 -11
	L -2 -11
	L -2 -12
	L -3 -12
	L -4 -12
	L -4 -13
	L -4 -14
	L -5 -14
	L -5 -15
	L -6 -15
	L -6 -14
	L -6 -13
	L -5 -13
	L -4 -13
	L -4 -14
	L -3 -14
	L -3 -15
	L -4 -15
	L -5 -15
	L -5 -14
	L -5 -13
	L -4 -13
	L -4 -12
	L -3 -12
	L -3 -13
	L -3 -14
	L -3 -15
	L -3 -16
	L -4 -16
	L -4 -17
	L -5 -17
	L -5 -16
	L -5 -15
	L -4 -15
	L -3 -15
	L -3 -16
	L -2 -16
	L -2 -17
	L -3 -17
	L -4 -17
	L -5 -17
	L -6 -17
	L -6 -16
	L -7 -16
	L -7 -15
	L -6 -15
	L -5 -15
	L -5 -16
	L -5 -17
	L -6 -17
	L -6 -18
	L -7 -18
	L -7 -17
	L -7 -16
	L -8 -16
	L -9 -16
	L -9 -15
	L -10 -15
	L -10 -14
	L -9 -14
	L -8 -14
	L -8 -15
	L -8 -16
	L -9 -16
	L -9 -17
	L -10 -17
	L -10 -16
	L -10 -15
	L -9 -15
	L -8 -15
	L -8 -16
	L -7 -16
	L -7 -17
	L -8 -17
	L -9 -17
	L -10 -17
	L -11 -17
	L -11 -16
	L -12 -16
	L -12 -15
	L -11 -15
	L -10 -15
	L -10 -16
	L -10 -17
	L -11 -17
	L -11 -18
	L -12 -18
	L -12 -17
	L -12 -16
	L -12 -15
	L -12 -14
	L -11 -14
	L -11 -13
	L -10 -13
	L -10 -14
	L -10 -15
	L -11 -15
	L -12 -15
	L -12 -14
	L -13 -14
	L -13 -13
	L -12 -13
	L -11 -13
	L -11 -12
	L -11 -11
	L -10 -11
	L -10 -10
	L -9 -10
	L -9 -11
	L -9 -12
	L -10 -12
	L -11 -12
	L -11 -11
	L -12 -11
	L -12 -10
	L -11 -10
	L -10 -10
	L -10 -11
	L -10 -12
	L -11 -12
	L -11 -13
	L -12 -13
	L -12 -12
	L -12 -11
	L -12 -10
	L -12 -9
	L -11 -9
	L -11 -8
	L -10 -8
	L -10 -9
	L -10 -10
	L -10 -11
	L -10 -12
	L -11 -12
	L -11 -13
	L -12 -13
	L -12 -12
	L -12 -11
	L -12 -10
	L -12 -9
	L -11 -9
	L -11 -8
	L -10 -8
	L -10 -9
	L -10 -10
	L -11 -10
	L -12 -10
	L -12 -9
	L -13 -9
	L -13 -8
	L -12 -8
	L -11 -8
	L -11 -7
	L -11 -6
	L -10 -6
	L -10 -5
	L -9 -5
	L -9 -6
	L -9 -7
	L -10 -7
	L -11 -7
	L -11 -6
	L -12 -6
	L -12 -5
	L -11 -5
	L -10 -5
	L -10 -6
	L -10 -7
	L -11 -7
	L -11 -8
	L -12 -8
	L -12 -7
	L -12 -6
	L -12 -5
	L -12 -4
	L -11 -4
	L -11 -3
	L -10 -3
	L -10 -4
	L -10 -5
	L -11 -5
	L -12 -5
	L -12 -4
	L -13 -4
	L -13 -3
	L -12 -3
	L -11 -3
	L -10 -3
	L -9 -3
	L -9 -4
	L -8 -4
	L -8 -5
	L -9 -5
	L -10 -5
	L -10 -4
	L -10 -3
	L -9 -3
	L -9 -2
	L -8 -2
	L -8 -3
	L -8 -4
	L -7 -4
	L -6 -4
	L -6 -5
	L -5 -5
	L -5 -6
	L -6 -6
	L -7 -6
	L -7 -5
	L -7 -4
	L -6 -4
	L -6 -3
	L -5 -3
	L -5 -4
	L -5 -5
	L -6 -5
	L -7 -5
	L -7 -4
	L -8 -4
	L -8 -3
	L -7 -3
	L -6 -3
	L -5 -3
	L -4 -3
	L -4 -4
	L -3 -4
	L -3 -5
	L -4 -5
	L -5 -5
	L -6 -5
	L -7 -5
	L -7 -4
	L -8 -4
	L -8 -3
	L -7 -3
	L -6 -3
	L -5 -3
	L -4 -3
	L -4 -4
	L -3 -4
	L -3 -5
	L -4 -5
	L -5 -5
	L -5 -4
	L -5 -3
	L -4 -3
	L -4 -2
	L -3 -2
	L -3 -3
	L -3 -4
	L -2 -4
	L -1 -4
	L -1 -5
	L 2.395e-05 -5
	L 1.792e-05 -6
	L -1 -6
	L -2 -6
	L -2 -5
	L -2 -4
	L -1 -4
	L -1 -3
	L 3.628e-05 -3
	L 3.007e-05 -4
	L 2.387e-05 -5
	L -1 -5
	L -2 -5
	L -2 -4
	L -3 -4
	L -3 -3
	L -2 -3
	L -1 -3
	L 3.646e-05 -3
	L 1 -3
	L 1 -4
	L 2 -4
	L 2 -5
	L 1 -5
	L 2.369e-05 -5
	L 3.016e-05 -4
	L 3.663e-05 -3
	L 1 -3
	L 1 -2
	L 2 -2
	L 2 -3
	L 2 -4
	L 2 -5
	L 2 -6
	L 1 -6
	L 1 -7
	L 1.032e-05 -7
	L 1.696e-05 -6
	L 2.36e-05 -5
	L 1 -5
	L 2 -5
	L 2 -6
	L 3 -6
	L 3 -7
	L 2 -7
	L 1 -7
	L 1 -8
	L 1 -9
	L -3.322e-06 -9
	L -1.005e-05 -10
	L -1 -10
	L -1 -9
	L -1 -8
	L 3.584e-06 -8
	L 1 -8
	L 1 -9
	L 2 -9
	L 2 -10
	L 1 -10
	L -1.023e-05 -10
	L -3.235e-06 -9
	L 3.759e-06 -8
	L 1 -8
	L 1 -7
	L 2 -7
	L 2 -8
	L 2 -9
	L 2 -10
	L 2 -11
	L 1 -11
	L 1 -12
	L -2.465e-05 -12
	L -1.748e-05 -11
	L -1.032e-05 -10
	L -1 -10
	L -2 -10
	L -2 -9
	L -3 -9
	L -3 -8
	L -2 -8
	L -1 -8
	L 4.021e-06 -8
	L 1 -8
	L 1 -9
	L 2 -9
	L 2 -10
	L 1 -10
	L -1.049e-05 -10
	L -3.147e-06 -9
	L 4.196e-06 -8
	L 1 -8
	L 1 -7
	L 2 -7
	L 2 -8
	L 2 -9
	L 3 -9
	L 4 -9
	L 4 -10
	L 5 -10
	L 5 -11
	L 4 -11
	L 3 -11
	L 3 -10
	L 3 -9
	L 4 -9
	L 4 -8
	L 5 -8
	L 5 -9
	L 5 -10
	L 4 -10
	L 3 -10
	L 3 -9
	L 2 -9
	L 2 -8
	L 3 -8
	L 4 -8
	L 5 -8
	L 6 -8
	L 6 -9
	L 7 -9
	L 7 -10
	L 6 -10
	L 5 -10
	L 5 -9
	L 5 -8
	L 6 -8
	L 6 -7
	L 7 -7
	L 7 -8
	L 7 -9
	L 7 -10
	L 7 -11
	L 6 -11
	L 6 -12
	L 5 -12
	L 5 -11
	L 5 -10
	L 6 -10
	L 7 -10
	L 7 -11
	L 8 -11
	L 8 -12
	L 7 -12
	L 6 -12
	L 6 -13
	L 6 -14
	L 5 -14
	L 5 -15
	L 4 -15
	L 4 -14
	L 4 -13
	L 5 -13
	L 6 -13
	L 6 -14
	L 7 -14
	L 7 -15
	L 6 -15
	L 5 -15
	L 5 -14
	L 5 -13
	L 6 -13
	L 6 -12
	L 7 -12
	L 7 -13
	L 7 -14
	L 7 -15
	L 7 -16
	L 6 -16
	L 6 -17
	L 5 -17
	L 5 -16
	L 5 -15
	L 6 -15
	L 7 -15
	L 7 -16
	L 8 -16
	L 8 -17
	L 7 -17
	L 6 -17
	L 5 -17
	L 4 -17
	L 4 -16
	L 3 -16
	L 3 -15
	L 4 -15
	L 5 -15
	L 5 -16
	L 5 -17
	L 4 -17
	L 4 -18
	L 3 -18
	L 3 -17
	L 3 -16
	L 2 -16
	L 0.9999 -16
	L 0.9999 -15
	L -5.158e-05 -15
	L -4.266e-05 -14
	L 1 -14
	L 2 -14
	L 2 -15
	L 2 -16
	L 0.9999 -16
	L 0.9999 -17
	L -6.968e-05 -17
	L -6.058e-05 -16
	L -5.149e-05 -15
	L 0.9999 -15
	L 2 -15
	L 2 -16
	L 3 -16
	L 3 -17
	L 2 -17
	L 0.9999 -17
	L -6.985e-05 -17
	L -1 -17
	L -1 -16
	L -2 -16
	L -2 -15
	L -1 -15
	L -5.132e-05 -15
	L 0.9999 -15
	L 2 -15
	L 2 -16
	L 3 -16
	L 3 -17
	L 2 -17
	L 0.9999 -17
	L -7.003e-05 -17
	L -1 -17
	L -1 -16
	L -2 -16
	L -2 -15
	L -1 -15
	L -5.114e-05 -15
	L -6.067e-05 -16
	L -7.02e-05 -17
	L -1 -17
	L -1 -18
	L -2 -18
	L -2 -17
	L -2 -16
	L -3 -16
	L -4 -16
	L -4 -15
	L -5 -15
	L -5 -14
	L -4 -14
	L -3 -14
	L -3 -15
	L -3 -16
	L -4 -16
	L -4 -17
	L -5 -17
	L -5 -16
	L -5 -15
	L -4 -15
	L -3 -15
	L -3 -16
	L -2 -16
	L -2 -17
	L -3 -17
	L -4 -17
	L -5 -17
	L -6 -17
	L -6 -16
	L -7 -16
	L -7 -15
	L -6 -15
	L -5 -15
	L -5 -16
	L -5 -17
	L -6 -17
	L -6 -18
	L -7 -18
	L -7 -17
	L -7 -16
	L -7 -15
	L -7 -14
	L -6 -14
	L -6 -13
	L -5 -13
	L -5 -14
	L -5 -15
	L -6 -15
	L -7 -15
	L -7 -14
	L -8 -14
	L -8 -13
	L -7 -13
	L -6 -13
	L -6 -12
	L -6 -11
	L -5 -11
	L -5 -10
	L -4 -10
	L -4 -11
	L -4 -12
	L -5 -12
	L -6 -12
	L -6 -11
	L -7 -11
	L -7 -10
	L -6 -10
	L -5 -10
	L -5 -11
	L -5 -12
	L -6 -12
	L -6 -13
	L -7 -13
	L -7 -12
	L -7 -11
	L -7 -10
	L -7 -9
	L -6 -9
	L -6 -8
	L -5 -8
	L -5 -9
	L -5 -10
	L -5 -11
	L -5 -12
	L -6 -12
	L -6 -13
	L -7 -13
	L -7 -12
	L -7 -11
	L -7 -10
	L -7 -9
	L -6 -9
	L -6 -8
	L -5 -8
	L -5 -9
	L -5 -10
	L -6 -10
	L -7 -10
	L -7 -9
	L -8 -9
	L -8 -8
	L -7 -8
	L -6 -8
	L -6 -7
	L -6 -6
	L -5 -6
	L -5 -5
	L -4 -5
	L -4 -6
	L -4 -7
	L -5 -7
	L -6 -7
	L -6 -6
	L -7 -6
	L -7 -5
	L -6 -5
	L -5 -5
	L -5 -6
	L -5 -7
	L -6 -7
	L -6 -8
	L -7 -8
	L -7 -7
	L -7 -6
	L -7 -5
	L -7 -4
	L -6 -4
	L -6 -3
	L -5 -3
	L -5 -4
	L -5 -5
	L -6 -5
	L -7 -5
	L -7 -4
	L -8 -4
	L -8 -3
	L -7 -3
	L -6 -3
	L -5 -3
	L -4 -3
	L -4 -4
	L -3 -4
	L -3 -5
	L -4 -5
	L -5 -5
	L -5 -4
	L -5 -3
	L -4 -3
	L -4 -2
	L -3 -2
	L -3 -3
	L -3 -4
	L -2 -4
	L -0.9999 -4
	L -0.9999 -5
	L 5.63e-05 -5
	L 4.45e-05 -6
	L -1 -6
	L -2 -6
	L -2 -5
	L -2 -4
	L -0.9999 -4
	L -0.9999 -3
	L 8.017e-05 -3
	L 6.819e-05 -4
	L 5.621e-05 -5
	L -0.9999 -5
	L -2 -5
	L -2 -4
	L -3 -4
	L -3 -3
	L -2 -3
	L -0.9999 -3
	L 8.034e-05 -3
	L 1 -3
	L 1 -4
	L 2 -4
	L 2 -5
	L 1 -5
	L 5.604e-05 -5
	L 4.389e-05 -6
	L 3.173e-05 -7
	L -1 -7
	L -1 -8
	L -2 -8
	L -2 -7
	L -2 -6
	L -2 -5
	L -2 -4
	L -0.9999 -4
	L -0.9999 -3
	L 8.078e-05 -3
	L 6.845e-05 -4
	L 5.613e-05 -5
	L -0.9999 -5
	L -2 -5
	L -2 -4
	L -3 -4
	L -3 -3
	L -2 -3
	L -0.9999 -3
	L -0.9999 -2
	L -0.9999 -1
	L 0.0001058 -1
	L 0.0001182 -3.558e-05
	L 1 -4.804e-05
	L 1 -1
	L 1 -2
	L 9.319e-05 -2
	L -0.9999 -2
	L -0.9999 -1
	L -2 -1
	L -2 -1.04e-05
	L -0.9999 -2.304e-05
	L 0.0001184 -3.567e-05
	L 0.0001057 -1
	L 9.302e-05 -2
	L -0.9999 -2
	L -0.9999 -3
	L -2 -3
	L -2 -2
	L -2 -1
	L -2 -1.023e-05
	L -2 1
	L -0.9999 1
	L -0.9999 2
	L 0.0001442 2
	L 0.0001313 1
	L 0.0001185 -3.584e-05
	L -0.9999 -2.295e-05
	L -2 -1.005e-05
	L -2 1
	L -3 1
	L -3 2
	L -2 2
	L -0.9999 2
	L 0.0001443 2
	L 1 2
	L 1 1
	L 2 0.9999
	L 2 -6.207e-05
	L 1 -4.9e-05
	L 0.0001183 -3.593e-05
	L 0.0001314 1
	L 0.0001445 2
	L 1 2
	L 1 3
	L 2 3
	L 2 2
	L 2 0.9999
	L 3 0.9999
	L 4 0.9999
	L 4 -8.856e-05
	L 5 -0.0001017
	L 5 -1
	L 4 -1
	L 3 -1
	L 3 -7.523e-05
	L 3 0.9999
	L 4 0.9999
	L 4 2
	L 5 2
	L 5 0.9999
	L 5 -0.0001019
	L 4 -8.847e-05
	L 3 -7.505e-05
	L 3 0.9999
	L 2 0.9999
	L 2 2
	L 3 2
	L 4 2
	L 5 2
	L 6 2
	L 6 0.9999
	L 7 0.9999
	L 7 -0.0001292
	L 6 -0.0001156
	L 5 -0.000102
	L 5 0.9999
	L 5 2
	L 6 2
	L 6 3
	L 7 3
	L 7 2
	L 7 0.9999
	L 7 -0.0001293
	L 7 -1
	L 6 -1
	L 6 -2
	L 5 -2
	L 5 -1
	L 5 -0.0001018
	L 6 -0.0001157
	L 7 -0.0001295
	L 7 -1
	L 8 -1
	L 8 -2
	L 7 -2
	L 6 -2
	L 6 -3
	L 6 -4
	L 5 -4
	L 5 -5
	L 4 -5
	L 4 -4
	L 4 -3
	L 5 -3
	L 6 -3
	L 6 -4
	L 7 -4
	L 7 -5
	L 6 -5
	L 5 -5
	L 5 -4
	L 5 -3
	L 6 -3
	L 6 -2
	L 7 -2
	L 7 -3
	L 7 -4
	L 7 -5
	L 7 -6
	L 6 -6
	L 6 -7
	L 5 -7
	L 5 -6
	L 5 -5
	L 5 -4
	L 5 -3
	L 6 -3
	L 6 -2
	L 7 -2
	L 7 -3
	L 7 -4
	L 7 -5
	L 7 -6
	L 6 -6
	L 6 -7
	L 5 -7
	L 5 -6
	L 5 -5
	L 6 -5
	L 7 -5
	L 7 -6
	L 8 -6
	L 8 -7
	L 7 -7
	L 6 -7
	L 6 -8
	L 6 -9
	L 5 -9
	L 5 -10
	L 4 -10
	L 4 -9
	L 4 -8
	L 5 -8
	L 6 -8
	L 6 -9
	L 7 -9
	L 7 -10
	L 6 -10
	L 5 -10
	L 5 -9
	L 5 -8
	L 6 -8
	L 6 -7
	L 7 -7
	L 7 -8
	L 7 -9
	L 7 -10
	L 7 -11
	L 6 -11
	L 6 -12
	L 5 -12
	L 5 -11
	L 5 -10
	L 6 -10
	L 7 -10
	L 7 -11
	L 8 -11
	L 8 -12
	L 7 -12
	L 6 -12
	L 5 -12
	L 4 -12
	L 4 -11
	L 3 -11
	L 3 -10
	L 4 -10
	L 5 -10
	L 5 -11
	L 5 -12
	L 4 -12
	L 4 -13
	L 3 -13
	L 3 -12
	L 3 -11
	L 2 -11
	L 1 -11
	L 1 -10
	L -2.5e-05 -10
	L -9.617e-06 -9
	L 1 -9
	L 2 -9
	L 2 -10
	L 2 -11
	L 1 -11
	L 0.9999 -12
	L -5.604e-05 -12
	L -4.048e-05 -11
	L -2.492e-05 -10
	L 1 -10
	L 2 -10
	L 2 -11
	L 3 -11
	L 3 -12
	L 2 -12
	L 0.9999 -12
	L -5.621e-05 -12
	L -1 -12
	L -1 -11
	L -2 -11
	L -2 -10
	L -1 -10
	L -2.474e-05 -10
	L 1 -10
	L 2 -10
	L 2 -11
	L 3 -11
	L 3 -12
	L 2 -12
	L 0.9999 -12
	L -5.639e-05 -12
	L -1 -12
	L -1 -11
	L -2 -11
	L -2 -10
	L -1 -10
	L -2.457e-05 -10
	L -4.056e-05 -11
	L -5.656e-05 -12
	L -1 -12
	L -1 -13
	L -2 -13
	L -2 -12
	L -2 -11
	L -3 -11
	L -4 -11
	L -4 -10
	L -5 -10
	L -5 -9
	L -4 -9
	L -3 -9
	L -3 -10
	L -3 -11
	L -4 -11
	L -4 -12
	L -5 -12
	L -5 -11
	L -5 -10
	L -4 -10
	L -3 -10
	L -3 -11
	L -2 -11
	L -2 -12
	L -3 -12
	L -4 -12
	L -5 -12
	L -6 -12
	L -6 -11
	L -7 -11
	L -7 -10
	L -6 -10
	L -5 -10
	L -5 -11
	L -5 -12
	L -6 -12
	L -6 -13
	L -7 -13
	L -7 -12
	L -7 -11
	L -7 -10
	L -7 -9
	L -6 -9
	L -6 -8
	L -5 -8
	L -5 -9
	L -5 -10
	L -6 -10
	L -7 -10
	L -7 -9
	L -8 -9
	L -8 -8
	L -7 -8
	L -6 -8
	L -6 -7
	L -6 -6
	L -5 -6
	L -5 -5
	L -4 -5
	L -4 -6
	L -4 -7
	L -5 -7
	L -6 -7
	L -6 -6
	L -7 -6
	L -7 -5
	L -6 -5
	L -5 -5
	L -5 -6
	L -5 -7
	L -6 -7
	L -6 -8
	L -7 -8
	L -7 -7
	L -7 -6
	L -7 -5
	L -7 -4
	L -6 -4
	L -6 -3
	L -5 -3
	L -5 -4
	L -5 -5
	L -4 -5
	L -3 -5
	L -3 -6
	L -2 -6
	L -2 -7
	L -3 -7
	L -4 -7
	L -5 -7
	L -6 -7
	L -6 -6
	L -7 -6
	L -7 -5
	L -6 -5
	L -5 -5
	L -5 -6
	L -5 -7
	L -6 -7
	L -6 -8
	L -7 -8
	L -7 -7
	L -7 -6
	L -8 -6
	L -9 -6
	L -9 -5
	L -10 -5
	L -10 -4
	L -9 -4
	L -8 -4
	L -8 -5
	L -8 -6
	L -9 -6
	L -9 -7
	L -10 -7
	L -10 -6
	L -10 -5
	L -9 -5
	L -8 -5
	L -8 -6
	L -7 -6
	L -7 -7
	L -8 -7
	L -9 -7
	L -10 -7
	L -11 -7
	L -11 -6
	L -12 -6
	L -12 -5
	L -11 -5
	L -10 -5
	L -10 -6
	L -10 -7
	L -11 -7
	L -11 -8
	L -12 -8
	L -12 -7
	L -12 -6
	L -12 -5
	L -12 -4
	L -11 -4
	L -11 -3
	L -10 -3
	L -10 -4
	L -10 -5
	L -11 -5
	L -12 -5
	L -12 -4
	L -13 -4
	L -13 -3
	L -12 -3
	L -11 -3
	L -11 -2
	L -11 -0.9998
	L -10 -0.9999
	L -10 0.0001435
	L -9 0.0001252
	L -9 -0.9999
	L -9 -2
	L -10 -2
	L -11 -2
	L -11 -0.9998
	L -12 -0.9998
	L -12 0.0001802
	L -11 0.0001618
	L -10 0.0001434
	L -10 -0.9999
	L -10 -2
	L -11 -2
	L -11 -3
	L -12 -3
	L -12 -2
	L -12 -0.9998
	L -12 0.0001804
	L -12 1
	L -11 1
	L -11 2
	L -10 2
	L -10 1
	L -10 0.0001432
	L -11 0.0001619
	L -12 0.0001805
	L -12 1
	L -13 1
	L -13 2
	L -12 2
	L -11 2
	L -10 2
	L -9 2
	L -9 1
	L -8 1
	L -8 0.0001054
	L -9 0.0001243
	L -10 0.0001431
	L -10 1
	L -10 2
	L -9 2
	L -9 3
	L -8 3
	L -8 2
	L -8 1
	L -7 1
	L -6 1
	L -6 6.74e-05
	L -5 4.847e-05
	L -5 -1
	L -6 -0.9999
	L -7 -0.9999
	L -7 8.65e-05
	L -7 1
	L -6 1
	L -6 2
	L -5 2
	L -5 1
	L -5 4.83e-05
	L -6 6.749e-05
	L -7 8.668e-05
	L -7 1
	L -8 1
	L -8 2
	L -7 2
	L -6 2
	L -5 2
	L -4 2
	L -4 1
	L -3 1
	L -3 9.484e-06
	L -4 2.885e-05
	L -5 4.821e-05
	L -6 6.758e-05
	L -7 8.694e-05
	L -7 1
	L -8 1
	L -8 2
	L -7 2
	L -6 2
	L -5 2
	L -4 2
	L -4 1
	L -3 1
	L -3 9.047e-06
	L -4 2.859e-05
	L -5 4.812e-05
	L -5 1
	L -5 2
	L -4 2
	L -4 3
	L -3 3
	L -3 2
	L -3 1
	L -2 1
	L -0.9998 1
	L -0.9998 -3.038e-05
	L 0.0001511 -5.001e-05
	L 0.0001314 -1
	L -0.9999 -1
	L -2 -1
	L -2 -1.058e-05
	L -2 1
	L -0.9998 1
	L -0.9998 2
	L 0.0001907 2
	L 0.0001708 0.9999
	L 0.000151 -5.018e-05
	L -0.9998 -3.029e-05
	L -2 -1.04e-05
	L -2 1
	L -3 1
	L -3 2
	L -2 2
	L -0.9998 2
	L 0.0001908 2
	L 1 2
	L 1 0.9999
	L 2 0.9999
	L 2 -9.04e-05
	L 1 -7.033e-05
	L 0.0001508 -5.027e-05
"/>
</svg>
