<svg version="1.1" baseProfile="full" xmlns="http://www.w3.org/2000/svg"
width="1024" height="1024"
viewBox="-1.004 -82 83.01 83"
>
<rect x="-1.004" y="-82" width="100%" height="100%" fill="white" />
<path stroke="green" stroke-width="0.04" stroke-linecap="round" fill="none"
transform="scale(1 -1)"
d="	M 0 0
	L 0 1
	L 0 2
	L 1 2
	L 7.661e-15 2
	L 1.748e-07 3
	L 3.497e-07 4
	L 5.245e-07 5
	L 1 5
	L 5.245e-07 5
	L 8.742e-07 6
	L 1 6
	L 2 6
	L 2 5
	L 2 6
	L 3 6
	L 2 6
	L 1 6
	L 1 7
	L 1 6
	L 8.742e-07 6
	L 1.748e-06 7
	L 2.623e-06 8
	L 1 8
	L 2.623e-06 8
	L 3.672e-06 9
	L 4.721e-06 10
	L 5.77e-06 11
	L 1 11
	L 5.77e-06 11
	L 6.994e-06 12
	L 8.218e-06 13
	L 9.442e-06 14
	L 1 14
	L 9.442e-06 14
	L 1.084e-05 15
	L 1 15
	L 2 15
	L 2 14
	L 2 15
	L 3 15
	L 2 15
	L 1 15
	L 1 16
	L 1 15
	L 1.084e-05 15
	L 1.276e-05 16
	L 1.469e-05 17
	L 1 17
	L 1.469e-05 17
	L 1.679e-05 18
	L 1 18
	L 2 18
	L 2 17
	L 2 18
	L 3 18
	L 4 18
	L 5 18
	L 5 17
	L 5 18
	L 6 18
	L 6 17
	L 6 16
	L 5 16
	L 6 16
	L 6 15
	L 6 16
	L 6 17
	L 7 17
	L 6 17
	L 6 18
	L 7 18
	L 8 18
	L 8 17
	L 8 18
	L 9 18
	L 8 18
	L 7 18
	L 7 19
	L 7 18
	L 6 18
	L 5 18
	L 4 18
	L 4 19
	L 4 18
	L 3 18
	L 3 19
	L 3 20
	L 4 20
	L 3 20
	L 3 21
	L 3 20
	L 3 19
	L 2 19
	L 3 19
	L 3 18
	L 2 18
	L 1 18
	L 1 19
	L 1 18
	L 1.679e-05 18
	L 2.116e-05 19
	L 2.553e-05 20
	L 1 20
	L 2.553e-05 20
	L 3.007e-05 21
	L 3.462e-05 22
	L 3.917e-05 23
	L 1 23
	L 3.917e-05 23
	L 4.389e-05 24
	L 1 24
	L 2 24
	L 2 23
	L 2 24
	L 3 24
	L 2 24
	L 1 24
	L 1 25
	L 1 24
	L 4.389e-05 24
	L 4.913e-05 25
	L 5.438e-05 26
	L 1 26
	L 5.438e-05 26
	L 5.98e-05 27
	L 6.522e-05 28
	L 7.064e-05 29
	L 1 29
	L 7.064e-05 29
	L 7.623e-05 30
	L 8.183e-05 31
	L 8.742e-05 32
	L 1 32
	L 8.742e-05 32
	L 9.319e-05 33
	L 1 33
	L 2 33
	L 2 32
	L 2 33
	L 3 33
	L 2 33
	L 1 33
	L 1 34
	L 1 33
	L 9.319e-05 33
	L 9.949e-05 34
	L 0.0001058 35
	L 1 35
	L 0.0001058 35
	L 0.0001123 36
	L 0.0001187 37
	L 0.0001252 38
	L 1 38
	L 0.0001252 38
	L 0.0001318 39
	L 0.0001385 40
	L 0.0001451 41
	L 1 41
	L 0.0001451 41
	L 0.0001519 42
	L 1 42
	L 2 42
	L 2 41
	L 2 42
	L 3 42
	L 2 42
	L 1 42
	L 1 43
	L 1 42
	L 0.0001519 42
	L 0.0001593 43
	L 0.0001666 44
	L 1 44
	L 0.0001666 44
	L 0.0001741 45
	L 1 45
	L 2 45
	L 2 44
	L 2 45
	L 3 45
	L 4 45
	L 5 45
	L 5 44
	L 5 45
	L 6 45
	L 6 44
	L 6 43
	L 5 43
	L 6 43
	L 6 42
	L 6 43
	L 6 44
	L 7 44
	L 6 44
	L 6 45
	L 7 45
	L 8 45
	L 8 44
	L 8 45
	L 9 45
	L 8 45
	L 7 45
	L 7 46
	L 7 45
	L 6 45
	L 5 45
	L 4 45
	L 4 46
	L 4 45
	L 3 45
	L 3 46
	L 3 47
	L 4 47
	L 3 47
	L 3 48
	L 3 47
	L 3 46
	L 2 46
	L 3 46
	L 3 45
	L 2 45
	L 1 45
	L 1 46
	L 1 45
	L 0.0001741 45
	L 0.0001839 46
	L 0.0001937 47
	L 1 47
	L 0.0001937 47
	L 0.0002037 48
	L 0.0002137 49
	L 0.0002236 50
	L 1 50
	L 0.0002236 50
	L 0.0002338 51
	L 1 51
	L 2 51
	L 2 50
	L 2 51
	L 3 51
	L 2 51
	L 1 51
	L 1 52
	L 1 51
	L 0.0002338 51
	L 0.0002444 52
	L 0.0002551 53
	L 1 53
	L 0.0002551 53
	L 0.0002659 54
	L 1 54
	L 2 54
	L 2 53
	L 2 54
	L 3 54
	L 4 54
	L 5 54
	L 5 53
	L 5 54
	L 6 54
	L 6 53
	L 6 52
	L 5 52
	L 6 52
	L 6 51
	L 6 52
	L 6 53
	L 7 53
	L 6 53
	L 6 54
	L 7 54
	L 8 54
	L 8 53
	L 8 54
	L 9 54
	L 10 54
	L 11 54
	L 11 53
	L 11 54
	L 12 54
	L 13 54
	L 14 54
	L 14 53
	L 14 54
	L 15 54
	L 15 53
	L 15 52
	L 14 52
	L 15 52
	L 15 51
	L 15 52
	L 15 53
	L 16 53
	L 15 53
	L 15 54
	L 16 54
	L 17 54
	L 17 53
	L 17 54
	L 18 54
	L 18 53
	L 18 52
	L 17 52
	L 18 52
	L 18 51
	L 18 50
	L 18 49
	L 17 49
	L 18 49
	L 18 48
	L 17 48
	L 16 48
	L 16 49
	L 16 48
	L 15 48
	L 16 48
	L 17 48
	L 17 47
	L 17 48
	L 18 48
	L 18 47
	L 18 46
	L 17 46
	L 18 46
	L 18 45
	L 18 46
	L 18 47
	L 19 47
	L 18 47
	L 18 48
	L 18 49
	L 18 50
	L 19 50
	L 18 50
	L 18 51
	L 19 51
	L 20 51
	L 20 50
	L 20 51
	L 21 51
	L 20 51
	L 19 51
	L 19 52
	L 19 51
	L 18 51
	L 18 52
	L 18 53
	L 19 53
	L 18 53
	L 18 54
	L 19 54
	L 20 54
	L 20 53
	L 20 54
	L 21 54
	L 22 54
	L 23 54
	L 23 53
	L 23 54
	L 24 54
	L 24 53
	L 24 52
	L 23 52
	L 24 52
	L 24 51
	L 24 52
	L 24 53
	L 25 53
	L 24 53
	L 24 54
	L 25 54
	L 26 54
	L 26 53
	L 26 54
	L 27 54
	L 26 54
	L 25 54
	L 25 55
	L 25 54
	L 24 54
	L 23 54
	L 22 54
	L 22 55
	L 22 54
	L 21 54
	L 21 55
	L 21 56
	L 22 56
	L 21 56
	L 21 57
	L 21 56
	L 21 55
	L 20 55
	L 21 55
	L 21 54
	L 20 54
	L 19 54
	L 19 55
	L 19 54
	L 18 54
	L 17 54
	L 16 54
	L 16 55
	L 16 54
	L 15 54
	L 14 54
	L 13 54
	L 13 55
	L 13 54
	L 12 54
	L 12 55
	L 12 56
	L 13 56
	L 12 56
	L 12 57
	L 12 56
	L 12 55
	L 11 55
	L 12 55
	L 12 54
	L 11 54
	L 10 54
	L 10 55
	L 10 54
	L 9 54
	L 9 55
	L 9 56
	L 10 56
	L 9 56
	L 9 57
	L 9 58
	L 9 59
	L 10 59
	L 9 59
	L 9 60
	L 10 60
	L 11 60
	L 11 59
	L 11 60
	L 12 60
	L 11 60
	L 10 60
	L 10 61
	L 10 60
	L 9 60
	L 9 61
	L 9 62
	L 10 62
	L 9 62
	L 9 63
	L 9 62
	L 9 61
	L 8 61
	L 9 61
	L 9 60
	L 9 59
	L 9 58
	L 8 58
	L 9 58
	L 9 57
	L 8 57
	L 7 57
	L 7 58
	L 7 57
	L 6 57
	L 7 57
	L 8 57
	L 8 56
	L 8 57
	L 9 57
	L 9 56
	L 9 55
	L 8 55
	L 9 55
	L 9 54
	L 8 54
	L 7 54
	L 7 55
	L 7 54
	L 6 54
	L 5 54
	L 4 54
	L 4 55
	L 4 54
	L 3 54
	L 3 55
	L 3 56
	L 4 56
	L 3 56
	L 3 57
	L 3 56
	L 3 55
	L 2 55
	L 3 55
	L 3 54
	L 2 54
	L 1 54
	L 1 55
	L 1 54
	L 0.0002659 54
	L 0.0002878 55
	L 0.0003097 56
	L 1 56
	L 0.0003097 56
	L 0.0003317 57
	L 0.0003537 58
	L 0.0003757 59
	L 1 59
	L 0.0003757 59
	L 0.000398 60
	L 1 60
	L 2 60
	L 2 59
	L 2 60
	L 3 60
	L 2 60
	L 1 60
	L 1 61
	L 1 60
	L 0.000398 60
	L 0.0004207 61
	L 0.0004434 62
	L 1 62
	L 0.0004434 62
	L 0.0004663 63
	L 0.0004892 64
	L 0.0005121 65
	L 1.001 65
	L 0.0005121 65
	L 0.0005352 66
	L 0.0005583 67
	L 0.0005814 68
	L 1.001 68
	L 0.0005814 68
	L 0.0006046 69
	L 1.001 69
	L 2.001 69
	L 2.001 68
	L 2.001 69
	L 3.001 69
	L 2.001 69
	L 1.001 69
	L 1.001 70
	L 1.001 69
	L 0.0006046 69
	L 0.0006284 70
	L 0.0006522 71
	L 1.001 71
	L 0.0006522 71
	L 0.0006761 72
	L 1.001 72
	L 2.001 72
	L 2.001 71
	L 2.001 72
	L 3.001 72
	L 4.001 72
	L 5.001 72
	L 5.001 71
	L 5.001 72
	L 6.001 72
	L 6.001 71
	L 6.001 70
	L 5.001 70
	L 6.001 70
	L 6.001 69
	L 6.001 70
	L 6.001 71
	L 7.001 71
	L 6.001 71
	L 6.001 72
	L 7.001 72
	L 8.001 72
	L 8.001 71
	L 8.001 72
	L 9.001 72
	L 8.001 72
	L 7.001 72
	L 7.001 73
	L 7.001 72
	L 6.001 72
	L 5.001 72
	L 4.001 72
	L 4.001 73
	L 4.001 72
	L 3.001 72
	L 3.001 73
	L 3.001 74
	L 4.001 74
	L 3.001 74
	L 3.001 75
	L 3.001 74
	L 3.001 73
	L 2.001 73
	L 3.001 73
	L 3.001 72
	L 2.001 72
	L 1.001 72
	L 1.001 73
	L 1.001 72
	L 0.0006761 72
	L 0.0007024 73
	L 0.0007286 74
	L 1.001 74
	L 0.0007286 74
	L 0.000755 75
	L 0.0007814 76
	L 0.0008078 77
	L 1.001 77
	L 0.0008078 77
	L 0.0008344 78
	L 1.001 78
	L 2.001 78
	L 2.001 77
	L 2.001 78
	L 3.001 78
	L 2.001 78
	L 1.001 78
	L 1.001 79
	L 1.001 78
	L 0.0008344 78
	L 0.0008615 79
	L 0.0008886 80
	L 1.001 80
	L 0.0008886 80
	L 0.0009158 81
	L 1.001 81
	L 2.001 81
	L 2.001 80
	L 2.001 81
	L 3.001 81
	L 4.001 81
	L 5.001 81
	L 5.001 80
	L 5.001 81
	L 6.001 81
	L 6.001 80
	L 6.001 79
	L 5.001 79
	L 6.001 79
	L 6.001 78
	L 6.001 79
	L 6.001 80
	L 7.001 80
	L 6.001 80
	L 6.001 81
	L 7.001 81
	L 8.001 81
	L 8.001 80
	L 8.001 81
	L 9.001 81
	L 10 81
	L 11 81
	L 11 80
	L 11 81
	L 12 81
	L 13 81
	L 14 81
	L 14 80
	L 14 81
	L 15 81
	L 15 80
	L 15 79
	L 14 79
	L 15 79
	L 15 78
	L 15 79
	L 15 80
	L 16 80
	L 15 80
	L 15 81
	L 16 81
	L 17 81
	L 17 80
	L 17 81
	L 18 81
	L 18 80
	L 18 79
	L 17 79
	L 18 79
	L 18 78
	L 18 77
	L 18 76
	L 17 76
	L 18 76
	L 18 75
	L 17 75
	L 16 75
	L 16 76
	L 16 75
	L 15 75
	L 16 75
	L 17 75
	L 17 74
	L 17 75
	L 18 75
	L 18 74
	L 18 73
	L 17 73
	L 18 73
	L 18 72
	L 18 73
	L 18 74
	L 19 74
	L 18 74
	L 18 75
	L 18 76
	L 18 77
	L 19 77
	L 18 77
	L 18 78
	L 19 78
	L 20 78
	L 20 77
	L 20 78
	L 21 78
	L 20 78
	L 19 78
	L 19 79
	L 19 78
	L 18 78
	L 18 79
	L 18 80
	L 19 80
	L 18 80
	L 18 81
	L 19 81
	L 20 81
	L 20 80
	L 20 81
	L 21 81
	L 22 81
	L 23 81
	L 23 80
	L 23 81
	L 24 81
	L 24 80
	L 24 79
	L 23 79
	L 24 79
	L 24 78
	L 24 79
	L 24 80
	L 25 80
	L 24 80
	L 24 81
	L 25 81
	L 26 81
	L 26 80
	L 26 81
	L 27 81
	L 28 81
	L 29 81
	L 29 80
	L 29 81
	L 30 81
	L 31 81
	L 32 81
	L 32 80
	L 32 81
	L 33 81
	L 33 80
	L 33 79
	L 32 79
	L 33 79
	L 33 78
	L 33 79
	L 33 80
	L 34 80
	L 33 80
	L 33 81
	L 34 81
	L 35 81
	L 35 80
	L 35 81
	L 36 81
	L 37 81
	L 38 81
	L 38 80
	L 38 81
	L 39 81
	L 40 81
	L 41 81
	L 41 80
	L 41 81
	L 42 81
	L 42 80
	L 42 79
	L 41 79
	L 42 79
	L 42 78
	L 42 79
	L 42 80
	L 43 80
	L 42 80
	L 42 81
	L 43 81
	L 44 81
	L 44 80
	L 44 81
	L 45 81
	L 45 80
	L 45 79
	L 44 79
	L 45 79
	L 45 78
	L 45 77
	L 45 76
	L 44 76
	L 45 76
	L 45 75
	L 44 75
	L 43 75
	L 43 76
	L 43 75
	L 42 75
	L 43 75
	L 44 75
	L 44 74
	L 44 75
	L 45 75
	L 45 74
	L 45 73
	L 44 73
	L 45 73
	L 45 72
	L 45 73
	L 45 74
	L 46 74
	L 45 74
	L 45 75
	L 45 76
	L 45 77
	L 46 77
	L 45 77
	L 45 78
	L 46 78
	L 47 78
	L 47 77
	L 47 78
	L 48 78
	L 47 78
	L 46 78
	L 46 79
	L 46 78
	L 45 78
	L 45 79
	L 45 80
	L 46 80
	L 45 80
	L 45 81
	L 46 81
	L 47 81
	L 47 80
	L 47 81
	L 48 81
	L 49 81
	L 50 81
	L 50 80
	L 50 81
	L 51 81
	L 51 80
	L 51 79
	L 50 79
	L 51 79
	L 51 78
	L 51 79
	L 51 80
	L 52 80
	L 51 80
	L 51 81
	L 52 81
	L 53 81
	L 53 80
	L 53 81
	L 54 81
	L 54 80
	L 54 79
	L 53 79
	L 54 79
	L 54 78
	L 54 77
	L 54 76
	L 53 76
	L 54 76
	L 54 75
	L 53 75
	L 52 75
	L 52 76
	L 52 75
	L 51 75
	L 52 75
	L 53 75
	L 53 74
	L 53 75
	L 54 75
	L 54 74
	L 54 73
	L 53 73
	L 54 73
	L 54 72
	L 54 71
	L 54 70
	L 53 70
	L 54 70
	L 54 69
	L 54 68
	L 54 67
	L 53 67
	L 54 67
	L 54 66
	L 53 66
	L 52 66
	L 52 67
	L 52 66
	L 51 66
	L 52 66
	L 53 66
	L 53 65
	L 53 66
	L 54 66
	L 54 65
	L 54 64
	L 53 64
	L 54 64
	L 54 63
	L 53 63
	L 52 63
	L 52 64
	L 52 63
	L 51 63
	L 50 63
	L 49 63
	L 49 64
	L 49 63
	L 48 63
	L 48 64
	L 48 65
	L 49 65
	L 48 65
	L 48 66
	L 48 65
	L 48 64
	L 47 64
	L 48 64
	L 48 63
	L 47 63
	L 46 63
	L 46 64
	L 46 63
	L 45 63
	L 46 63
	L 47 63
	L 47 62
	L 47 63
	L 48 63
	L 49 63
	L 50 63
	L 50 62
	L 50 63
	L 51 63
	L 51 62
	L 51 61
	L 50 61
	L 51 61
	L 51 60
	L 51 61
	L 51 62
	L 52 62
	L 51 62
	L 51 63
	L 52 63
	L 53 63
	L 53 62
	L 53 63
	L 54 63
	L 54 62
	L 54 61
	L 53 61
	L 54 61
	L 54 60
	L 54 59
	L 54 58
	L 53 58
	L 54 58
	L 54 57
	L 53 57
	L 52 57
	L 52 58
	L 52 57
	L 51 57
	L 52 57
	L 53 57
	L 53 56
	L 53 57
	L 54 57
	L 54 56
	L 54 55
	L 53 55
	L 54 55
	L 54 54
	L 54 55
	L 54 56
	L 55 56
	L 54 56
	L 54 57
	L 54 58
	L 54 59
	L 55 59
	L 54 59
	L 54 60
	L 55 60
	L 56 60
	L 56 59
	L 56 60
	L 57 60
	L 56 60
	L 55 60
	L 55 61
	L 55 60
	L 54 60
	L 54 61
	L 54 62
	L 55 62
	L 54 62
	L 54 63
	L 54 64
	L 54 65
	L 55 65
	L 54 65
	L 54 66
	L 54 67
	L 54 68
	L 55 68
	L 54 68
	L 54 69
	L 55 69
	L 56 69
	L 56 68
	L 56 69
	L 57 69
	L 56 69
	L 55 69
	L 55 70
	L 55 69
	L 54 69
	L 54 70
	L 54 71
	L 55 71
	L 54 71
	L 54 72
	L 55 72
	L 56 72
	L 56 71
	L 56 72
	L 57 72
	L 58 72
	L 59 72
	L 59 71
	L 59 72
	L 60 72
	L 60 71
	L 60 70
	L 59 70
	L 60 70
	L 60 69
	L 60 70
	L 60 71
	L 61 71
	L 60 71
	L 60 72
	L 61 72
	L 62 72
	L 62 71
	L 62 72
	L 63 72
	L 62 72
	L 61 72
	L 61 73
	L 61 72
	L 60 72
	L 59 72
	L 58 72
	L 58 73
	L 58 72
	L 57 72
	L 57 73
	L 57 74
	L 58 74
	L 57 74
	L 57 75
	L 57 74
	L 57 73
	L 56 73
	L 57 73
	L 57 72
	L 56 72
	L 55 72
	L 55 73
	L 55 72
	L 54 72
	L 54 73
	L 54 74
	L 55 74
	L 54 74
	L 54 75
	L 54 76
	L 54 77
	L 55 77
	L 54 77
	L 54 78
	L 55 78
	L 56 78
	L 56 77
	L 56 78
	L 57 78
	L 56 78
	L 55 78
	L 55 79
	L 55 78
	L 54 78
	L 54 79
	L 54 80
	L 55 80
	L 54 80
	L 54 81
	L 55 81
	L 56 81
	L 56 80
	L 56 81
	L 57 81
	L 58 81
	L 59 81
	L 59 80
	L 59 81
	L 60 81
	L 60 80
	L 60 79
	L 59 79
	L 60 79
	L 60 78
	L 60 79
	L 60 80
	L 61 80
	L 60 80
	L 60 81
	L 61 81
	L 62 81
	L 62 80
	L 62 81
	L 63 81
	L 64 81
	L 65 81
	L 65 80
	L 65 81
	L 66 81
	L 67 81
	L 68 81
	L 68 80
	L 68 81
	L 69 81
	L 69 80
	L 69 79
	L 68 79
	L 69 79
	L 69 78
	L 69 79
	L 69 80
	L 70 80
	L 69 80
	L 69 81
	L 70 81
	L 71 81
	L 71 80
	L 71 81
	L 72 81
	L 72 80
	L 72 79
	L 71 79
	L 72 79
	L 72 78
	L 72 77
	L 72 76
	L 71 76
	L 72 76
	L 72 75
	L 71 75
	L 70 75
	L 70 76
	L 70 75
	L 69 75
	L 70 75
	L 71 75
	L 71 74
	L 71 75
	L 72 75
	L 72 74
	L 72 73
	L 71 73
	L 72 73
	L 72 72
	L 72 73
	L 72 74
	L 73 74
	L 72 74
	L 72 75
	L 72 76
	L 72 77
	L 73 77
	L 72 77
	L 72 78
	L 73 78
	L 74 78
	L 74 77
	L 74 78
	L 75 78
	L 74 78
	L 73 78
	L 73 79
	L 73 78
	L 72 78
	L 72 79
	L 72 80
	L 73 80
	L 72 80
	L 72 81
	L 73 81
	L 74 81
	L 74 80
	L 74 81
	L 75 81
	L 76 81
	L 77 81
	L 77 80
	L 77 81
	L 78 81
	L 78 80
	L 78 79
	L 77 79
	L 78 79
	L 78 78
	L 78 79
	L 78 80
	L 79 80
	L 78 80
	L 78 81
	L 79 81
	L 80 81
	L 80 80
	L 80 81
	L 81 81
	L 81 80
	L 81 79
	L 80 79
	L 81 79
	L 81 78
	L 81 77
	L 81 76
	L 80 76
	L 81 76
	L 81 75
	L 80 75
	L 79 75
	L 79 76
	L 79 75
	L 78 75
	L 79 75
	L 80 75
	L 80 74
	L 80 75
	L 81 75
	L 81 74
	L 81 73
	L 80 73
	L 81 73
	L 81 72
	L 81 71
	L 81 70
	L 80 70
	L 81 70
	L 81 69
	L 81 68
	L 81 67
	L 80 67
	L 81 67
	L 81 66
	L 80 66
	L 79 66
	L 79 67
	L 79 66
	L 78 66
	L 79 66
	L 80 66
	L 80 65
	L 80 66
	L 81 66
	L 81 65
	L 81 64
	L 80 64
	L 81 64
	L 81 63
	L 80 63
	L 79 63
	L 79 64
	L 79 63
	L 78 63
	L 77 63
	L 76 63
	L 76 64
	L 76 63
	L 75 63
	L 75 64
	L 75 65
	L 76 65
	L 75 65
	L 75 66
	L 75 65
	L 75 64
	L 74 64
	L 75 64
	L 75 63
	L 74 63
	L 73 63
	L 73 64
	L 73 63
	L 72 63
	L 73 63
	L 74 63
	L 74 62
	L 74 63
	L 75 63
	L 76 63
	L 77 63
	L 77 62
	L 77 63
	L 78 63
	L 78 62
	L 78 61
	L 77 61
	L 78 61
	L 78 60
	L 78 61
	L 78 62
	L 79 62
	L 78 62
	L 78 63
	L 79 63
	L 80 63
	L 80 62
	L 80 63
	L 81 63
	L 81 62
	L 81 61
	L 80 61
	L 81 61
	L 81 60
	L 81 59
	L 81 58
	L 80 58
	L 81 58
	L 81 57
	L 80 57
	L 79 57
	L 79 58
	L 79 57
	L 78 57
	L 79 57
	L 80 57
	L 80 56
	L 80 57
	L 81 57
	L 81 56
	L 81 55
	L 80 55
	L 81 55
	L 81 54
	L 81 53
	L 81 52
	L 80 52
	L 81 52
	L 81 51
	L 81 50
	L 81 49
	L 80 49
	L 81 49
	L 81 48
	L 80 48
	L 79 48
	L 79 49
	L 79 48
	L 78 48
	L 79 48
	L 80 48
	L 80 47
	L 80 48
	L 81 48
	L 81 47
	L 81 46
	L 80 46
	L 81 46
	L 81 45
	L 81 44
	L 81 43
	L 80 43
	L 81 43
	L 81 42
	L 81 41
	L 81 40
	L 80 40
	L 81 40
	L 81 39
	L 80 39
	L 79 39
	L 79 40
	L 79 39
	L 78 39
	L 79 39
	L 80 39
	L 80 38
	L 80 39
	L 81 39
	L 81 38
	L 81 37
	L 80 37
	L 81 37
	L 81 36
	L 80 36
	L 79 36
	L 79 37
	L 79 36
	L 78 36
	L 77 36
	L 76 36
	L 76 37
	L 76 36
	L 75 36
	L 75 37
	L 75 38
	L 76 38
	L 75 38
	L 75 39
	L 75 38
	L 75 37
	L 74 37
	L 75 37
	L 75 36
	L 74 36
	L 73 36
	L 73 37
	L 73 36
	L 72 36
	L 73 36
	L 74 36
	L 74 35
	L 74 36
	L 75 36
	L 76 36
	L 77 36
	L 77 35
	L 77 36
	L 78 36
	L 78 35
	L 78 34
	L 77 34
	L 78 34
	L 78 33
	L 78 34
	L 78 35
	L 79 35
	L 78 35
	L 78 36
	L 79 36
	L 80 36
	L 80 35
	L 80 36
	L 81 36
	L 81 35
	L 81 34
	L 80 34
	L 81 34
	L 81 33
	L 81 32
	L 81 31
	L 80 31
	L 81 31
	L 81 30
	L 80 30
	L 79 30
	L 79 31
	L 79 30
	L 78 30
	L 79 30
	L 80 30
	L 80 29
	L 80 30
	L 81 30
	L 81 29
	L 81 28
	L 80 28
	L 81 28
	L 81 27
	L 80 27
	L 79 27
	L 79 28
	L 79 27
	L 78 27
	L 77 27
	L 76 27
	L 76 28
	L 76 27
	L 75 27
	L 75 28
	L 75 29
	L 76 29
	L 75 29
	L 75 30
	L 75 29
	L 75 28
	L 74 28
	L 75 28
	L 75 27
	L 74 27
	L 73 27
	L 73 28
	L 73 27
	L 72 27
	L 71 27
	L 70 27
	L 70 28
	L 70 27
	L 69 27
	L 68 27
	L 67 27
	L 67 28
	L 67 27
	L 66 27
	L 66 28
	L 66 29
	L 67 29
	L 66 29
	L 66 30
	L 66 29
	L 66 28
	L 65 28
	L 66 28
	L 66 27
	L 65 27
	L 64 27
	L 64 28
	L 64 27
	L 63 27
	L 63 28
	L 63 29
	L 64 29
	L 63 29
	L 63 30
	L 63 31
	L 63 32
	L 64 32
	L 63 32
	L 63 33
	L 64 33
	L 65 33
	L 65 32
	L 65 33
	L 66 33
	L 65 33
	L 64 33
	L 64 34
	L 64 33
	L 63 33
	L 63 34
	L 63 35
	L 64 35
	L 63 35
	L 63 36
	L 63 35
	L 63 34
	L 62 34
	L 63 34
	L 63 33
	L 63 32
	L 63 31
	L 62 31
	L 63 31
	L 63 30
	L 62 30
	L 61 30
	L 61 31
	L 61 30
	L 60 30
	L 61 30
	L 62 30
	L 62 29
	L 62 30
	L 63 30
	L 63 29
	L 63 28
	L 62 28
	L 63 28
	L 63 27
	L 62 27
	L 61 27
	L 61 28
	L 61 27
	L 60 27
	L 59 27
	L 58 27
	L 58 28
	L 58 27
	L 57 27
	L 57 28
	L 57 29
	L 58 29
	L 57 29
	L 57 30
	L 57 29
	L 57 28
	L 56 28
	L 57 28
	L 57 27
	L 56 27
	L 55 27
	L 55 28
	L 55 27
	L 54 27
	L 55 27
	L 56 27
	L 56 26
	L 56 27
	L 57 27
	L 58 27
	L 59 27
	L 59 26
	L 59 27
	L 60 27
	L 60 26
	L 60 25
	L 59 25
	L 60 25
	L 60 24
	L 60 25
	L 60 26
	L 61 26
	L 60 26
	L 60 27
	L 61 27
	L 62 27
	L 62 26
	L 62 27
	L 63 27
	L 64 27
	L 65 27
	L 65 26
	L 65 27
	L 66 27
	L 67 27
	L 68 27
	L 68 26
	L 68 27
	L 69 27
	L 69 26
	L 69 25
	L 68 25
	L 69 25
	L 69 24
	L 69 25
	L 69 26
	L 70 26
	L 69 26
	L 69 27
	L 70 27
	L 71 27
	L 71 26
	L 71 27
	L 72 27
	L 72 26
	L 72 25
	L 71 25
	L 72 25
	L 72 24
	L 72 23
	L 72 22
	L 71 22
	L 72 22
	L 72 21
	L 71 21
	L 70 21
	L 70 22
	L 70 21
	L 69 21
	L 70 21
	L 71 21
	L 71 20
	L 71 21
	L 72 21
	L 72 20
	L 72 19
	L 71 19
	L 72 19
	L 72 18
	L 72 19
	L 72 20
	L 73 20
	L 72 20
	L 72 21
	L 72 22
	L 72 23
	L 73 23
	L 72 23
	L 72 24
	L 73 24
	L 74 24
	L 74 23
	L 74 24
	L 75 24
	L 74 24
	L 73 24
	L 73 25
	L 73 24
	L 72 24
	L 72 25
	L 72 26
	L 73 26
	L 72 26
	L 72 27
	L 73 27
	L 74 27
	L 74 26
	L 74 27
	L 75 27
	L 76 27
	L 77 27
	L 77 26
	L 77 27
	L 78 27
	L 78 26
	L 78 25
	L 77 25
	L 78 25
	L 78 24
	L 78 25
	L 78 26
	L 79 26
	L 78 26
	L 78 27
	L 79 27
	L 80 27
	L 80 26
	L 80 27
	L 81 27
	L 81 26
	L 81 25
	L 80 25
	L 81 25
	L 81 24
	L 81 23
	L 81 22
	L 80 22
	L 81 22
	L 81 21
	L 80 21
	L 79 21
	L 79 22
	L 79 21
	L 78 21
	L 79 21
	L 80 21
	L 80 20
	L 80 21
	L 81 21
	L 81 20
	L 81 19
	L 80 19
	L 81 19
	L 81 18
	L 81 17
	L 81 16
	L 80 16
	L 81 16
	L 81 15
	L 81 14
	L 81 13
	L 80 13
	L 81 13
	L 81 12
	L 80 12
	L 79 12
	L 79 13
	L 79 12
	L 78 12
	L 79 12
	L 80 12
	L 80 11
	L 80 12
	L 81 12
	L 81 11
	L 81 9.997
	L 80 9.997
	L 81 9.997
	L 81 8.997
	L 80 8.997
	L 79 8.997
	L 79 9.997
	L 79 8.997
	L 78 8.997
	L 77 8.997
	L 76 8.997
	L 76 9.997
	L 76 8.997
	L 75 8.997
	L 75 9.997
	L 75 11
	L 76 11
	L 75 11
	L 75 12
	L 75 11
	L 75 9.997
	L 74 9.997
	L 75 9.997
	L 75 8.997
	L 74 8.997
	L 73 8.998
	L 73 9.998
	L 73 8.998
	L 72 8.998
	L 73 8.998
	L 74 8.997
	L 74 7.997
	L 74 8.997
	L 75 8.997
	L 76 8.997
	L 77 8.997
	L 77 7.997
	L 77 8.997
	L 78 8.997
	L 78 7.997
	L 78 6.997
	L 77 6.997
	L 78 6.997
	L 78 5.997
	L 78 6.997
	L 78 7.997
	L 79 7.997
	L 78 7.997
	L 78 8.997
	L 79 8.997
	L 80 8.997
	L 80 7.997
	L 80 8.997
	L 81 8.997
	L 81 7.997
	L 81 6.997
	L 80 6.997
	L 81 6.997
	L 81 5.997
	L 81 4.997
	L 81 3.997
	L 80 3.997
	L 81 3.997
	L 81 2.997
	L 80 2.997
	L 79 2.997
	L 79 3.997
	L 79 2.997
	L 78 2.997
	L 79 2.997
	L 80 2.997
	L 80 1.997
	L 80 2.997
	L 81 2.997
	L 81 1.997
	L 81 0.9969
	L 80 0.997
	L 81 0.9969
	L 81 -0.003129
	L 80 -0.003047
	L 79 -0.002965
	L 79 0.997
	L 79 -0.002965
	L 78 -0.002883
	L 77 -0.0028
	L 76 -0.002718
	L 76 0.9973
	L 76 -0.002718
	L 75 -0.002636
	L 75 0.9974
	L 75 1.997
	L 76 1.997
	L 75 1.997
	L 75 2.997
	L 75 1.997
	L 75 0.9974
	L 74 0.9974
	L 75 0.9974
	L 75 -0.002636
	L 74 -0.002553
	L 73 -0.00247
	L 73 0.9975
	L 73 -0.00247
	L 72 -0.002387
	L 71 -0.002304
	L 70 -0.002221
	L 70 0.9978
	L 70 -0.002221
	L 69 -0.002138
	L 68 -0.002055
	L 67 -0.001972
	L 67 0.998
	L 67 -0.001972
	L 66 -0.001888
	L 66 0.9981
	L 66 1.998
	L 67 1.998
	L 66 1.998
	L 66 2.998
	L 66 1.998
	L 66 0.9981
	L 65 0.9982
	L 66 0.9981
	L 66 -0.001888
	L 65 -0.001804
	L 64 -0.001721
	L 64 0.9983
	L 64 -0.001721
	L 63 -0.001637
	L 63 0.9984
	L 63 1.998
	L 64 1.998
	L 63 1.998
	L 63 2.998
	L 63 3.998
	L 63 4.998
	L 64 4.998
	L 63 4.998
	L 63 5.998
	L 64 5.998
	L 65 5.998
	L 65 4.998
	L 65 5.998
	L 66 5.998
	L 65 5.998
	L 64 5.998
	L 64 6.998
	L 64 5.998
	L 63 5.998
	L 63 6.998
	L 63 7.998
	L 64 7.998
	L 63 7.998
	L 63 8.998
	L 63 7.998
	L 63 6.998
	L 62 6.998
	L 63 6.998
	L 63 5.998
	L 63 4.998
	L 63 3.998
	L 62 3.998
	L 63 3.998
	L 63 2.998
	L 62 2.998
	L 61 2.999
	L 61 3.999
	L 61 2.999
	L 60 2.999
	L 61 2.999
	L 62 2.998
	L 62 1.998
	L 62 2.998
	L 63 2.998
	L 63 1.998
	L 63 0.9984
	L 62 0.9984
	L 63 0.9984
	L 63 -0.001637
	L 62 -0.00155
	L 61 -0.001464
	L 61 0.9985
	L 61 -0.001464
	L 60 -0.001377
	L 59 -0.001291
	L 58 -0.001204
	L 58 0.9988
	L 58 -0.001204
	L 57 -0.001118
	L 57 0.9989
	L 57 1.999
	L 58 1.999
	L 57 1.999
	L 57 2.999
	L 57 1.999
	L 57 0.9989
	L 56 0.999
	L 57 0.9989
	L 57 -0.001118
	L 56 -0.00103
	L 55 -0.0009433
	L 55 0.9991
	L 55 -0.0009433
	L 54 -0.0008559
	L 53 -0.0007685
	L 52 -0.0006811
	L 52 0.9993
	L 52 -0.0006811
	L 51 -0.0005936
	L 50 -0.000506
	L 49 -0.0004185
	L 49 0.9996
	L 49 -0.0004185
	L 48 -0.0003307
	L 48 0.9997
	L 48 2
	L 49 2
	L 48 2
	L 48 3
	L 48 2
	L 48 0.9997
	L 47 0.9998
	L 48 0.9997
	L 48 -0.0003307
	L 47 -0.0002425
	L 46 -0.0001542
	L 46 0.9998
	L 46 -0.0001542
	L 45 -6.58e-05
	L 44 2.263e-05
	L 43 0.0001111
	L 43 1
	L 43 0.0001111
	L 42 0.0001997
	L 41 0.0002883
	L 40 0.0003769
	L 40 1
	L 40 0.0003769
	L 39 0.0004656
	L 39 1
	L 39 2
	L 40 2
	L 39 2
	L 39 3
	L 39 2
	L 39 1
	L 38 1.001
	L 39 1
	L 39 0.0004656
	L 38 0.0005549
	L 37 0.0006443
	L 37 1.001
	L 37 0.0006443
	L 36 0.0007337
	L 36 1.001
	L 36 2.001
	L 37 2.001
	L 36 2.001
	L 36 3.001
	L 36 4.001
	L 36 5.001
	L 37 5.001
	L 36 5.001
	L 36 6.001
	L 37 6.001
	L 38 6.001
	L 38 5.001
	L 38 6.001
	L 39 6
	L 38 6.001
	L 37 6.001
	L 37 7.001
	L 37 6.001
	L 36 6.001
	L 36 7.001
	L 36 8.001
	L 37 8.001
	L 36 8.001
	L 36 9.001
	L 36 8.001
	L 36 7.001
	L 35 7.001
	L 36 7.001
	L 36 6.001
	L 36 5.001
	L 36 4.001
	L 35 4.001
	L 36 4.001
	L 36 3.001
	L 35 3.001
	L 34 3.001
	L 34 4.001
	L 34 3.001
	L 33 3.001
	L 34 3.001
	L 35 3.001
	L 35 2.001
	L 35 3.001
	L 36 3.001
	L 36 2.001
	L 36 1.001
	L 35 1.001
	L 36 1.001
	L 36 0.0007337
	L 35 0.0008255
	L 34 0.0009172
	L 34 1.001
	L 34 0.0009172
	L 33 0.001009
	L 32 0.001101
	L 31 0.001193
	L 31 1.001
	L 31 0.001193
	L 30 0.001285
	L 30 1.001
	L 30 2.001
	L 31 2.001
	L 30 2.001
	L 30 3.001
	L 30 2.001
	L 30 1.001
	L 29 1.001
	L 30 1.001
	L 30 0.001285
	L 29 0.001378
	L 28 0.00147
	L 28 1.001
	L 28 0.00147
	L 27 0.001563
	L 27 1.002
	L 27 2.002
	L 28 2.001
	L 27 2.002
	L 27 3.002
	L 27 4.002
	L 27 5.002
	L 28 5.001
	L 27 5.002
	L 27 6.002
	L 28 6.001
	L 29 6.001
	L 29 5.001
	L 29 6.001
	L 30 6.001
	L 29 6.001
	L 28 6.001
	L 28 7.001
	L 28 6.001
	L 27 6.002
	L 27 7.002
	L 27 8.002
	L 28 8.001
	L 27 8.002
	L 27 9.002
	L 27 10
	L 27 11
	L 28 11
	L 27 11
	L 27 12
	L 27 13
	L 27 14
	L 28 14
	L 27 14
	L 27 15
	L 28 15
	L 29 15
	L 29 14
	L 29 15
	L 30 15
	L 29 15
	L 28 15
	L 28 16
	L 28 15
	L 27 15
	L 27 16
	L 27 17
	L 28 17
	L 27 17
	L 27 18
	L 28 18
	L 29 18
	L 29 17
	L 29 18
	L 30 18
	L 31 18
	L 32 18
	L 32 17
	L 32 18
	L 33 18
	L 33 17
	L 33 16
	L 32 16
	L 33 16
	L 33 15
	L 33 16
	L 33 17
	L 34 17
	L 33 17
	L 33 18
	L 34 18
	L 35 18
	L 35 17
	L 35 18
	L 36 18
	L 35 18
	L 34 18
	L 34 19
	L 34 18
	L 33 18
	L 32 18
	L 31 18
	L 31 19
	L 31 18
	L 30 18
	L 30 19
	L 30 20
	L 31 20
	L 30 20
	L 30 21
	L 30 20
	L 30 19
	L 29 19
	L 30 19
	L 30 18
	L 29 18
	L 28 18
	L 28 19
	L 28 18
	L 27 18
	L 27 19
	L 27 20
	L 28 20
	L 27 20
	L 27 21
	L 27 22
	L 27 23
	L 28 23
	L 27 23
	L 27 24
	L 28 24
	L 29 24
	L 29 23
	L 29 24
	L 30 24
	L 29 24
	L 28 24
	L 28 25
	L 28 24
	L 27 24
	L 27 25
	L 27 26
	L 28 26
	L 27 26
	L 27 27
	L 27 26
	L 27 25
	L 26 25
	L 27 25
	L 27 24
	L 27 23
	L 27 22
	L 26 22
	L 27 22
	L 27 21
	L 26 21
	L 25 21
	L 25 22
	L 25 21
	L 24 21
	L 25 21
	L 26 21
	L 26 20
	L 26 21
	L 27 21
	L 27 20
	L 27 19
	L 26 19
	L 27 19
	L 27 18
	L 27 17
	L 27 16
	L 26 16
	L 27 16
	L 27 15
	L 27 14
	L 27 13
	L 26 13
	L 27 13
	L 27 12
	L 26 12
	L 25 12
	L 25 13
	L 25 12
	L 24 12
	L 25 12
	L 26 12
	L 26 11
	L 26 12
	L 27 12
	L 27 11
	L 27 10
	L 26 10
	L 27 10
	L 27 9.002
	L 26 9.002
	L 25 9.002
	L 25 10
	L 25 9.002
	L 24 9.002
	L 23 9.002
	L 22 9.002
	L 22 10
	L 22 9.002
	L 21 9.002
	L 21 10
	L 21 11
	L 22 11
	L 21 11
	L 21 12
	L 21 11
	L 21 10
	L 20 10
	L 21 10
	L 21 9.002
	L 20 9.002
	L 19 9.002
	L 19 10
	L 19 9.002
	L 18 9.002
	L 19 9.002
	L 20 9.002
	L 20 8.002
	L 20 9.002
	L 21 9.002
	L 22 9.002
	L 23 9.002
	L 23 8.002
	L 23 9.002
	L 24 9.002
	L 24 8.002
	L 24 7.002
	L 23 7.002
	L 24 7.002
	L 24 6.002
	L 24 7.002
	L 24 8.002
	L 25 8.002
	L 24 8.002
	L 24 9.002
	L 25 9.002
	L 26 9.002
	L 26 8.002
	L 26 9.002
	L 27 9.002
	L 27 8.002
	L 27 7.002
	L 26 7.002
	L 27 7.002
	L 27 6.002
	L 27 5.002
	L 27 4.002
	L 26 4.002
	L 27 4.002
	L 27 3.002
	L 26 3.002
	L 25 3.002
	L 25 4.002
	L 25 3.002
	L 24 3.002
	L 25 3.002
	L 26 3.002
	L 26 2.002
	L 26 3.002
	L 27 3.002
	L 27 2.002
	L 27 1.002
	L 26 1.002
	L 27 1.002
	L 27 0.001563
	L 26 0.001667
	L 25 0.001771
	L 25 1.002
	L 25 0.001771
	L 24 0.001875
	L 23 0.001979
	L 22 0.002083
	L 22 1.002
	L 22 0.002083
	L 21 0.002187
	L 21 1.002
	L 21 2.002
	L 22 2.002
	L 21 2.002
	L 21 3.002
	L 21 2.002
	L 21 1.002
	L 20 1.002
	L 21 1.002
	L 21 0.002187
	L 20 0.002292
	L 19 0.002396
	L 19 1.002
	L 19 0.002396
	L 18 0.002501
	L 17 0.002606
	L 16 0.002711
	L 16 1.003
	L 16 0.002711
	L 15 0.002816
	L 14 0.002921
	L 13 0.003026
	L 13 1.003
	L 13 0.003026
	L 12 0.003131
	L 12 1.003
	L 12 2.003
	L 13 2.003
	L 12 2.003
	L 12 3.003
	L 12 2.003
	L 12 1.003
	L 11 1.003
	L 12 1.003
	L 12 0.003131
	L 11 0.003237
	L 9.996 0.003343
	L 9.996 1.003
	L 9.996 0.003343
	L 8.996 0.003449
	L 8.996 1.003
	L 8.996 2.003
	L 9.996 2.003
	L 8.996 2.003
	L 8.996 3.003
	L 8.996 4.003
	L 8.996 5.003
	L 9.996 5.003
	L 8.996 5.003
	L 8.996 6.003
	L 9.996 6.003
	L 11 6.003
	L 11 5.003
	L 11 6.003
	L 12 6.003
	L 11 6.003
	L 9.996 6.003
	L 9.996 7.003
	L 9.996 6.003
	L 8.996 6.003
	L 8.996 7.003
	L 8.996 8.003
	L 9.996 8.003
	L 8.996 8.003
	L 8.997 9.003
	L 8.996 8.003
	L 8.996 7.003
	L 7.996 7.004
	L 8.996 7.003
	L 8.996 6.003
	L 8.996 5.003
	L 8.996 4.003
	L 7.996 4.004
	L 8.996 4.003
	L 8.996 3.003
	L 7.996 3.004
	L 6.996 3.004
	L 6.996 4.004
	L 6.996 3.004
	L 5.996 3.004
	L 6.996 3.004
	L 7.996 3.004
	L 7.996 2.004
	L 7.996 3.004
	L 8.996 3.003
	L 8.996 2.003
	L 8.996 1.003
	L 7.996 1.004
	L 8.996 1.003
	L 8.996 0.003449
	L 7.996 0.003557
	L 6.996 0.003665
	L 6.996 1.004
	L 6.996 0.003665
	L 5.996 0.003773
	L 4.996 0.003882
	L 3.996 0.00399
	L 3.996 1.004
	L 3.996 0.00399
	L 2.996 0.004099
	L 2.996 1.004
	L 2.996 2.004
	L 3.996 2.004
	L 2.996 2.004
	L 2.996 3.004
	L 2.996 2.004
	L 2.996 1.004
	L 1.996 1.004
	L 2.996 1.004
	L 2.996 0.004099
	L 1.996 0.004208
	L 0.9956 0.004317
	L 0.9957 1.004
	L 0.9956 0.004317
	L -0.004425 0.004426
"/>
</svg>
