<svg version="1.1" baseProfile="full" xmlns="http://www.w3.org/2000/svg"
width="1024" height="606.7"
viewBox="-1 -115.8 197.2 116.8"
>
<rect x="-1" y="-115.8" width="100%" height="100%" fill="white" />
<path stroke="green" stroke-width="0.04" stroke-linecap="round" fill="none"
transform="scale(1 -1)"
d="	M 0 0
	L 0.9877 0.1564
	L 1.975 0.3129
	L 2.926 0.6219
	L 3.877 0.9309
	L 4.829 1.24
	L 5.78 1.549
	L 6.767 1.705
	L 7.755 1.862
	L 8.743 2.018
	L 9.73 2.175
	L 10.68 2.484
	L 11.63 2.793
	L 12.58 3.102
	L 13.53 3.411
	L 14.52 3.567
	L 15.51 3.724
	L 16.5 3.88
	L 17.49 4.036
	L 18.44 4.345
	L 19.39 4.655
	L 20.34 4.964
	L 21.29 5.273
	L 22.18 5.727
	L 23.07 6.181
	L 23.96 6.635
	L 24.85 7.089
	L 25.66 7.676
	L 26.47 8.264
	L 27.28 8.852
	L 28.09 9.44
	L 28.98 9.894
	L 29.87 10.35
	L 30.76 10.8
	L 31.65 11.26
	L 32.46 11.84
	L 33.27 12.43
	L 34.08 13.02
	L 34.89 13.61
	L 35.78 14.06
	L 36.67 14.51
	L 37.56 14.97
	L 38.45 15.42
	L 39.4 15.73
	L 40.36 16.04
	L 41.31 16.35
	L 42.26 16.66
	L 43.25 16.82
	L 44.23 16.97
	L 45.22 17.13
	L 46.21 17.28
	L 47.16 17.59
	L 48.11 17.9
	L 49.06 18.21
	L 50.01 18.52
	L 51 18.68
	L 51.99 18.83
	L 52.98 18.99
	L 53.96 19.15
	L 54.91 19.46
	L 55.87 19.76
	L 56.82 20.07
	L 57.77 20.38
	L 58.76 20.54
	L 59.74 20.7
	L 60.73 20.85
	L 61.72 21.01
	L 62.72 21.01
	L 63.72 21.01
	L 64.72 21.01
	L 65.72 21.01
	L 66.71 21.16
	L 67.69 21.32
	L 68.68 21.48
	L 69.67 21.63
	L 70.62 21.94
	L 71.57 22.25
	L 72.52 22.56
	L 73.47 22.87
	L 74.36 23.32
	L 75.26 23.78
	L 76.15 24.23
	L 77.04 24.69
	L 77.99 24.99
	L 78.94 25.3
	L 79.89 25.61
	L 80.84 25.92
	L 81.73 26.38
	L 82.62 26.83
	L 83.51 27.28
	L 84.41 27.74
	L 85.36 28.05
	L 86.31 28.36
	L 87.26 28.66
	L 88.21 28.97
	L 89.1 29.43
	L 89.99 29.88
	L 90.88 30.34
	L 91.77 30.79
	L 91.32 31.68
	L 91.32 32.68
	M 91.32 31.68
	L 90.87 32.57
	L 90.87 33.57
	L 91.32 34.46
	M 90.87 33.57
	L 90.87 34.57
	M 90.87 32.57
	L 90.41 33.46
	L 89.6 34.05
	M 90.41 33.46
	L 89.96 34.35
	L 89.15 34.94
	L 88.16 35.1
	M 89.15 34.94
	L 88.34 35.53
	L 87.35 35.69
	L 86.54 36.27
	M 87.35 35.69
	L 86.36 35.84
	M 88.34 35.53
	L 87.53 36.12
	L 87.08 37.01
	M 87.53 36.12
	L 86.72 36.71
	L 86.27 37.6
	L 85.46 38.18
	M 86.27 37.6
	L 85.81 38.49
	L 85.81 39.49
	M 85.81 38.49
	L 85.36 39.38
	M 86.72 36.71
	L 85.91 37.29
	L 84.93 37.45
	M 85.91 37.29
	L 85.1 37.88
	M 89.96 34.35
	L 89.5 35.24
	L 89.5 36.24
	M 89.5 35.24
	L 89.05 36.14
	L 89.05 37.14
	L 88.6 38.03
	M 89.05 37.14
	L 89.05 38.14
	L 89.5 39.03
	M 89.05 38.14
	L 89.05 39.14
	M 89.05 36.14
	L 88.6 37.03
	L 88.6 38.03
	M 88.6 37.03
	L 88.14 37.92
	L 88.14 38.92
	L 87.69 39.81
	M 88.14 38.92
	L 88.14 39.92
	L 88.6 40.81
	M 88.14 39.92
	L 88.14 40.92
	L 87.69 41.81
	L 86.88 42.4
	M 87.69 41.81
	L 87.23 42.7
	M 88.14 40.92
	L 88.14 41.92
	L 87.69 42.81
	M 88.14 41.92
	L 88.14 42.92
	L 88.6 43.81
	M 88.14 42.92
	L 88.14 43.92
	L 88.6 44.81
	L 88.6 45.81
	M 88.6 44.81
	L 89.05 45.7
	M 88.14 43.92
	L 88.14 44.92
	L 87.69 45.81
	M 88.14 44.92
	L 88.14 45.92
	L 88.6 46.81
	M 88.14 45.92
	L 88.14 46.92
	M 88.14 37.92
	L 87.69 38.81
	L 87.69 39.81
	M 87.69 38.81
	L 87.23 39.7
	L 86.43 40.29
	L 85.44 40.44
	M 86.43 40.29
	L 85.62 40.88
	L 85.16 41.77
	M 85.62 40.88
	L 84.81 41.46
	M 87.23 39.7
	L 86.78 40.59
	L 85.97 41.18
	M 86.78 40.59
	L 86.33 41.48
	L 86.33 42.48
	M 86.33 41.48
	L 85.87 42.37
	L 85.87 43.37
	L 86.33 44.26
	M 85.87 43.37
	L 85.87 44.37
	M 85.87 42.37
	L 85.42 43.26
	L 84.61 43.85
	M 85.42 43.26
	L 84.96 44.16
	L 84.16 44.74
	L 83.17 44.9
	M 84.16 44.74
	L 83.35 45.33
	L 82.89 46.22
	L 82.89 47.22
	M 82.89 46.22
	L 82.44 47.11
	M 83.35 45.33
	L 82.54 45.92
	L 81.55 46.07
	M 82.54 45.92
	L 81.73 46.51
	L 80.74 46.66
	L 79.79 46.35
	M 80.74 46.66
	L 79.75 46.82
	L 78.94 47.41
	L 77.96 47.56
	M 78.94 47.41
	L 78.13 47.99
	L 77.68 48.89
	M 78.13 47.99
	L 77.33 48.58
	M 79.75 46.82
	L 78.77 46.98
	L 77.96 47.56
	M 78.77 46.98
	L 77.78 47.13
	M 81.73 46.51
	L 80.92 47.09
	L 79.93 47.25
	M 80.92 47.09
	L 80.11 47.68
	L 79.66 48.57
	M 80.11 47.68
	L 79.3 48.27
	L 78.85 49.16
	L 78.04 49.75
	M 78.85 49.16
	L 78.39 50.05
	L 78.39 51.05
	M 78.39 50.05
	L 77.94 50.94
	M 79.3 48.27
	L 78.49 48.86
	L 78.04 49.75
	M 78.49 48.86
	L 77.68 49.45
	L 77.23 50.34
	L 77.23 51.34
	M 77.23 50.34
	L 76.78 51.23
	L 75.97 51.81
	L 74.98 51.97
	M 75.97 51.81
	L 75.16 52.4
	L 74.7 53.29
	M 75.16 52.4
	L 74.35 52.99
	M 76.78 51.23
	L 76.32 52.12
	L 76.32 53.12
	M 76.32 52.12
	L 75.87 53.01
	L 75.87 54.01
	L 76.32 54.9
	M 75.87 54.01
	L 75.87 55.01
	M 75.87 53.01
	L 75.41 53.9
	L 74.6 54.49
	M 75.41 53.9
	L 74.96 54.79
	L 74.96 55.79
	M 74.96 54.79
	L 74.51 55.68
	M 77.68 49.45
	L 76.87 50.03
	L 76.42 50.92
	M 76.87 50.03
	L 76.07 50.62
	L 75.08 50.78
	L 74.13 50.47
	M 75.08 50.78
	L 74.09 50.93
	L 73.28 51.52
	M 74.09 50.93
	L 73.1 51.09
	M 76.07 50.62
	L 75.26 51.21
	L 74.27 51.36
	M 75.26 51.21
	L 74.45 51.8
	M 84.96 44.16
	L 84.51 45.05
	L 84.51 46.05
	M 84.51 45.05
	L 84.06 45.94
	L 83.25 46.52
	L 82.26 46.68
	M 83.25 46.52
	L 82.44 47.11
	L 81.98 48
	M 82.44 47.11
	L 81.63 47.7
	M 84.06 45.94
	L 83.6 46.83
	L 82.79 47.42
	M 83.6 46.83
	L 83.15 47.72
	L 83.15 48.72
	M 83.15 47.72
	L 82.69 48.61
	L 82.69 49.61
	L 82.24 50.5
	M 82.69 49.61
	L 82.69 50.61
	L 83.15 51.5
	M 82.69 50.61
	L 82.69 51.61
	M 82.69 48.61
	L 82.24 49.5
	L 82.24 50.5
	M 82.24 49.5
	L 81.79 50.39
	L 80.98 50.98
	L 79.99 51.14
	M 80.98 50.98
	L 80.17 51.57
	L 79.71 52.46
	M 80.17 51.57
	L 79.36 52.16
	L 78.37 52.31
	L 77.42 52
	M 78.37 52.31
	L 77.38 52.47
	M 79.36 52.16
	L 78.55 52.74
	L 78.1 53.63
	M 78.55 52.74
	L 77.74 53.33
	L 77.29 54.22
	L 77.29 55.22
	M 77.29 54.22
	L 76.83 55.11
	M 77.74 53.33
	L 76.93 53.92
	L 75.94 54.08
	M 76.93 53.92
	L 76.12 54.51
	M 81.79 50.39
	L 81.33 51.28
	L 81.33 52.28
	M 81.33 51.28
	L 80.88 52.17
	L 80.07 52.76
	L 79.08 52.92
	M 80.07 52.76
	L 79.26 53.35
	M 80.88 52.17
	L 80.42 53.07
	L 79.62 53.65
	M 80.42 53.07
	L 79.97 53.96
	L 79.16 54.54
	L 78.17 54.7
	M 79.16 54.54
	L 78.35 55.13
	L 77.9 56.02
	M 78.35 55.13
	L 77.54 55.72
	L 76.56 55.88
	L 75.6 55.57
	M 76.56 55.88
	L 75.57 56.03
	M 77.54 55.72
	L 76.73 56.31
	L 76.28 57.2
	M 76.73 56.31
	L 75.93 56.9
	L 75.47 57.79
	L 75.47 58.79
	M 75.47 57.79
	L 75.02 58.68
	M 75.93 56.9
	L 75.12 57.48
	L 74.13 57.64
	M 75.12 57.48
	L 74.31 58.07
	L 73.85 58.96
	M 74.31 58.07
	L 73.5 58.66
	L 72.51 58.81
	L 71.56 58.51
	M 72.51 58.81
	L 71.52 58.97
	L 70.57 58.66
	L 69.86 57.96
	M 70.57 58.66
	L 69.62 58.35
	M 71.52 58.97
	L 70.54 59.13
	L 69.58 58.82
	M 70.54 59.13
	L 69.55 59.28
	M 73.5 58.66
	L 72.69 59.25
	L 72.24 60.14
	M 72.69 59.25
	L 71.88 59.83
	L 70.89 59.99
	L 70.08 60.58
	M 70.89 59.99
	L 69.9 60.15
	M 71.88 59.83
	L 71.07 60.42
	L 70.08 60.58
	M 71.07 60.42
	L 70.26 61.01
	L 69.81 61.9
	M 70.26 61.01
	L 69.45 61.6
	L 69 62.49
	L 69 63.49
	M 69 62.49
	L 68.55 63.38
	M 69.45 61.6
	L 68.64 62.19
	L 67.66 62.34
	M 68.64 62.19
	L 67.84 62.77
	L 67.38 63.66
	M 67.84 62.77
	L 67.03 63.36
	L 66.57 64.25
	L 65.76 64.84
	M 66.57 64.25
	L 66.12 65.14
	L 66.12 66.14
	M 66.12 65.14
	L 65.66 66.03
	L 65.66 67.03
	L 65.21 67.92
	M 65.66 67.03
	L 65.66 68.03
	M 65.66 66.03
	L 65.21 66.92
	L 64.4 67.51
	M 65.21 66.92
	L 64.76 67.82
	M 67.03 63.36
	L 66.22 63.95
	L 65.76 64.84
	M 66.22 63.95
	L 65.41 64.54
	L 64.42 64.69
	L 63.47 64.38
	M 64.42 64.69
	L 63.43 64.85
	L 62.62 65.44
	M 63.43 64.85
	L 62.45 65.01
	M 65.41 64.54
	L 64.6 65.12
	L 63.61 65.28
	M 64.6 65.12
	L 63.79 65.71
	L 63.34 66.6
	M 63.79 65.71
	L 62.98 66.3
	L 62.53 67.19
	L 61.72 67.78
	M 62.53 67.19
	L 62.07 68.08
	L 62.07 69.08
	M 62.07 68.08
	L 61.62 68.97
	L 61.62 69.97
	L 62.07 70.86
	M 61.62 69.97
	L 61.62 70.97
	M 61.62 68.97
	L 61.17 69.86
	L 60.36 70.45
	M 61.17 69.86
	L 60.71 70.75
	L 60.71 71.75
	M 60.71 70.75
	L 60.26 71.65
	L 59.45 72.23
	L 58.99 73.12
	M 59.45 72.23
	L 58.64 72.82
	L 57.65 72.98
	L 56.7 72.67
	M 57.65 72.98
	L 56.66 73.13
	M 58.64 72.82
	L 57.83 73.41
	L 56.84 73.57
	M 57.83 73.41
	L 57.02 74
	L 56.57 74.89
	M 57.02 74
	L 56.21 74.58
	M 60.26 71.65
	L 59.8 72.54
	L 58.99 73.12
	M 59.8 72.54
	L 59.35 73.43
	L 59.35 74.43
	M 59.35 73.43
	L 58.9 74.32
	L 58.09 74.91
	L 57.1 75.06
	M 58.09 74.91
	L 57.28 75.49
	L 56.82 76.39
	M 57.28 75.49
	L 56.47 76.08
	M 58.9 74.32
	L 58.44 75.21
	L 57.63 75.8
	M 58.44 75.21
	L 57.99 76.1
	L 57.99 77.1
	M 57.99 76.1
	L 57.53 76.99
	M 62.98 66.3
	L 62.17 66.89
	L 61.18 67.04
	M 62.17 66.89
	L 61.36 67.48
	L 60.91 68.37
	M 61.36 67.48
	L 60.55 68.06
	L 60.1 68.95
	L 59.29 69.54
	M 60.1 68.95
	L 59.65 69.84
	M 60.55 68.06
	L 59.75 68.65
	L 58.76 68.81
	M 59.75 68.65
	L 58.94 69.24
	L 58.48 70.13
	L 58.48 71.13
	M 58.48 70.13
	L 58.03 71.02
	L 58.03 72.02
	L 58.48 72.91
	M 58.03 72.02
	L 58.03 73.02
	M 58.03 71.02
	L 57.57 71.91
	L 57.57 72.91
	M 57.57 71.91
	L 57.12 72.8
	M 58.94 69.24
	L 58.13 69.83
	L 57.14 69.98
	M 58.13 69.83
	L 57.32 70.41
	L 56.33 70.57
	L 55.38 70.26
	M 56.33 70.57
	L 55.34 70.73
	M 57.32 70.41
	L 56.51 71
	L 55.52 71.16
	M 56.51 71
	L 55.7 71.59
	L 55.25 72.48
	L 55.25 73.48
	M 55.25 72.48
	L 54.79 73.37
	M 55.7 71.59
	L 54.89 72.18
	L 53.9 72.33
	M 54.89 72.18
	L 54.08 72.77
	L 53.63 73.66
	M 54.08 72.77
	L 53.27 73.35
	M 79.97 53.96
	L 79.52 54.85
	L 78.71 55.43
	M 79.52 54.85
	L 79.06 55.74
	L 78.25 56.33
	L 77.8 57.22
	M 78.25 56.33
	L 77.44 56.91
	M 79.06 55.74
	L 78.61 56.63
	L 78.61 57.63
	M 78.61 56.63
	L 78.15 57.52
	L 77.35 58.11
	L 76.36 58.26
	M 77.35 58.11
	L 76.54 58.7
	L 76.08 59.59
	L 75.27 60.17
	M 76.08 59.59
	L 75.63 60.48
	L 75.63 61.48
	M 75.63 60.48
	L 75.17 61.37
	M 76.54 58.7
	L 75.73 59.28
	L 74.74 59.44
	M 75.73 59.28
	L 74.92 59.87
	M 78.15 57.52
	L 77.7 58.41
	L 76.89 59
	M 77.7 58.41
	L 77.25 59.3
	L 77.25 60.3
	M 77.25 59.3
	L 76.79 60.19
	L 75.98 60.78
	L 75 60.94
	M 75.98 60.78
	L 75.17 61.37
	L 74.72 62.26
	M 75.17 61.37
	L 74.37 61.96
	M 76.79 60.19
	L 76.34 61.08
	L 76.34 62.08
	M 76.34 61.08
	L 75.88 61.98
	L 75.88 62.98
	L 75.43 63.87
	M 75.88 62.98
	L 75.88 63.98
	L 76.34 64.87
	M 75.88 63.98
	L 75.88 64.98
	M 75.88 61.98
	L 75.43 62.87
	L 74.62 63.45
	M 75.43 62.87
	L 74.98 63.76
	L 74.98 64.76
	M 74.98 63.76
	L 74.52 64.65
	L 73.71 65.24
	L 73.26 66.13
	M 73.71 65.24
	L 72.9 65.82
	L 71.92 65.98
	L 70.97 65.67
	M 71.92 65.98
	L 70.93 66.14
	L 70.12 66.72
	M 70.93 66.14
	L 69.94 66.29
	M 72.9 65.82
	L 72.1 66.41
	L 71.64 67.3
	M 72.1 66.41
	L 71.29 67
	L 70.3 67.16
	L 69.35 66.85
	M 70.3 67.16
	L 69.31 67.31
	L 68.5 67.9
	M 69.31 67.31
	L 68.32 67.47
	L 67.37 67.16
	L 66.67 66.45
	M 67.37 67.16
	L 66.42 66.85
	L 65.43 67.01
	M 66.42 66.85
	L 65.47 66.54
	M 68.32 67.47
	L 67.34 67.63
	L 66.38 67.32
	M 67.34 67.63
	L 66.35 67.78
	M 71.29 67
	L 70.48 67.59
	L 70.02 68.48
	M 70.48 67.59
	L 69.67 68.17
	L 68.68 68.33
	L 67.87 68.92
	M 68.68 68.33
	L 67.69 68.49
	M 69.67 68.17
	L 68.86 68.76
	L 67.87 68.92
	M 68.86 68.76
	L 68.05 69.35
	L 67.6 70.24
	M 68.05 69.35
	L 67.24 69.94
	L 66.79 70.83
	L 65.98 71.42
	M 66.79 70.83
	L 66.33 71.72
	L 65.52 72.31
	L 64.54 72.46
	M 65.52 72.31
	L 64.72 72.9
	L 64.26 73.79
	M 64.72 72.9
	L 63.91 73.48
	M 66.33 71.72
	L 65.88 72.61
	L 65.07 73.2
	M 65.88 72.61
	L 65.43 73.5
	M 67.24 69.94
	L 66.43 70.53
	L 65.44 70.68
	M 66.43 70.53
	L 65.62 71.11
	L 65.17 72
	L 64.36 72.59
	M 65.17 72
	L 64.72 72.9
	M 65.62 71.11
	L 64.81 71.7
	L 63.83 71.86
	M 64.81 71.7
	L 64.01 72.29
	M 74.52 64.65
	L 74.07 65.54
	L 73.26 66.13
	M 74.07 65.54
	L 73.61 66.43
	L 73.61 67.43
	L 74.07 68.32
	M 73.61 67.43
	L 73.61 68.43
	M 73.61 66.43
	L 73.16 67.32
	L 72.35 67.91
	M 73.16 67.32
	L 72.71 68.21
	L 72.71 69.21
	M 72.71 68.21
	L 72.25 69.1
	L 72.25 70.1
	L 71.8 70.99
	M 72.25 70.1
	L 72.25 71.1
	L 72.71 71.99
	L 73.52 72.58
	M 72.71 71.99
	L 73.16 72.89
	M 72.25 71.1
	L 72.25 72.1
	L 72.71 72.99
	M 72.25 72.1
	L 72.25 73.1
	M 72.25 69.1
	L 71.8 69.99
	L 71.8 70.99
	M 71.8 69.99
	L 71.34 70.89
	L 70.54 71.47
	L 69.55 71.63
	M 70.54 71.47
	L 69.73 72.06
	M 71.34 70.89
	L 70.89 71.78
	L 70.89 72.78
	M 70.89 71.78
	L 70.44 72.67
	L 70.44 73.67
	L 69.98 74.56
	M 70.44 73.67
	L 70.44 74.67
	L 70.89 75.56
	M 70.44 74.67
	L 70.44 75.67
	L 69.98 76.56
	L 69.17 77.15
	M 69.98 76.56
	L 69.53 77.45
	L 69.53 78.45
	M 69.53 77.45
	L 69.07 78.34
	M 70.44 75.67
	L 70.44 76.67
	L 70.89 77.56
	M 70.44 76.67
	L 70.44 77.67
	L 70.89 78.56
	L 70.89 79.56
	M 70.89 78.56
	L 71.34 79.45
	L 72.15 80.04
	M 71.34 79.45
	L 71.8 80.34
	M 70.44 77.67
	L 70.44 78.67
	L 69.98 79.56
	M 70.44 78.67
	L 70.44 79.67
	L 70.89 80.56
	M 70.44 79.67
	L 70.44 80.67
	L 69.98 81.56
	L 69.17 82.15
	M 69.98 81.56
	L 69.53 82.45
	L 69.53 83.45
	M 69.53 82.45
	L 69.07 83.34
	L 69.07 84.34
	L 68.62 85.23
	M 69.07 84.34
	L 69.07 85.34
	M 69.07 83.34
	L 68.62 84.23
	L 67.81 84.82
	M 68.62 84.23
	L 68.17 85.12
	M 70.44 80.67
	L 70.44 81.67
	L 69.98 82.56
	M 70.44 81.67
	L 70.44 82.67
	L 69.98 83.56
	L 69.17 84.15
	M 69.98 83.56
	L 69.53 84.45
	M 70.44 82.67
	L 70.44 83.67
	L 70.89 84.56
	M 70.44 83.67
	L 70.44 84.67
	M 70.44 72.67
	L 69.98 73.56
	L 69.17 74.15
	M 69.98 73.56
	L 69.53 74.45
	L 69.53 75.45
	M 69.53 74.45
	L 69.07 75.34
	L 68.27 75.93
	L 67.81 76.82
	M 68.27 75.93
	L 67.46 76.52
	M 69.07 75.34
	L 68.62 76.23
	L 68.62 77.23
	M 68.62 76.23
	L 68.17 77.12
	L 68.17 78.12
	L 68.62 79.01
	M 68.17 78.12
	L 68.17 79.12
	M 68.17 77.12
	L 67.71 78.01
	L 66.9 78.6
	M 67.71 78.01
	L 67.26 78.9
	L 66.45 79.49
	L 66 80.38
	M 66.45 79.49
	L 65.64 80.08
	L 64.65 80.24
	L 63.84 80.82
	M 64.65 80.24
	L 63.67 80.39
	M 65.64 80.08
	L 64.83 80.67
	L 64.38 81.56
	M 64.83 80.67
	L 64.02 81.26
	M 67.26 78.9
	L 66.8 79.8
	L 66 80.38
	M 66.8 79.8
	L 66.35 80.69
	L 66.35 81.69
	M 66.35 80.69
	L 65.9 81.58
	L 65.9 82.58
	L 66.35 83.47
	M 65.9 82.58
	L 65.9 83.58
	M 65.9 81.58
	L 65.44 82.47
	L 64.63 83.06
	M 65.44 82.47
	L 64.99 83.36
	L 64.99 84.36
	M 64.99 83.36
	L 64.53 84.25
	M 91.77 30.79
	L 92.67 31.24
	L 93.56 31.7
	L 94.45 32.15
	L 95.34 32.61
	L 96.29 32.91
	L 97.24 33.22
	L 98.19 33.53
	L 99.14 33.84
	L 98.83 34.79
	L 98.13 35.5
	M 98.83 34.79
	L 98.52 35.74
	L 98.68 36.73
	L 98.37 37.68
	M 98.68 36.73
	L 98.84 37.72
	L 99.43 38.53
	M 98.84 37.72
	L 98.99 38.71
	M 98.52 35.74
	L 98.22 36.7
	L 97.51 37.4
	M 98.22 36.7
	L 97.91 37.65
	L 98.06 38.63
	M 97.91 37.65
	L 97.6 38.6
	L 96.89 39.3
	L 96.58 40.26
	M 96.89 39.3
	L 96.18 40.01
	L 95.23 40.32
	L 94.24 40.16
	M 95.23 40.32
	L 94.28 40.63
	L 93.57 41.34
	M 94.28 40.63
	L 93.33 40.94
	M 96.18 40.01
	L 95.48 40.72
	L 94.53 41.03
	M 95.48 40.72
	L 94.77 41.43
	L 94.46 42.38
	M 94.77 41.43
	L 94.06 42.13
	L 93.75 43.08
	L 93.05 43.79
	M 93.75 43.08
	L 93.44 44.03
	M 94.06 42.13
	L 93.35 42.84
	L 92.4 43.15
	M 93.35 42.84
	L 92.65 43.55
	L 92.34 44.5
	M 92.65 43.55
	L 91.94 44.25
	M 97.6 38.6
	L 97.29 39.55
	L 97.44 40.54
	M 97.29 39.55
	L 96.98 40.5
	L 97.14 41.49
	L 97.72 42.3
	M 97.14 41.49
	L 97.29 42.47
	M 96.98 40.5
	L 96.67 41.45
	L 95.96 42.16
	M 96.67 41.45
	L 96.36 42.4
	L 96.52 43.39
	M 96.36 42.4
	L 96.05 43.35
	L 96.21 44.34
	L 95.9 45.29
	M 96.21 44.34
	L 96.37 45.33
	L 96.95 46.14
	M 96.37 45.33
	L 96.52 46.32
	L 97.11 47.12
	L 97.27 48.11
	M 97.11 47.12
	L 97.7 47.93
	L 98.59 48.39
	M 97.7 47.93
	L 98.28 48.74
	M 96.52 46.32
	L 96.68 47.3
	L 97.27 48.11
	M 96.68 47.3
	L 96.83 48.29
	M 96.05 43.35
	L 95.74 44.3
	L 95.04 45.01
	M 95.74 44.3
	L 95.43 45.25
	L 95.59 46.24
	M 95.43 45.25
	L 95.13 46.21
	L 94.42 46.91
	L 93.47 47.22
	M 94.42 46.91
	L 93.71 47.62
	M 95.13 46.21
	L 94.82 47.16
	L 94.11 47.86
	M 94.82 47.16
	L 94.51 48.11
	L 94.66 49.1
	M 94.51 48.11
	L 94.2 49.06
	L 94.35 50.05
	L 94.05 51
	M 94.35 50.05
	L 94.51 51.03
	M 94.2 49.06
	L 93.89 50.01
	L 93.18 50.72
	M 93.89 50.01
	L 93.58 50.96
	L 92.87 51.67
	L 92.56 52.62
	M 92.87 51.67
	L 92.17 52.38
	L 91.21 52.68
	L 90.23 52.53
	M 91.21 52.68
	L 90.26 52.99
	M 92.17 52.38
	L 91.46 53.08
	L 91.15 54.03
	M 91.46 53.08
	L 90.75 53.79
	L 90.44 54.74
	L 89.74 55.45
	M 90.44 54.74
	L 90.13 55.69
	L 90.29 56.68
	M 90.13 55.69
	L 89.82 56.64
	M 90.75 53.79
	L 90.04 54.5
	L 89.74 55.45
	M 90.04 54.5
	L 89.34 55.2
	L 88.39 55.51
	L 87.68 56.22
	M 88.39 55.51
	L 87.44 55.82
	L 86.73 56.53
	L 86.42 57.48
	M 86.73 56.53
	L 86.02 57.24
	M 87.44 55.82
	L 86.48 56.13
	L 85.5 55.97
	M 86.48 56.13
	L 85.53 56.44
	M 89.34 55.2
	L 88.63 55.91
	L 87.68 56.22
	M 88.63 55.91
	L 87.92 56.62
	L 86.97 56.93
	L 85.98 56.77
	M 86.97 56.93
	L 86.02 57.24
	L 85.31 57.94
	M 86.02 57.24
	L 85.07 57.54
	M 87.92 56.62
	L 87.22 57.32
	L 86.27 57.63
	M 87.22 57.32
	L 86.51 58.03
	L 86.2 58.98
	L 86.36 59.97
	M 86.2 58.98
	L 85.89 59.93
	M 86.51 58.03
	L 85.8 58.74
	L 84.85 59.05
	M 85.8 58.74
	L 85.09 59.45
	L 84.79 60.4
	M 85.09 59.45
	L 84.39 60.15
	M 93.58 50.96
	L 93.27 51.91
	L 93.43 52.9
	M 93.27 51.91
	L 92.96 52.86
	L 92.26 53.57
	L 91.3 53.88
	M 92.26 53.57
	L 91.55 54.28
	M 92.96 52.86
	L 92.65 53.81
	L 92.81 54.8
	M 92.65 53.81
	L 92.34 54.77
	L 92.5 55.75
	L 92.19 56.7
	M 92.5 55.75
	L 92.66 56.74
	L 93.24 57.55
	M 92.66 56.74
	L 92.81 57.73
	M 92.34 54.77
	L 92.04 55.72
	L 91.33 56.42
	M 92.04 55.72
	L 91.73 56.67
	L 91.88 57.66
	M 91.73 56.67
	L 91.42 57.62
	L 90.71 58.33
	L 89.76 58.63
	M 90.71 58.33
	L 90 59.03
	L 89.69 59.98
	M 90 59.03
	L 89.3 59.74
	L 88.34 60.05
	L 87.36 59.89
	M 88.34 60.05
	L 87.39 60.36
	L 86.69 61.06
	M 87.39 60.36
	L 86.44 60.67
	M 89.3 59.74
	L 88.59 60.45
	L 87.64 60.76
	M 88.59 60.45
	L 87.88 61.15
	L 87.57 62.1
	M 87.88 61.15
	L 87.17 61.86
	M 91.42 57.62
	L 91.11 58.57
	L 90.4 59.28
	M 91.11 58.57
	L 90.8 59.52
	L 90.09 60.23
	L 89.14 60.54
	M 90.09 60.23
	L 89.38 60.93
	L 89.08 61.89
	M 89.38 60.93
	L 88.68 61.64
	M 90.8 59.52
	L 90.49 60.47
	L 89.78 61.18
	M 90.49 60.47
	L 90.18 61.42
	L 90.34 62.41
	M 90.18 61.42
	L 89.87 62.37
	L 90.03 63.36
	L 89.72 64.31
	M 90.03 63.36
	L 90.18 64.35
	L 90.77 65.16
	M 90.18 64.35
	L 90.34 65.34
	L 90.03 66.29
	L 89.33 66.99
	M 90.03 66.29
	L 89.72 67.24
	L 89.88 68.23
	M 89.72 67.24
	L 89.41 68.19
	M 90.34 65.34
	L 90.5 66.32
	L 90.19 67.28
	M 90.5 66.32
	L 90.65 67.31
	L 91.24 68.12
	M 90.65 67.31
	L 90.81 68.3
	L 91.4 69.11
	L 92.29 69.56
	M 91.4 69.11
	L 91.99 69.92
	M 90.81 68.3
	L 90.97 69.29
	L 90.66 70.24
	M 90.97 69.29
	L 91.12 70.28
	L 91.71 71.08
	M 91.12 70.28
	L 91.28 71.26
	M 89.87 62.37
	L 89.56 63.32
	L 89.72 64.31
	M 89.56 63.32
	L 89.25 64.28
	L 88.55 64.98
	L 88.24 65.93
	M 88.55 64.98
	L 87.84 65.69
	M 89.25 64.28
	L 88.94 65.23
	L 88.24 65.93
	M 88.94 65.23
	L 88.64 66.18
	L 88.79 67.17
	M 88.64 66.18
	L 88.33 67.13
	L 88.48 68.12
	L 88.17 69.07
	M 88.48 68.12
	L 88.64 69.1
	L 89.23 69.91
	M 88.64 69.1
	L 88.8 70.09
	L 88.49 71.04
	L 87.78 71.75
	M 88.49 71.04
	L 88.18 71.99
	M 88.8 70.09
	L 88.95 71.08
	L 89.54 71.89
	M 88.95 71.08
	L 89.11 72.07
	L 88.8 73.02
	L 88.09 73.73
	M 88.8 73.02
	L 88.49 73.97
	L 88.65 74.96
	M 88.49 73.97
	L 88.18 74.92
	L 88.34 75.91
	L 88.03 76.86
	M 88.34 75.91
	L 88.49 76.9
	L 89.08 77.7
	M 88.49 76.9
	L 88.65 77.88
	M 88.18 74.92
	L 87.87 75.87
	L 87.17 76.58
	M 87.87 75.87
	L 87.56 76.82
	M 89.11 72.07
	L 89.27 73.06
	L 88.96 74.01
	M 89.27 73.06
	L 89.42 74.04
	L 89.11 74.99
	L 88.41 75.7
	M 89.11 74.99
	L 88.8 75.94
	M 89.42 74.04
	L 89.58 75.03
	L 89.27 75.98
	M 89.58 75.03
	L 89.73 76.02
	L 90.32 76.83
	L 91.21 77.28
	M 90.32 76.83
	L 90.91 77.64
	M 89.73 76.02
	L 89.89 77.01
	L 90.48 77.81
	M 89.89 77.01
	L 90.05 77.99
	L 90.64 78.8
	L 91.53 79.26
	M 90.64 78.8
	L 91.22 79.61
	L 92.11 80.07
	L 92.7 80.87
	M 92.11 80.07
	L 93.01 80.52
	M 91.22 79.61
	L 91.81 80.42
	L 92.7 80.87
	M 91.81 80.42
	L 92.4 81.23
	M 90.05 77.99
	L 90.2 78.98
	L 89.9 79.93
	M 90.2 78.98
	L 90.36 79.97
	L 90.95 80.78
	M 90.36 79.97
	L 90.52 80.96
	L 90.21 81.91
	L 90.36 82.9
	M 90.21 81.91
	L 89.9 82.86
	M 90.52 80.96
	L 90.67 81.94
	L 90.36 82.9
	M 90.67 81.94
	L 90.83 82.93
	M 88.33 67.13
	L 88.02 68.08
	L 87.31 68.79
	M 88.02 68.08
	L 87.71 69.03
	L 87.87 70.02
	M 87.71 69.03
	L 87.4 69.98
	L 86.69 70.69
	L 86.38 71.64
	M 86.69 70.69
	L 85.99 71.4
	M 87.4 69.98
	L 87.09 70.93
	L 87.25 71.92
	M 87.09 70.93
	L 86.78 71.88
	L 86.07 72.59
	L 85.77 73.54
	M 86.07 72.59
	L 85.37 73.3
	L 84.42 73.61
	L 83.43 73.45
	M 84.42 73.61
	L 83.47 73.92
	L 82.76 74.62
	M 83.47 73.92
	L 82.51 74.23
	M 85.37 73.3
	L 84.66 74.01
	L 83.71 74.31
	M 84.66 74.01
	L 83.95 74.71
	L 83.64 75.66
	L 82.94 76.37
	M 83.64 75.66
	L 83.34 76.61
	M 83.95 74.71
	L 83.25 75.42
	L 82.3 75.73
	M 83.25 75.42
	L 82.54 76.13
	L 82.23 77.08
	M 82.54 76.13
	L 81.83 76.83
	M 86.78 71.88
	L 86.47 72.84
	L 85.77 73.54
	M 86.47 72.84
	L 86.16 73.79
	L 86.32 74.77
	L 86.01 75.73
	M 86.32 74.77
	L 86.48 75.76
	L 87.06 76.57
	M 86.48 75.76
	L 86.63 76.75
	M 86.16 73.79
	L 85.85 74.74
	L 85.15 75.44
	M 85.85 74.74
	L 85.55 75.69
	L 85.7 76.68
	M 85.55 75.69
	L 85.24 76.64
	L 85.39 77.63
	L 85.08 78.58
	M 85.39 77.63
	L 85.55 78.61
	L 86.14 79.42
	M 85.55 78.61
	L 85.71 79.6
	L 86.29 80.41
	L 86.45 81.4
	M 86.29 80.41
	L 86.88 81.22
	M 85.71 79.6
	L 85.86 80.59
	L 86.45 81.4
	M 85.86 80.59
	L 86.02 81.58
	M 85.24 76.64
	L 84.93 77.59
	L 85.08 78.58
	M 84.93 77.59
	L 84.62 78.54
	L 84.78 79.53
	L 85.36 80.34
	M 84.78 79.53
	L 84.93 80.52
	M 84.62 78.54
	L 84.31 79.49
	L 83.6 80.2
	M 84.31 79.49
	L 84 80.44
	L 84.16 81.43
	M 84 80.44
	L 83.69 81.39
	L 83.85 82.38
	L 83.54 83.33
	M 83.85 82.38
	L 84 83.37
	L 84.59 84.18
	M 84 83.37
	L 84.16 84.36
	L 83.85 85.31
	L 84.01 86.3
	M 83.85 85.31
	L 83.54 86.26
	M 84.16 84.36
	L 84.32 85.35
	L 84.01 86.3
	M 84.32 85.35
	L 84.47 86.33
	L 85.06 87.14
	M 84.47 86.33
	L 84.63 87.32
	L 84.32 88.27
	L 84.48 89.26
	M 84.32 88.27
	L 84.01 89.22
	L 83.31 89.93
	L 82.35 90.24
	M 83.31 89.93
	L 82.6 90.64
	M 84.01 89.22
	L 83.7 90.17
	L 83.86 91.16
	M 83.7 90.17
	L 83.39 91.13
	L 83.55 92.11
	L 84.14 92.92
	M 83.55 92.11
	L 83.71 93.1
	M 83.39 91.13
	L 83.09 92.08
	L 83.24 93.06
	M 83.09 92.08
	L 82.78 93.03
	M 84.63 87.32
	L 84.79 88.31
	L 84.48 89.26
	M 84.79 88.31
	L 84.94 89.3
	L 85.53 90.11
	L 86.42 90.56
	M 85.53 90.11
	L 86.12 90.91
	M 84.94 89.3
	L 85.1 90.28
	L 84.79 91.24
	M 85.1 90.28
	L 85.26 91.27
	L 85.84 92.08
	M 85.26 91.27
	L 85.41 92.26
	L 86 93.07
	L 86.16 94.06
	M 86 93.07
	L 86.59 93.88
	L 86.74 94.87
	L 86.44 95.82
	M 86.74 94.87
	L 86.9 95.85
	L 87.49 96.66
	M 86.9 95.85
	L 87.06 96.84
	M 86.59 93.88
	L 87.18 94.69
	L 87.33 95.67
	M 87.18 94.69
	L 87.76 95.5
	L 88.65 95.95
	M 87.76 95.5
	L 88.35 96.3
	M 85.41 92.26
	L 85.57 93.25
	L 86.16 94.06
	M 85.57 93.25
	L 85.73 94.23
	L 85.42 95.19
	L 84.71 95.89
	M 85.42 95.19
	L 85.11 96.14
	M 85.73 94.23
	L 85.88 95.22
	L 85.57 96.17
	M 85.88 95.22
	L 86.04 96.21
	L 86.63 97.02
	L 87.52 97.47
	M 86.63 97.02
	L 87.21 97.83
	M 86.04 96.21
	L 86.19 97.2
	L 86.78 98.01
	M 86.19 97.2
	L 86.35 98.19
	L 86.04 99.14
	L 85.33 99.84
	M 86.04 99.14
	L 85.73 100.1
	L 85.89 101.1
	M 85.73 100.1
	L 85.42 101
	L 84.72 101.7
	L 83.77 102.1
	M 84.72 101.7
	L 84.01 102.5
	L 83.7 103.4
	M 84.01 102.5
	L 83.3 103.2
	M 85.42 101
	L 85.11 102
	L 85.27 103
	M 85.11 102
	L 84.81 102.9
	L 84.96 103.9
	L 85.55 104.7
	M 84.96 103.9
	L 85.12 104.9
	M 84.81 102.9
	L 84.5 103.9
	L 84.65 104.9
	M 84.5 103.9
	L 84.19 104.8
	L 83.48 105.6
	L 82.53 105.9
	M 83.48 105.6
	L 82.77 106.3
	L 82.46 107.2
	M 82.77 106.3
	L 82.07 107
	L 81.12 107.3
	L 80.41 108
	M 81.12 107.3
	L 80.16 107.6
	M 82.07 107
	L 81.36 107.7
	L 81.05 108.6
	M 81.36 107.7
	L 80.65 108.4
	M 84.19 104.8
	L 83.88 105.8
	L 83.17 106.5
	M 83.88 105.8
	L 83.57 106.7
	L 82.86 107.5
	L 81.91 107.8
	M 82.86 107.5
	L 82.16 108.2
	M 83.57 106.7
	L 83.26 107.7
	L 82.55 108.4
	M 83.26 107.7
	L 82.95 108.6
	L 83.11 109.6
	M 82.95 108.6
	L 82.64 109.6
	M 86.35 98.19
	L 86.51 99.17
	L 87.1 99.98
	M 86.51 99.17
	L 86.66 100.2
	L 87.25 101
	L 87.41 102
	M 87.25 101
	L 87.84 101.8
	M 86.66 100.2
	L 86.82 101.1
	L 86.51 102.1
	M 86.82 101.1
	L 86.98 102.1
	L 87.56 102.9
	M 86.98 102.1
	L 87.13 103.1
	L 86.82 104.1
	L 86.12 104.8
	M 86.82 104.1
	L 86.52 105
	L 85.81 105.7
	L 84.86 106
	M 85.81 105.7
	L 85.1 106.4
	L 84.79 107.4
	M 85.1 106.4
	L 84.39 107.1
	M 86.52 105
	L 86.21 106
	L 85.5 106.7
	M 86.21 106
	L 85.9 106.9
	L 86.05 107.9
	L 86.64 108.7
	M 86.05 107.9
	L 86.21 108.9
	M 85.9 106.9
	L 85.59 107.9
	L 85.74 108.9
	M 85.59 107.9
	L 85.28 108.8
	M 87.13 103.1
	L 87.29 104.1
	L 86.98 105.1
	M 87.29 104.1
	L 87.45 105.1
	L 88.03 105.9
	M 87.45 105.1
	L 87.6 106.1
	L 87.29 107
	L 87.45 108
	M 87.29 107
	L 86.98 108
	M 87.6 106.1
	L 87.76 107.1
	L 87.45 108
	M 87.76 107.1
	L 87.92 108.1
	L 88.5 108.9
	L 88.66 109.9
	M 88.5 108.9
	L 89.09 109.7
	M 87.92 108.1
	L 88.07 109.1
	L 87.76 110
	M 88.07 109.1
	L 88.23 110
	L 88.82 110.8
	M 88.23 110
	L 88.38 111
	M 83.69 81.39
	L 83.38 82.35
	L 82.68 83.05
	M 83.38 82.35
	L 83.07 83.3
	L 83.23 84.28
	M 83.07 83.3
	L 82.76 84.25
	L 82.06 84.96
	L 81.11 85.26
	M 82.06 84.96
	L 81.35 85.66
	L 81.04 86.61
	M 81.35 85.66
	L 80.64 86.37
	M 82.76 84.25
	L 82.46 85.2
	L 81.75 85.91
	M 82.46 85.2
	L 82.15 86.15
	L 81.44 86.86
	L 80.49 87.17
	M 81.44 86.86
	L 80.73 87.56
	L 80.42 88.52
	M 80.73 87.56
	L 80.03 88.27
	L 79.07 88.58
	L 78.37 89.29
	M 79.07 88.58
	L 78.12 88.89
	M 80.03 88.27
	L 79.32 88.98
	L 79.01 89.93
	M 79.32 88.98
	L 78.61 89.69
	M 82.15 86.15
	L 81.84 87.1
	L 81.13 87.81
	M 81.84 87.1
	L 81.53 88.05
	L 80.82 88.76
	L 79.87 89.07
	M 80.82 88.76
	L 80.11 89.47
	L 79.81 90.42
	M 80.11 89.47
	L 79.41 90.17
	M 81.53 88.05
	L 81.22 89
	L 80.51 89.71
	M 81.22 89
	L 80.91 89.95
	L 80.2 90.66
	L 79.25 90.97
	M 80.2 90.66
	L 79.5 91.37
	L 78.55 91.68
	L 77.84 92.38
	M 78.55 91.68
	L 77.59 91.99
	M 79.5 91.37
	L 78.79 92.08
	L 77.84 92.38
	M 78.79 92.08
	L 78.08 92.78
	L 77.77 93.73
	L 77.07 94.44
	M 77.77 93.73
	L 77.46 94.68
	L 77.62 95.67
	M 77.46 94.68
	L 77.15 95.64
	L 76.45 96.34
	L 75.5 96.65
	M 76.45 96.34
	L 75.74 97.05
	L 75.43 98
	M 75.74 97.05
	L 75.03 97.76
	M 77.15 95.64
	L 76.85 96.59
	L 77 97.57
	M 76.85 96.59
	L 76.54 97.54
	M 78.08 92.78
	L 77.37 93.49
	L 76.42 93.8
	M 77.37 93.49
	L 76.67 94.2
	L 76.36 95.15
	M 76.67 94.2
	L 75.96 94.9
	L 75.65 95.86
	L 74.94 96.56
	M 75.65 95.86
	L 75.34 96.81
	M 75.96 94.9
	L 75.25 95.61
	L 74.94 96.56
	M 75.25 95.61
	L 74.55 96.32
	M 80.91 89.95
	L 80.6 90.91
	L 79.89 91.61
	M 80.6 90.91
	L 80.29 91.86
	L 79.59 92.56
	L 79.28 93.51
	M 79.59 92.56
	L 78.88 93.27
	M 80.29 91.86
	L 79.98 92.81
	L 79.28 93.51
	M 79.98 92.81
	L 79.67 93.76
	L 79.83 94.75
	M 79.67 93.76
	L 79.37 94.71
	L 79.52 95.7
	L 79.21 96.65
	M 79.52 95.7
	L 79.68 96.68
	M 79.37 94.71
	L 79.06 95.66
	L 79.21 96.65
	M 79.06 95.66
	L 78.75 96.61
	L 78.9 97.6
	L 78.59 98.55
	M 78.9 97.6
	L 79.06 98.59
	L 79.65 99.4
	M 79.06 98.59
	L 79.22 99.57
	L 78.91 100.5
	L 79.06 101.5
	M 78.91 100.5
	L 78.6 101.5
	M 79.22 99.57
	L 79.37 100.6
	L 79.96 101.4
	M 79.37 100.6
	L 79.53 101.6
	M 78.75 96.61
	L 78.44 97.56
	L 77.73 98.27
	M 78.44 97.56
	L 78.13 98.51
	L 78.29 99.5
	L 77.98 100.5
	M 78.29 99.5
	L 78.44 100.5
	M 78.13 98.51
	L 77.82 99.46
	L 77.11 100.2
	M 77.82 99.46
	L 77.51 100.4
	L 77.67 101.4
	M 77.51 100.4
	L 77.2 101.4
	L 77.36 102.4
	L 77.95 103.2
	M 77.36 102.4
	L 77.52 103.3
	L 77.21 104.3
	L 77.36 105.3
	M 77.21 104.3
	L 76.9 105.2
	M 77.52 103.3
	L 77.67 104.3
	L 77.36 105.3
	M 77.67 104.3
	L 77.83 105.3
	L 78.42 106.1
	L 79.31 106.6
	M 78.42 106.1
	L 79 106.9
	M 77.83 105.3
	L 77.98 106.3
	L 77.68 107.3
	M 77.98 106.3
	L 78.14 107.3
	L 78.73 108.1
	M 78.14 107.3
	L 78.3 108.3
	L 78.89 109.1
	L 79.04 110.1
	M 78.89 109.1
	L 79.47 109.9
	L 79.63 110.9
	L 80.22 111.7
	M 79.63 110.9
	L 79.79 111.9
	M 79.47 109.9
	L 80.06 110.7
	L 80.95 111.2
	M 80.06 110.7
	L 80.65 111.5
	M 78.3 108.3
	L 78.45 109.3
	L 79.04 110.1
	M 78.45 109.3
	L 78.61 110.3
	L 79.2 111.1
	L 80.09 111.5
	M 79.2 111.1
	L 79.79 111.9
	M 78.61 110.3
	L 78.77 111.2
	L 78.46 112.2
	M 78.77 111.2
	L 78.92 112.2
	L 79.51 113
	M 78.92 112.2
	L 79.08 113.2
	M 77.2 101.4
	L 76.89 102.3
	L 77.05 103.3
	M 76.89 102.3
	L 76.58 103.3
	L 75.88 104
	L 74.93 104.3
	M 75.88 104
	L 75.17 104.7
	L 74.86 105.6
	M 75.17 104.7
	L 74.46 105.4
	M 76.58 103.3
	L 76.28 104.2
	L 75.57 104.9
	M 76.28 104.2
	L 75.97 105.2
	L 76.12 106.2
	L 76.71 107
	M 76.12 106.2
	L 76.28 107.1
	M 75.97 105.2
	L 75.66 106.1
	L 74.95 106.8
	M 75.66 106.1
	L 75.35 107.1
	L 74.64 107.8
	L 73.69 108.1
	M 74.64 107.8
	L 73.93 108.5
	L 73.62 109.4
	M 73.93 108.5
	L 73.23 109.2
	L 72.92 110.1
	L 72.21 110.9
	M 72.92 110.1
	L 72.61 111.1
	M 73.23 109.2
	L 72.52 109.9
	L 72.21 110.9
	M 72.52 109.9
	L 71.81 110.6
	M 75.35 107.1
	L 75.04 108
	L 75.2 109
	M 75.04 108
	L 74.73 109
	L 74.02 109.7
	L 73.71 110.6
	M 74.02 109.7
	L 73.32 110.4
	M 74.73 109
	L 74.42 109.9
	L 73.71 110.6
	M 74.42 109.9
	L 74.11 110.9
	L 74.27 111.9
	L 74.86 112.7
	M 74.27 111.9
	L 74.42 112.9
	L 74.12 113.8
	L 73.41 114.5
	M 74.12 113.8
	L 73.81 114.8
	M 74.42 112.9
	L 74.58 113.8
	L 75.17 114.6
	M 74.58 113.8
	L 74.74 114.8
	M 74.11 110.9
	L 73.8 111.8
	L 73.1 112.5
	M 73.8 111.8
	L 73.49 112.8
	L 72.79 113.5
	L 71.84 113.8
	M 72.79 113.5
	L 72.08 114.2
	M 73.49 112.8
	L 73.19 113.7
	L 72.48 114.4
	M 73.19 113.7
	L 72.88 114.7
	M 99.14 33.84
	L 100.1 34.15
	L 101 34.46
	L 102 34.77
	L 102.9 35.08
	L 103.8 35.53
	L 104.7 35.99
	L 105.6 36.44
	L 106.5 36.89
	L 107.5 37.2
	L 108.4 37.51
	L 109.4 37.82
	L 110.3 38.13
	L 111.2 38.58
	L 112.1 39.04
	L 113 39.49
	L 113.9 39.95
	L 114.8 40.26
	L 115.8 40.56
	L 116.7 40.87
	L 117.7 41.18
	L 118.6 41.64
	L 119.5 42.09
	L 120.4 42.54
	L 121.2 43
	L 122.1 43.59
	L 122.9 44.17
	L 123.7 44.76
	L 124.5 45.35
	L 125.2 46.06
	L 125.9 46.76
	L 126.6 47.47
	L 127.3 48.18
	L 128.1 48.77
	L 128.9 49.35
	L 129.7 49.94
	L 130.5 50.53
	L 131.4 50.98
	L 132.3 51.44
	L 133.2 51.89
	L 134.1 52.34
	L 134.9 52.93
	L 135.7 53.52
	L 136.5 54.11
	L 137.3 54.7
	L 138.1 55.4
	L 138.8 56.11
	L 139.5 56.82
	L 140.2 57.52
	L 141 58.11
	L 141.8 58.7
	L 142.6 59.29
	L 143.4 59.88
	L 144.1 60.58
	L 144.8 61.29
	L 145.5 62
	L 146.2 62.7
	L 146.8 63.51
	L 147.4 64.32
	L 148 65.13
	L 148.6 65.94
	L 149.3 66.65
	L 150 67.35
	L 150.7 68.06
	L 151.4 68.77
	L 152 69.58
	L 152.6 70.39
	L 153.2 71.2
	L 153.8 72
	L 154.5 72.71
	L 155.2 73.42
	L 155.9 74.13
	L 156.6 74.83
	L 157.4 75.42
	L 158.2 76.01
	L 159 76.6
	L 159.8 77.18
	L 160.7 77.64
	L 161.6 78.09
	L 162.5 78.55
	L 163.4 79
	L 164.4 79.31
	L 165.3 79.62
	L 166.3 79.93
	L 167.2 80.24
	L 168.1 80.69
	L 169 81.14
	L 169.9 81.6
	L 170.8 82.05
	L 171.6 82.64
	L 172.4 83.23
	L 173.2 83.82
	L 174 84.4
	L 174.9 84.86
	L 175.8 85.31
	L 176.7 85.77
	L 177.6 86.22
	L 178.5 86.53
	L 179.5 86.84
	L 180.4 87.15
	L 181.4 87.46
	L 182.4 87.61
	L 183.3 87.77
	L 184.3 87.92
	L 185.3 88.08
	L 186.3 88.08
	L 187.3 88.08
	L 188.3 88.08
	L 189.3 88.08
	L 190.3 87.92
	L 191.3 87.77
	L 192.3 87.61
	L 193.3 87.46
	L 194.2 87.15
	L 195.2 86.84
"/>
</svg>
