<svg version="1.1" baseProfile="full" xmlns="http://www.w3.org/2000/svg"
width="293.1" height="1024"
viewBox="-4.534 -56.78 16.54 57.78"
>
<rect x="-4.534" y="-56.78" width="100%" height="100%" fill="white" />
<path stroke="green" stroke-width="0.04" stroke-linecap="round" fill="none"
transform="scale(1 -1)"
d="	M 0 0
	L 0 1
	L -0.2079 1.978
	M 0 1
	L 0 2
	L 0.2079 2.978
	M 0 2
	L 0 3
	L -0.2079 3.978
	L -0.2079 4.978
	M -0.2079 3.978
	L -0.4158 4.956
	M 0 3
	L 0 4
	L -0.2079 4.978
	M 0 4
	L 0 5
	L 0.2079 5.978
	L 0.2079 6.978
	M 0.2079 5.978
	L 0.4158 6.956
	L 0.8226 7.87
	M 0.4158 6.956
	L 0.6237 7.934
	L 0.6237 8.934
	L 0.4158 9.913
	M 0.6237 8.934
	L 0.6237 9.934
	M 0.6237 7.934
	L 0.8316 8.913
	L 0.8316 9.913
	M 0.8316 8.913
	L 1.04 9.891
	M 0 5
	L 0 6
	L -0.2079 6.978
	M 0 6
	L 0 7
	L 0.2079 7.978
	L 0.6146 8.892
	M 0.2079 7.978
	L 0.4158 8.956
	M 0 7
	L 0 8
	L -0.2079 8.978
	M 0 8
	L 0 9
	L 0.2079 9.978
	M 0 9
	L 0 10
	L -0.2079 10.98
	L -0.2079 11.98
	M -0.2079 10.98
	L -0.4158 11.96
	L -0.8226 12.87
	L -1.03 13.85
	M -0.8226 12.87
	L -1.229 13.78
	M -0.4158 11.96
	L -0.6237 12.93
	L -0.6237 13.93
	M -0.6237 12.93
	L -0.8316 13.91
	L -0.8316 14.91
	L -0.6237 15.89
	M -0.8316 14.91
	L -0.8316 15.91
	M -0.8316 13.91
	L -1.04 14.89
	L -1.04 15.89
	M -1.04 14.89
	L -1.247 15.87
	L -1.654 16.78
	L -2.242 17.59
	M -1.654 16.78
	L -2.061 17.7
	L -2.269 18.67
	L -2.676 19.59
	M -2.269 18.67
	L -2.477 19.65
	M -2.061 17.7
	L -2.468 18.61
	L -2.676 19.59
	M -2.468 18.61
	L -2.874 19.52
	M -1.247 15.87
	L -1.455 16.85
	L -1.862 17.76
	M -1.455 16.85
	L -1.663 17.83
	L -1.663 18.83
	M -1.663 17.83
	L -1.871 18.8
	L -2.278 19.72
	L -2.866 20.53
	M -2.278 19.72
	L -2.685 20.63
	L -2.893 21.61
	M -2.685 20.63
	L -3.091 21.54
	M -1.871 18.8
	L -2.079 19.78
	L -2.486 20.7
	M -2.079 19.78
	L -2.287 20.76
	L -2.287 21.76
	L -2.079 22.74
	M -2.287 21.76
	L -2.287 22.76
	M -2.287 20.76
	L -2.495 21.74
	L -2.902 22.65
	M -2.495 21.74
	L -2.703 22.72
	L -2.703 23.72
	L -2.911 24.69
	M -2.703 23.72
	L -2.703 24.72
	L -2.495 25.69
	L -2.495 26.69
	M -2.495 25.69
	L -2.287 26.67
	M -2.703 24.72
	L -2.703 25.72
	L -2.911 26.69
	M -2.703 25.72
	L -2.703 26.72
	M -2.703 22.72
	L -2.911 23.69
	L -3.318 24.61
	M -2.911 23.69
	L -3.119 24.67
	L -3.119 25.67
	L -2.911 26.65
	M -3.119 25.67
	L -3.119 26.67
	M -3.119 24.67
	L -3.327 25.65
	L -3.327 26.65
	M -3.327 25.65
	L -3.534 26.63
	M 0 10
	L 0 11
	L -0.2079 11.98
	M 0 11
	L 0 12
	L -0.2079 12.98
	L -0.2079 13.98
	M -0.2079 12.98
	L -0.4158 13.96
	M 0 12
	L 0 13
	L -0.2079 13.98
	M 0 13
	L 0 14
	L -0.2079 14.98
	L -0.6146 15.89
	M -0.2079 14.98
	L -0.4158 15.96
	L -0.4158 16.96
	L -0.2079 17.93
	M -0.4158 16.96
	L -0.4158 17.96
	M -0.4158 15.96
	L -0.6237 16.93
	L -0.6237 17.93
	M -0.6237 16.93
	L -0.8316 17.91
	M 0 14
	L 0 15
	L -0.2079 15.98
	M 0 15
	L 0 16
	L 0.2079 16.98
	M 0 16
	L 0 17
	L 0.2079 17.98
	L 0.2079 18.98
	M 0.2079 17.98
	L 0.4158 18.96
	L 0.8226 19.87
	M 0.4158 18.96
	L 0.6237 19.93
	M 0 17
	L 0 18
	L -0.2079 18.98
	M 0 18
	L 0 19
	L 0.2079 19.98
	M 0 19
	L 0 20
	L 0.2079 20.98
	L 0.2079 21.98
	M 0.2079 20.98
	L 0.4158 21.96
	L 0.4158 22.96
	L 0.2079 23.93
	M 0.4158 22.96
	L 0.4158 23.96
	L 0.6237 24.93
	M 0.4158 23.96
	L 0.4158 24.96
	M 0.4158 21.96
	L 0.6237 22.93
	L 1.03 23.85
	M 0.6237 22.93
	L 0.8316 23.91
	L 1.238 24.83
	L 1.446 25.8
	M 1.238 24.83
	L 1.645 25.74
	L 2.233 26.55
	M 1.645 25.74
	L 2.052 26.65
	M 0.8316 23.91
	L 1.04 24.89
	L 1.446 25.8
	M 1.04 24.89
	L 1.247 25.87
	L 1.247 26.87
	L 1.04 27.85
	M 1.247 26.87
	L 1.247 27.87
	L 1.04 28.85
	L 0.6328 29.76
	M 1.04 28.85
	L 0.8316 29.83
	M 1.247 27.87
	L 1.247 28.87
	L 1.04 29.85
	M 1.247 28.87
	L 1.247 29.87
	L 1.455 30.85
	M 1.247 29.87
	L 1.247 30.87
	L 1.455 31.85
	L 1.455 32.85
	M 1.455 31.85
	L 1.663 32.83
	M 1.247 30.87
	L 1.247 31.87
	L 1.04 32.85
	M 1.247 31.87
	L 1.247 32.87
	L 1.455 33.85
	M 1.247 32.87
	L 1.247 33.87
	M 1.247 25.87
	L 1.455 26.85
	L 1.455 27.85
	M 1.455 26.85
	L 1.663 27.83
	L 2.07 28.74
	M 1.663 27.83
	L 1.871 28.8
	L 1.871 29.8
	L 2.079 30.78
	M 1.871 29.8
	L 1.871 30.8
	M 1.871 28.8
	L 2.079 29.78
	L 2.079 30.78
	M 2.079 29.78
	L 2.287 30.76
	L 2.694 31.67
	L 2.902 32.65
	M 2.694 31.67
	L 3.101 32.59
	L 3.308 33.56
	L 3.715 34.48
	M 3.308 33.56
	L 3.516 34.54
	M 3.101 32.59
	L 3.507 33.5
	L 4.095 34.31
	M 3.507 33.5
	L 3.914 34.41
	L 4.502 35.22
	L 4.908 36.14
	M 4.502 35.22
	L 5.09 36.03
	L 5.833 36.7
	M 5.09 36.03
	L 5.677 36.84
	M 3.914 34.41
	L 4.321 35.33
	L 4.908 36.14
	M 4.321 35.33
	L 4.727 36.24
	M 2.287 30.76
	L 2.495 31.74
	L 2.902 32.65
	M 2.495 31.74
	L 2.703 32.72
	L 2.703 33.72
	L 2.495 34.69
	M 2.703 33.72
	L 2.703 34.72
	L 2.911 35.69
	M 2.703 34.72
	L 2.703 35.72
	M 2.703 32.72
	L 2.911 33.69
	L 3.318 34.61
	M 2.911 33.69
	L 3.119 34.67
	L 3.525 35.59
	L 4.113 36.39
	M 3.525 35.59
	L 3.932 36.5
	M 3.119 34.67
	L 3.327 35.65
	L 3.327 36.65
	M 3.327 35.65
	L 3.534 36.63
	M 0 20
	L 0 21
	L 0.2079 21.98
	M 0 21
	L 0 22
	L 0.2079 22.98
	L 0.6146 23.89
	M 0.2079 22.98
	L 0.4158 23.96
	M 0 22
	L 0 23
	L -0.2079 23.98
	M 0 23
	L 0 24
	L 0.2079 24.98
	L 0.6146 25.89
	M 0.2079 24.98
	L 0.4158 25.96
	L 0.4158 26.96
	L 0.2079 27.93
	M 0.4158 26.96
	L 0.4158 27.96
	M 0.4158 25.96
	L 0.6237 26.93
	L 1.03 27.85
	M 0.6237 26.93
	L 0.8316 27.91
	M 0 24
	L 0 25
	L -0.2079 25.98
	M 0 25
	L 0 26
	L 0.2079 26.98
	M 0 26
	L 0 27
	L -0.2079 27.98
	L -0.2079 28.98
	M -0.2079 27.98
	L -0.4158 28.96
	M 0 27
	L 0 28
	L -0.2079 28.98
	M 0 28
	L 0 29
	L 0.2079 29.98
	L 0.6146 30.89
	M 0.2079 29.98
	L 0.4158 30.96
	M 0 29
	L 0 30
	L -0.2079 30.98
	M 0 30
	L 0 31
	L 0.2079 31.98
	M 0 31
	L 0 32
	L 0.2079 32.98
	L 0.2079 33.98
	M 0.2079 32.98
	L 0.4158 33.96
	L 0.8226 34.87
	M 0.4158 33.96
	L 0.6237 34.93
	L 0.6237 35.93
	L 0.8316 36.91
	M 0.6237 35.93
	L 0.6237 36.93
	M 0.6237 34.93
	L 0.8316 35.91
	L 0.8316 36.91
	M 0.8316 35.91
	L 1.04 36.89
	L 1.04 37.89
	L 0.8316 38.87
	M 1.04 37.89
	L 1.04 38.89
	L 1.247 39.87
	M 1.04 38.89
	L 1.04 39.89
	L 1.247 40.87
	L 1.247 41.87
	M 1.247 40.87
	L 1.455 41.85
	L 1.862 42.76
	M 1.455 41.85
	L 1.663 42.83
	M 1.04 39.89
	L 1.04 40.89
	L 1.247 41.87
	M 1.04 40.89
	L 1.04 41.89
	M 1.04 36.89
	L 1.247 37.87
	L 1.247 38.87
	M 1.247 37.87
	L 1.455 38.85
	L 1.862 39.76
	L 2.07 40.74
	M 1.862 39.76
	L 2.269 40.67
	M 1.455 38.85
	L 1.663 39.83
	L 2.07 40.74
	M 1.663 39.83
	L 1.871 40.8
	L 2.278 41.72
	L 2.486 42.7
	M 2.278 41.72
	L 2.685 42.63
	L 3.272 43.44
	M 2.685 42.63
	L 3.091 43.54
	L 3.299 44.52
	L 3.706 45.44
	M 3.299 44.52
	L 3.507 45.5
	M 3.091 43.54
	L 3.498 44.46
	L 3.706 45.44
	M 3.498 44.46
	L 3.905 45.37
	L 4.493 46.18
	L 4.899 47.09
	M 4.493 46.18
	L 5.08 46.99
	M 3.905 45.37
	L 4.312 46.28
	L 4.52 47.26
	M 4.312 46.28
	L 4.718 47.2
	L 5.306 48.01
	M 4.718 47.2
	L 5.125 48.11
	L 5.713 48.92
	L 6.12 49.83
	M 5.713 48.92
	L 6.301 49.73
	L 7.044 50.4
	M 6.301 49.73
	L 6.888 50.54
	L 7.295 51.45
	L 7.503 52.43
	M 7.295 51.45
	L 7.702 52.37
	L 8.29 53.17
	M 7.702 52.37
	L 8.109 53.28
	M 6.888 50.54
	L 7.476 51.35
	L 7.883 52.26
	M 7.476 51.35
	L 8.064 52.16
	L 8.807 52.83
	M 8.064 52.16
	L 8.652 52.97
	L 9.395 53.63
	L 9.983 54.44
	M 9.395 53.63
	L 10.14 54.3
	L 11 54.8
	M 10.14 54.3
	L 10.88 54.97
	M 8.652 52.97
	L 9.24 53.77
	L 9.646 54.69
	M 9.24 53.77
	L 9.827 54.58
	L 10.57 55.25
	M 9.827 54.58
	L 10.42 55.39
	M 5.125 48.11
	L 5.532 49.03
	L 6.12 49.83
	M 5.532 49.03
	L 5.939 49.94
	L 6.526 50.75
	L 7.27 51.42
	M 6.526 50.75
	L 7.114 51.56
	M 5.939 49.94
	L 6.345 50.85
	L 6.933 51.66
	M 6.345 50.85
	L 6.752 51.77
	M 1.871 40.8
	L 2.079 41.78
	L 2.079 42.78
	M 2.079 41.78
	L 2.287 42.76
	L 2.694 43.67
	M 2.287 42.76
	L 2.495 43.74
	L 2.495 44.74
	L 2.287 45.72
	M 2.495 44.74
	L 2.495 45.74
	L 2.703 46.72
	M 2.495 45.74
	L 2.495 46.74
	M 2.495 43.74
	L 2.703 44.72
	L 2.703 45.72
	M 2.703 44.72
	L 2.911 45.69
	L 2.911 46.69
	L 3.119 47.67
	M 2.911 46.69
	L 2.911 47.69
	L 2.703 48.67
	L 2.296 49.59
	M 2.703 48.67
	L 2.495 49.65
	M 2.911 47.69
	L 2.911 48.69
	L 2.703 49.67
	M 2.911 48.69
	L 2.911 49.69
	M 2.911 45.69
	L 3.119 46.67
	L 3.119 47.67
	M 3.119 46.67
	L 3.327 47.65
	L 3.327 48.65
	L 3.534 49.63
	M 3.327 48.65
	L 3.327 49.65
	M 3.327 47.65
	L 3.534 48.63
	L 3.941 49.54
	M 3.534 48.63
	L 3.742 49.61
	L 4.149 50.52
	L 4.357 51.5
	M 4.149 50.52
	L 4.556 51.43
	L 5.144 52.24
	L 5.887 52.91
	M 5.144 52.24
	L 5.731 53.05
	M 4.556 51.43
	L 4.963 52.35
	L 5.171 53.33
	M 4.963 52.35
	L 5.369 53.26
	M 3.742 49.61
	L 3.95 50.58
	L 4.357 51.5
	M 3.95 50.58
	L 4.158 51.56
	L 4.565 52.48
	L 4.773 53.45
	M 4.565 52.48
	L 4.972 53.39
	L 5.559 54.2
	M 4.972 53.39
	L 5.378 54.3
	M 4.158 51.56
	L 4.366 52.54
	L 4.366 53.54
	M 4.366 52.54
	L 4.574 53.52
	L 4.981 54.43
	M 4.574 53.52
	L 4.782 54.5
	M 0 32
	L 0 33
	L -0.2079 33.98
	M 0 33
	L 0 34
	L -0.2079 34.98
	L -0.6146 35.89
	M -0.2079 34.98
	L -0.4158 35.96
	L -0.4158 36.96
	M -0.4158 35.96
	L -0.6237 36.93
	M 0 34
	L 0 35
	L 0.2079 35.98
	M 0 35
	L 0 36
	L 0.2079 36.98
	L 0.2079 37.98
	M 0.2079 36.98
	L 0.4158 37.96
	M 0 36
	L 0 37
	L -0.2079 37.98
	M 0 37
	L 0 38
	L 0.2079 38.98
	M 0 38
	L 0 39
	L 0.2079 39.98
	L 0.2079 40.98
	M 0.2079 39.98
	L 0.4158 40.96
	L 0.8226 41.87
	M 0.4158 40.96
	L 0.6237 41.93
	L 1.03 42.85
	L 1.238 43.83
	M 1.03 42.85
	L 1.437 43.76
	M 0.6237 41.93
	L 0.8316 42.91
	L 0.8316 43.91
	M 0.8316 42.91
	L 1.04 43.89
	M 0 39
	L 0 40
	L -0.2079 40.98
	M 0 40
	L 0 41
	L 0.2079 41.98
	L 0.2079 42.98
	M 0.2079 41.98
	L 0.4158 42.96
	L 0.8226 43.87
	M 0.4158 42.96
	L 0.6237 43.93
	M 0 41
	L 0 42
	L 0.2079 42.98
	M 0 42
	L 0 43
	L -0.2079 43.98
	L -0.6146 44.89
	M -0.2079 43.98
	L -0.4158 44.96
	L -0.4158 45.96
	M -0.4158 44.96
	L -0.6237 45.93
	L -0.6237 46.93
	L -0.4158 47.91
	M -0.6237 46.93
	L -0.6237 47.93
	M -0.6237 45.93
	L -0.8316 46.91
	L -0.8316 47.91
	M -0.8316 46.91
	L -1.04 47.89
	L -1.446 48.8
	L -2.034 49.61
	M -1.446 48.8
	L -1.853 49.72
	L -2.061 50.7
	M -1.853 49.72
	L -2.26 50.63
	L -2.468 51.61
	L -2.874 52.52
	M -2.468 51.61
	L -2.676 52.59
	L -2.676 53.59
	M -2.676 52.59
	L -2.884 53.57
	M -2.26 50.63
	L -2.667 51.54
	L -3.254 52.35
	M -2.667 51.54
	L -3.073 52.46
	M -1.04 47.89
	L -1.247 48.87
	L -1.654 49.78
	M -1.247 48.87
	L -1.455 49.85
	L -1.862 50.76
	L -2.07 51.74
	M -1.862 50.76
	L -2.269 51.67
	M -1.455 49.85
	L -1.663 50.83
	L -2.07 51.74
	M -1.663 50.83
	L -1.871 51.8
	L -1.871 52.8
	M -1.871 51.8
	L -2.079 52.78
	L -2.079 53.78
	L -2.287 54.76
	M -2.079 53.78
	L -2.079 54.78
	L -1.871 55.76
	M -2.079 54.78
	L -2.079 55.78
	M -2.079 52.78
	L -2.287 53.76
	L -2.694 54.67
	M -2.287 53.76
	L -2.495 54.74
	L -2.495 55.74
	M -2.495 54.74
	L -2.703 55.72
	M 0 43
	L 0 44
	L 0.2079 44.98
	M 0 44
	L 0 45
	L 0.2079 45.98
	L 0.2079 46.98
	M 0.2079 45.98
	L 0.4158 46.96
	M 0 45
	L 0 46
	L 0.2079 46.98
	M 0 46
	L 0 47
	L 0.2079 47.98
	L 0.2079 48.98
	M 0.2079 47.98
	L 0.4158 48.96
	L 0.8226 49.87
	M 0.4158 48.96
	L 0.6237 49.93
	L 0.6237 50.93
	L 0.4158 51.91
	M 0.6237 50.93
	L 0.6237 51.93
	M 0.6237 49.93
	L 0.8316 50.91
	L 0.8316 51.91
	M 0.8316 50.91
	L 1.04 51.89
	L 1.446 52.8
	M 1.04 51.89
	L 1.247 52.87
	M 0 47
	L 0 48
	L 0.2079 48.98
	M 0 48
	L 0 49
	L 0.2079 49.98
	L 0.6146 50.89
	M 0.2079 49.98
	L 0.4158 50.96
	M 0 49
	L 0 50
	L -0.2079 50.98
	M 0 50
	L 0 51
	L 0.2079 51.98
	M 0 51
	L 0 52
"/>
</svg>
