<svg version="1.1" baseProfile="full" xmlns="http://www.w3.org/2000/svg"
width="639.5" height="1024"
viewBox="-8.748 -26.98 33.23 53.21"
>
<rect x="-8.748" y="-26.98" width="100%" height="100%" fill="white" />
<path stroke="green" stroke-width="0.04" stroke-linecap="round" fill="none"
transform="scale(1 -1)"
d="	M 0 0
	L 0 1
	L -0.3827 1.924
	L -0.3827 2.924
	L -0.7654 3.848
	L -0.7654 4.848
	L -0.3827 5.772
	L -0.3827 6.772
	L 0 7.696
	L 0.7071 8.403
	L 1.631 8.785
	L 2.338 9.492
	L 3.262 9.875
	L 3.969 10.58
	L 4.893 10.96
	L 5.6 11.67
	L 5.983 12.6
	L 5.983 13.6
	L 5.6 14.52
	L 4.893 15.23
	L 3.969 15.61
	L 3.262 16.32
	L 2.879 17.24
	L 2.172 17.95
	L 1.789 18.87
	L 1.789 19.87
	L 2.172 20.8
	L 2.879 21.5
	L 3.262 22.43
	L 3.262 23.43
	L 2.879 24.35
	L 2.172 25.06
	L 1.789 25.98
	M 0 0
	L 1 -1.305e-07
	L 1.924 -0.3827
	L 2.924 -0.3827
	L 3.848 -5.02e-07
	L 4.848 -6.325e-07
	L 5.772 0.3827
	L 6.772 0.3827
	L 7.696 -1.004e-06
	L 8.403 -0.7071
	L 9.327 -1.09
	L 10.03 -1.797
	L 10.42 -2.721
	L 10.42 -3.721
	L 10.8 -4.645
	L 10.8 -5.645
	L 11.18 -6.569
	L 11.18 -7.569
	L 10.8 -8.492
	L 10.09 -9.2
	L 9.168 -9.582
	L 8.461 -10.29
	L 7.537 -10.67
	L 6.537 -10.67
	L 5.613 -10.29
	L 4.613 -10.29
	L 3.689 -9.907
	L 2.982 -9.2
	L 2.058 -8.817
	L 1.351 -8.11
	L 0.4273 -7.727
	L -0.2798 -7.02
	L -1.204 -6.637
	M 0 0
	L -1 -1.305e-07
	L -1.924 -0.3827
	L -2.631 -1.09
	L -3.014 -2.014
	L -3.014 -3.014
	L -2.631 -3.938
	L -2.631 -4.938
	L -2.248 -5.861
	L -1.541 -6.569
	L -1.159 -7.492
	L -0.4514 -8.2
	L -0.06872 -9.123
	L 0.6384 -9.831
	L 1.021 -10.75
	L 1.021 -11.75
	L 0.6384 -12.68
	L -0.06872 -13.39
	L -0.4514 -14.31
	L -0.4514 -15.31
	L -0.8341 -16.23
	L -1.541 -16.94
	L -2.465 -17.32
	L -3.172 -18.03
	L -3.555 -18.95
	L -3.555 -19.95
	L -3.938 -20.88
	L -4.645 -21.58
	L -5.027 -22.51
	L -5.734 -23.22
	L -6.117 -24.14
	L -6.824 -24.85
	L -7.748 -25.23
	M 0 0
	L 2.609e-07 -1
	L 0.3827 -1.924
	L 0.3827 -2.924
	L 0.7654 -3.848
	L 1.472 -4.555
	L 1.855 -5.479
	L 2.562 -6.186
	L 2.945 -7.11
	L 3.652 -7.817
	L 4.035 -8.741
	L 4.742 -9.448
	L 5.666 -9.831
	L 6.666 -9.831
	L 7.59 -10.21
	L 8.297 -10.92
	L 9.221 -11.3
	L 10.22 -11.3
	L 11.14 -10.92
	L 11.85 -10.21
	L 12.78 -9.831
	L 13.78 -9.831
	L 14.7 -9.448
	L 15.7 -9.448
	L 16.62 -9.831
	L 17.62 -9.831
	L 18.55 -10.21
	L 19.55 -10.21
	L 20.47 -10.6
	L 21.47 -10.6
	L 22.39 -10.98
	L 23.1 -11.69
	L 23.48 -12.61
"/>
</svg>
